<svg width="22" height="24" viewBox="0 0 22 24" fill="none" xmlns="http://www.w3.org/2000/svg">
    <path
        d="M20.8 9.8H1M15.3 1V5.4M6.5 1V5.4M9.25 14.2L10.9 13.1V18.6M9.525 18.6H12.275M6.28 23H15.52C17.3682 23 18.2923 23 18.9982 22.6403C19.6191 22.3239 20.1239 21.8191 20.4403 21.1982C20.8 20.4923 20.8 19.5682 20.8 17.72V8.48C20.8 6.63183 20.8 5.70774 20.4403 5.00183C20.1239 4.3809 19.6191 3.87606 18.9982 3.55968C18.2923 3.2 17.3682 3.2 15.52 3.2H6.28C4.43183 3.2 3.50774 3.2 2.80183 3.55968C2.1809 3.87606 1.67606 4.3809 1.35968 5.00183C1 5.70774 1 6.63183 1 8.48V17.72C1 19.5682 1 20.4923 1.35968 21.1982C1.67606 21.8191 2.1809 22.3239 2.80183 22.6403C3.50774 23 4.43183 23 6.28 23Z"
        stroke="currentColor" stroke-width="2" stroke-linecap="round" stroke-linejoin="round" />
</svg>