<svg width="27" height="25" viewBox="0 0 27 25" fill="none" xmlns="http://www.w3.org/2000/svg">
    <path
        d="M13.3888 23.25L13.2666 23.0666C12.4176 21.7931 11.993 21.1563 11.4322 20.6953C10.9357 20.2872 10.3636 19.9811 9.74859 19.7943C9.05393 19.5833 8.28865 19.5833 6.75808 19.5833H5.07774C3.70872 19.5833 3.02421 19.5833 2.50132 19.3169C2.04136 19.0825 1.66741 18.7086 1.43305 18.2486C1.16663 17.7257 1.16663 17.0412 1.16663 15.6722V5.16111C1.16663 3.79209 1.16663 3.10759 1.43305 2.58469C1.66741 2.12474 2.04136 1.75079 2.50132 1.51643C3.02421 1.25 3.70872 1.25 5.07774 1.25H5.56663C8.30466 1.25 9.67368 1.25 10.7195 1.78286C11.6394 2.25157 12.3873 2.99948 12.856 3.91938C13.3888 4.96517 13.3888 6.33419 13.3888 9.07222M13.3888 23.25V9.07222M13.3888 23.25L13.5111 23.0666C14.3601 21.7931 14.7846 21.1563 15.3455 20.6953C15.842 20.2872 16.4141 19.9811 17.0291 19.7943C17.7238 19.5833 18.489 19.5833 20.0196 19.5833H21.7C23.069 19.5833 23.7535 19.5833 24.2764 19.3169C24.7363 19.0825 25.1103 18.7086 25.3446 18.2486C25.6111 17.7257 25.6111 17.0412 25.6111 15.6722V5.16111C25.6111 3.79209 25.6111 3.10759 25.3446 2.58469C25.1103 2.12474 24.7363 1.75079 24.2764 1.51643C23.7535 1.25 23.069 1.25 21.7 1.25H21.2111C18.473 1.25 17.104 1.25 16.0582 1.78286C15.1383 2.25157 14.3904 2.99948 13.9217 3.91938C13.3888 4.96517 13.3888 6.33419 13.3888 9.07222"
        stroke="currentColor" stroke-width="2" stroke-linecap="round" stroke-linejoin="round" />
</svg>