<svg width="29" height="32" viewBox="0 0 29 32" fill="none" xmlns="http://www.w3.org/2000/svg">
<path d="M27.17 13.1867H2M20.1783 2V7.59333M8.99167 2V7.59333M12.4875 18.78L14.585 17.3817V24.3733M12.8371 24.3733H16.3329M8.712 29.9667H20.458C22.8074 29.9667 23.9821 29.9667 24.8795 29.5094C25.6688 29.1073 26.3106 28.4655 26.7128 27.6762C27.17 26.7788 27.17 25.6041 27.17 23.2547V11.5087C27.17 9.15925 27.17 7.98454 26.7128 7.08718C26.3106 6.29784 25.6688 5.65608 24.8795 5.25389C23.9821 4.79667 22.8074 4.79667 20.458 4.79667H8.712C6.36258 4.79667 5.18787 4.79667 4.29051 5.25389C3.50117 5.65608 2.85942 6.29784 2.45723 7.08718C2 7.98454 2 9.15925 2 11.5087V23.2547C2 25.6041 2 26.7788 2.45723 27.6762C2.85942 28.4655 3.50117 29.1073 4.29051 29.5094C5.18787 29.9667 6.36258 29.9667 8.712 29.9667Z" stroke="#666666" stroke-width="2.5" stroke-linecap="round" stroke-linejoin="round"/>
</svg>
