<svg width="13" height="15" viewBox="0 0 13 15" fill="none" xmlns="http://www.w3.org/2000/svg">
    <path
        d="M12.4737 6.30526H1.42102M9.40348 1V3.65263M4.4912 1V3.65263M4.36839 14.2632H9.52628C10.558 14.2632 11.0738 14.2632 11.4678 14.0463C11.8145 13.8556 12.0963 13.5512 12.2729 13.1769C12.4737 12.7513 12.4737 12.1942 12.4737 11.08V5.50947C12.4737 4.39526 12.4737 3.83816 12.2729 3.41259C12.0963 3.03824 11.8145 2.73389 11.4678 2.54316C11.0738 2.32632 10.558 2.32632 9.52628 2.32632H4.36839C3.33671 2.32632 2.82088 2.32632 2.42683 2.54316C2.08021 2.73389 1.79841 3.03824 1.6218 3.41259C1.42102 3.83816 1.42102 4.39526 1.42102 5.50947V11.08C1.42102 12.1942 1.42102 12.7513 1.6218 13.1769C1.79841 13.5512 2.08021 13.8556 2.42683 14.0463C2.82088 14.2632 3.33671 14.2632 4.36839 14.2632Z"
        stroke="currentColor" stroke-linecap="round" stroke-linejoin="round" />
</svg>