<svg width="34" height="30" viewBox="0 0 34 30" fill="none" xmlns="http://www.w3.org/2000/svg">
<path d="M30.8853 12.5807V26.6129L23.3081 19.0357L21.8565 20.4873L29.2999 27.941H3.76801L10.9746 20.4873L9.49209 19.0563L2.05902 26.7468V8.91563L14.8558 21.6507C15.2416 22.0342 15.7635 22.2494 16.3075 22.2494C16.8514 22.2494 17.3733 22.0342 17.7591 21.6507L26.8497 12.6116C26.1242 12.4222 25.4304 12.1274 24.7906 11.7365L16.2869 20.1888L3.40768 7.35077H21.4241C21.2251 6.68203 21.1177 5.98937 21.105 5.29175H2.05902C1.51294 5.29175 0.989215 5.50868 0.603074 5.89482C0.216932 6.28096 0 6.80468 0 7.35077V27.941C0 28.4871 0.216932 29.0108 0.603074 29.3969C0.989215 29.7831 1.51294 30 2.05902 30H30.8853C31.4314 30 31.9551 29.7831 32.3413 29.3969C32.7274 29.0108 32.9444 28.4871 32.9444 27.941V11.6747C32.3063 12.0763 31.6125 12.3815 30.8853 12.5807Z" fill="#1E1E1E" fill-opacity="0.6"/>
<path d="M28.8263 10.2951C31.6692 10.2951 33.9739 7.99047 33.9739 5.14756C33.9739 2.30464 31.6692 0 28.8263 0C25.9834 0 23.6788 2.30464 23.6788 5.14756C23.6788 7.99047 25.9834 10.2951 28.8263 10.2951Z" fill="#1E1E1E" fill-opacity="0.6"/>
</svg>
