<svg width="29" height="26" viewBox="0 0 29 26" fill="none" xmlns="http://www.w3.org/2000/svg">
<path d="M21.2825 16.0646V12.201C21.2825 11.9702 21.2825 11.8549 21.2474 11.753C21.2163 11.663 21.1656 11.5809 21.0989 11.5129C21.0236 11.4359 20.9204 11.3843 20.714 11.2811L14.855 8.35163M4.571 9.63713V18.387C4.571 18.8651 4.571 19.1042 4.64558 19.3135C4.71152 19.4985 4.81897 19.666 4.95971 19.803C5.1189 19.958 5.33622 20.0576 5.77082 20.2568L13.998 24.0276C14.3133 24.1721 14.4709 24.2443 14.6351 24.2728C14.7806 24.2981 14.9294 24.2981 15.0749 24.2728C15.2391 24.2443 15.3967 24.1721 15.712 24.0276L23.9392 20.2568C24.3738 20.0576 24.5911 19.958 24.7503 19.803C24.891 19.666 24.9985 19.4985 25.0644 19.3135C25.139 19.1042 25.139 18.8651 25.139 18.387V9.63713M2 8.35163L14.3951 2.15409C14.5637 2.06977 14.648 2.02761 14.7365 2.01102C14.8148 1.99633 14.8952 1.99633 14.9735 2.01102C15.062 2.02761 15.1463 2.06977 15.3149 2.15409L27.71 8.35163L15.3149 14.5492C15.1463 14.6335 15.062 14.6757 14.9735 14.6922C14.8952 14.7069 14.8148 14.7069 14.7365 14.6922C14.648 14.6757 14.5637 14.6335 14.3951 14.5492L2 8.35163Z" stroke="#666666" stroke-width="2.5" stroke-linecap="round" stroke-linejoin="round"/>
</svg>
