<svg width="148" height="147" viewBox="0 0 148 147" fill="none" xmlns="http://www.w3.org/2000/svg">
<path fill-rule="evenodd" clip-rule="evenodd" d="M85.6354 131.772C85.6354 131.588 85.7862 131.437 85.9706 131.437C86.6411 131.437 87.3116 131.437 87.9821 131.42C88.1665 131.42 88.3174 131.571 88.3174 131.755C88.3174 131.94 88.1665 132.091 87.9821 132.091C87.3284 132.091 86.6579 132.107 85.9706 132.107C85.7862 132.107 85.6354 131.956 85.6354 131.772ZM81.9476 132.074C81.7632 132.074 81.6123 131.923 81.6123 131.739C81.6123 131.554 81.7632 131.403 81.9476 131.403C82.6181 131.42 83.2886 131.42 83.9591 131.42C84.1435 131.42 84.2944 131.571 84.2944 131.755C84.2944 131.956 84.1435 132.091 83.9591 132.091C83.2886 132.091 82.6181 132.074 81.9476 132.074ZM89.6752 131.722C89.6752 131.537 89.826 131.387 90.0104 131.387C90.6809 131.37 91.3515 131.353 92.022 131.336C92.2064 131.336 92.3572 131.47 92.374 131.655C92.374 131.839 92.2399 131.99 92.0555 132.007C91.3514 132.04 90.6809 132.057 90.0104 132.057C89.826 132.057 89.6752 131.906 89.6752 131.722ZM77.9078 131.99C77.7234 131.99 77.5725 131.822 77.5893 131.638C77.5893 131.454 77.7569 131.303 77.9413 131.319C78.6118 131.336 79.2823 131.353 79.9529 131.37C80.1372 131.37 80.2881 131.521 80.2881 131.705C80.2713 131.889 80.1205 132.04 79.9361 132.04C79.2656 132.024 78.5783 132.007 77.9078 131.99ZM93.6814 131.638C93.6814 131.454 93.8156 131.303 94 131.286C94.6705 131.269 95.341 131.236 96.0115 131.202C96.1959 131.202 96.3467 131.336 96.3635 131.521C96.3802 131.705 96.2294 131.856 96.045 131.873C95.3745 131.889 94.704 131.923 94.0167 131.956C94.0335 131.956 94.0335 131.956 94.0167 131.956C93.8323 131.956 93.6814 131.822 93.6814 131.638ZM73.8848 131.839C73.7004 131.839 73.5495 131.672 73.5663 131.487C73.5663 131.303 73.7339 131.152 73.9183 131.169C74.5888 131.202 75.2593 131.219 75.9298 131.252C76.1142 131.252 76.2651 131.42 76.2483 131.604C76.2483 131.772 76.0974 131.923 75.913 131.923C75.2258 131.906 74.5553 131.873 73.8848 131.839ZM97.7045 131.437C97.6877 131.252 97.8386 131.102 98.023 131.085C98.6935 131.051 99.364 131.001 100.035 130.951C100.219 130.934 100.386 131.085 100.386 131.269C100.403 131.454 100.252 131.621 100.068 131.621C99.3975 131.671 98.727 131.705 98.0565 131.755C98.0565 131.755 98.0565 131.755 98.0397 131.755C97.8553 131.755 97.7212 131.621 97.7045 131.437ZM71.8733 131.739C71.2028 131.705 70.5323 131.671 69.8617 131.638C69.6774 131.621 69.5432 131.47 69.5432 131.286C69.56 131.102 69.7109 130.967 69.8953 130.967C70.5658 131.001 71.2363 131.035 71.9068 131.068C72.0912 131.085 72.242 131.236 72.2253 131.42C72.2253 131.604 72.0744 131.739 71.89 131.739H71.8733ZM67.867 131.521C67.1965 131.47 66.526 131.437 65.8555 131.387C65.6711 131.37 65.537 131.219 65.537 131.035C65.5537 130.85 65.7046 130.716 65.889 130.716C66.5595 130.766 67.23 130.8 67.8838 130.85C68.0681 130.867 68.2022 131.018 68.2022 131.202C68.2022 131.387 68.0514 131.521 67.8838 131.521H67.867ZM101.728 131.185C101.711 131.001 101.845 130.833 102.029 130.817C102.7 130.766 103.37 130.699 104.024 130.649C104.208 130.632 104.376 130.766 104.393 130.951C104.41 131.135 104.275 131.303 104.091 131.319C103.437 131.387 102.75 131.437 102.08 131.487H102.063C101.895 131.487 101.744 131.353 101.728 131.185ZM63.8439 131.236C63.1734 131.185 62.5029 131.135 61.8492 131.068C61.6648 131.051 61.5307 130.884 61.5475 130.699C61.5642 130.515 61.7318 130.381 61.9162 130.398C62.5867 130.448 63.2405 130.498 63.911 130.565C64.0954 130.582 64.2295 130.733 64.2127 130.917C64.196 131.102 64.0451 131.236 63.8775 131.236C63.8607 131.236 63.8607 131.236 63.8439 131.236ZM105.734 130.8C105.717 130.615 105.851 130.448 106.036 130.431C106.706 130.364 107.377 130.28 108.03 130.213C108.215 130.196 108.382 130.33 108.399 130.498C108.416 130.682 108.282 130.85 108.114 130.867C107.46 130.951 106.773 131.018 106.103 131.102C106.086 131.102 106.086 131.102 106.069 131.102C105.901 131.102 105.751 130.967 105.734 130.8ZM59.8377 130.9C59.1672 130.833 58.4967 130.783 57.8262 130.716C57.6418 130.699 57.5077 130.532 57.5244 130.347C57.5412 130.163 57.7088 130.029 57.8932 130.046C58.5637 130.113 59.2175 130.18 59.888 130.23C60.0724 130.247 60.2065 130.414 60.1897 130.599C60.1897 130.766 60.0388 130.9 59.8712 130.9C59.8544 130.9 59.8544 130.9 59.8377 130.9ZM109.723 130.347C109.707 130.163 109.824 129.995 110.008 129.978C110.679 129.895 111.349 129.794 112.003 129.693C112.187 129.66 112.355 129.794 112.389 129.978C112.422 130.163 112.288 130.33 112.104 130.364C111.45 130.465 110.779 130.565 110.109 130.649C110.092 130.632 110.075 130.632 110.059 130.632C109.891 130.632 109.757 130.515 109.723 130.347ZM55.8314 130.515C55.1609 130.448 54.4904 130.381 53.8366 130.297C53.6523 130.28 53.5182 130.113 53.5349 129.928C53.5517 129.744 53.7193 129.61 53.9037 129.626C54.5742 129.693 55.228 129.777 55.8985 129.844C56.0829 129.861 56.217 130.029 56.2002 130.213C56.1834 130.381 56.0326 130.515 55.8649 130.515C55.8482 130.515 55.8482 130.515 55.8314 130.515ZM51.8251 130.079C51.1546 129.995 50.4841 129.928 49.8304 129.844C49.646 129.828 49.5119 129.66 49.5454 129.476C49.5622 129.291 49.7298 129.157 49.9142 129.191C50.5679 129.274 51.2384 129.358 51.9089 129.425C52.0933 129.442 52.2274 129.61 52.2107 129.794C52.1772 129.945 52.0263 130.079 51.8587 130.079C51.8419 130.079 51.8251 130.079 51.8251 130.079ZM113.713 129.744C113.679 129.559 113.813 129.392 113.981 129.358C114.652 129.241 115.322 129.124 115.959 129.006C116.143 128.973 116.311 129.09 116.345 129.274C116.378 129.459 116.261 129.626 116.076 129.66C115.423 129.777 114.769 129.895 114.082 130.012C114.082 130.029 114.065 130.029 114.048 130.029C113.88 130.029 113.746 129.911 113.713 129.744ZM47.8189 129.593C47.1484 129.509 46.4778 129.425 45.8241 129.325C45.6397 129.308 45.5056 129.124 45.5391 128.956C45.5559 128.772 45.7403 128.637 45.9079 128.671C46.5616 128.755 47.2322 128.855 47.9027 128.939C48.0871 128.956 48.2212 129.124 48.1876 129.308C48.1876 129.459 48.0368 129.593 47.8692 129.593C47.8524 129.593 47.8356 129.593 47.8189 129.593ZM117.669 129.006C117.635 128.822 117.753 128.654 117.937 128.604C118.591 128.47 119.261 128.319 119.898 128.168C120.083 128.135 120.25 128.235 120.301 128.42C120.334 128.604 120.233 128.772 120.049 128.822C119.412 128.973 118.742 129.124 118.071 129.258C118.038 129.274 118.021 129.274 118.004 129.274C117.853 129.274 117.702 129.174 117.669 129.006ZM43.8294 129.057C43.1589 128.956 42.4884 128.872 41.8346 128.772C41.6502 128.738 41.5329 128.57 41.5496 128.386C41.5831 128.202 41.7508 128.084 41.9352 128.101C42.5889 128.202 43.2594 128.302 43.9299 128.386C44.1143 128.42 44.2484 128.587 44.2149 128.772C44.1981 128.922 44.0473 129.057 43.8797 129.057C43.8629 129.057 43.8461 129.057 43.8294 129.057ZM39.8566 128.453C39.1861 128.352 38.5156 128.235 37.8618 128.135C37.6775 128.101 37.5601 127.933 37.5769 127.749C37.6104 127.565 37.778 127.447 37.9624 127.464C38.6162 127.565 39.2867 127.682 39.9404 127.783C40.1248 127.816 40.2422 127.984 40.2254 128.168C40.2086 128.336 40.0578 128.453 39.9069 128.453C39.8902 128.453 39.8734 128.453 39.8566 128.453ZM121.591 128.118C121.541 127.933 121.658 127.749 121.826 127.716C122.48 127.548 123.133 127.38 123.754 127.196C123.938 127.146 124.122 127.246 124.173 127.431C124.223 127.615 124.122 127.799 123.938 127.85C123.301 128.034 122.647 128.202 121.994 128.369C121.977 128.369 121.943 128.369 121.91 128.369C121.759 128.369 121.625 128.269 121.591 128.118ZM35.8839 127.816C35.2134 127.699 34.5596 127.581 33.9059 127.464C33.7215 127.431 33.6041 127.263 33.6377 127.079C33.6712 126.894 33.8388 126.777 34.0232 126.81C34.677 126.928 35.3307 127.045 36.0012 127.162C36.1856 127.196 36.3029 127.363 36.2694 127.548C36.2359 127.699 36.085 127.816 35.9341 127.816C35.9174 127.816 35.9006 127.816 35.8839 127.816ZM125.463 127.045C125.413 126.861 125.514 126.676 125.681 126.626C126.318 126.425 126.972 126.207 127.576 125.989C127.743 125.922 127.944 126.022 127.995 126.19C128.062 126.358 127.961 126.559 127.793 126.609C127.173 126.827 126.519 127.045 125.866 127.246C125.849 127.28 125.815 127.28 125.782 127.28C125.648 127.28 125.514 127.196 125.463 127.045ZM31.8944 127.095C31.2239 126.961 30.5701 126.844 29.9164 126.71C29.732 126.676 29.6146 126.492 29.6481 126.324C29.6817 126.14 29.8661 126.022 30.0337 126.056C30.6874 126.19 31.3412 126.307 32.0117 126.442C32.1961 126.475 32.3134 126.643 32.2799 126.827C32.2631 126.978 32.129 127.095 31.9614 127.095C31.9446 127.095 31.9279 127.095 31.8944 127.095ZM27.9551 126.324C27.2846 126.19 26.6309 126.039 25.9771 125.905C25.7928 125.872 25.6754 125.687 25.7257 125.503C25.7592 125.318 25.9436 125.201 26.128 125.251C26.765 125.385 27.4187 125.536 28.0893 125.67C28.2736 125.704 28.391 125.888 28.3574 126.073C28.3239 126.207 28.173 126.324 28.0222 126.324C28.0054 126.324 27.9719 126.324 27.9551 126.324ZM129.269 125.721C129.201 125.553 129.285 125.352 129.453 125.285C130.09 125.033 130.71 124.782 131.297 124.514C131.464 124.447 131.666 124.514 131.733 124.681C131.8 124.849 131.733 125.05 131.565 125.117C130.962 125.386 130.325 125.637 129.688 125.888C129.671 125.939 129.621 125.939 129.587 125.939C129.453 125.939 129.319 125.855 129.269 125.721ZM24.0159 125.436C23.3622 125.268 22.6917 125.101 22.0547 124.916C21.8703 124.866 21.7697 124.681 21.82 124.497C21.8703 124.313 22.0547 124.212 22.2391 124.262C22.8593 124.447 23.513 124.614 24.1668 124.782C24.3512 124.832 24.4517 125 24.4182 125.184C24.3847 125.352 24.2506 125.453 24.0997 125.453C24.0662 125.453 24.0494 125.453 24.0159 125.436ZM132.956 124.145C132.873 123.977 132.94 123.776 133.107 123.692C133.711 123.391 134.314 123.089 134.867 122.771C135.035 122.687 135.236 122.737 135.32 122.905C135.404 123.072 135.353 123.273 135.186 123.357C134.616 123.676 134.012 123.994 133.392 124.296C133.359 124.329 133.308 124.329 133.258 124.329C133.141 124.329 133.023 124.262 132.956 124.145ZM20.1102 124.313C19.4732 124.095 18.8195 123.843 18.216 123.609C18.0484 123.542 17.9646 123.34 18.0317 123.173C18.0987 123.005 18.2998 122.921 18.4675 122.988C19.0709 123.24 19.6912 123.475 20.3281 123.692C20.4958 123.76 20.5963 123.944 20.5293 124.112C20.4958 124.229 20.3784 124.329 20.2275 124.329C20.194 124.329 20.1605 124.329 20.1102 124.313ZM16.3554 122.771C15.7352 122.469 15.1317 122.167 14.545 121.849C14.3774 121.765 14.3271 121.547 14.4109 121.396C14.4947 121.228 14.7126 121.178 14.8635 121.262C15.4334 121.58 16.0201 121.882 16.6236 122.167C16.7912 122.251 16.8583 122.452 16.7745 122.62C16.7577 122.737 16.6403 122.804 16.5062 122.804C16.456 122.804 16.4057 122.787 16.3554 122.771ZM136.493 122.217C136.393 122.066 136.443 121.849 136.594 121.748C137.164 121.379 137.717 121.01 138.237 120.625C138.387 120.508 138.589 120.541 138.706 120.692C138.823 120.843 138.79 121.044 138.639 121.161C138.102 121.547 137.549 121.932 136.963 122.301C136.896 122.351 136.829 122.368 136.778 122.368C136.661 122.368 136.56 122.318 136.493 122.217ZM12.8185 120.793C12.2485 120.424 11.6786 120.021 11.159 119.619C11.0081 119.502 10.9913 119.301 11.0919 119.15C11.2092 118.999 11.4104 118.982 11.5613 119.083C12.0809 119.485 12.6173 119.871 13.1872 120.223C13.3381 120.323 13.3884 120.524 13.2878 120.692C13.2208 120.793 13.1202 120.843 13.0029 120.843C12.9358 120.843 12.8688 120.826 12.8185 120.793ZM139.745 119.871C139.628 119.736 139.645 119.519 139.779 119.401C140.282 118.965 140.768 118.513 141.22 118.043C141.354 117.909 141.556 117.909 141.69 118.043C141.824 118.178 141.824 118.379 141.69 118.513C141.22 118.982 140.734 119.452 140.198 119.904C140.164 119.954 140.08 119.988 139.997 119.988C139.896 119.988 139.812 119.954 139.745 119.871ZM9.60005 118.312C9.09717 117.859 8.61106 117.373 8.14171 116.887C8.0076 116.753 8.02434 116.535 8.15844 116.417C8.29254 116.283 8.51047 116.3 8.62781 116.434C9.06363 116.904 9.54974 117.373 10.0359 117.826C10.17 117.943 10.1867 118.161 10.0526 118.295C10.0023 118.362 9.90178 118.395 9.81797 118.395C9.73416 118.395 9.65034 118.362 9.60005 118.312ZM142.595 117.038C142.444 116.92 142.427 116.719 142.545 116.568C142.964 116.049 143.349 115.512 143.684 114.959C143.785 114.808 143.986 114.758 144.154 114.859C144.305 114.959 144.355 115.16 144.254 115.328C143.902 115.898 143.5 116.451 143.064 116.987C142.997 117.054 142.897 117.105 142.796 117.105C142.729 117.105 142.645 117.088 142.595 117.038ZM6.81743 115.328C6.39837 114.792 6.01283 114.222 5.64405 113.652C5.54347 113.501 5.59378 113.283 5.74464 113.182C5.8955 113.082 6.11343 113.132 6.214 113.283C6.56602 113.836 6.95153 114.389 7.35383 114.909C7.47117 115.06 7.43766 115.261 7.28679 115.378C7.23651 115.445 7.1527 115.462 7.08565 115.462C6.98507 115.462 6.88448 115.412 6.81743 115.328ZM144.791 113.685C144.623 113.601 144.556 113.4 144.64 113.233C144.925 112.646 145.176 112.026 145.377 111.422C145.445 111.255 145.629 111.154 145.797 111.221C145.964 111.288 146.065 111.473 145.998 111.64C145.78 112.277 145.512 112.914 145.227 113.534C145.176 113.652 145.059 113.719 144.942 113.719C144.891 113.719 144.841 113.702 144.791 113.685ZM4.63829 111.875C4.33656 111.271 4.0516 110.651 3.80016 110.014C3.73311 109.847 3.81694 109.645 3.98456 109.578C4.15219 109.511 4.35332 109.595 4.42037 109.763C4.65504 110.383 4.92325 110.986 5.22498 111.573C5.30879 111.741 5.24176 111.942 5.07413 112.026C5.04061 112.059 4.99031 112.059 4.94002 112.059C4.82269 112.059 4.70534 111.992 4.63829 111.875ZM146.165 109.914C145.981 109.88 145.88 109.696 145.914 109.511C146.065 108.841 146.199 108.187 146.283 107.567C146.316 107.382 146.484 107.265 146.668 107.282C146.853 107.315 146.97 107.483 146.953 107.667C146.853 108.321 146.718 108.992 146.568 109.662C146.517 109.83 146.383 109.93 146.232 109.93C146.216 109.93 146.182 109.93 146.165 109.914ZM3.16317 108.07C2.97878 107.416 2.82795 106.762 2.69385 106.092C2.66032 105.907 2.77764 105.74 2.96202 105.706C3.14641 105.673 3.31405 105.79 3.34757 105.974C3.46491 106.628 3.63253 107.265 3.80016 107.902C3.85044 108.086 3.74988 108.271 3.5655 108.321C3.54873 108.321 3.51521 108.321 3.48168 108.321C3.33082 108.321 3.19669 108.221 3.16317 108.07ZM146.819 105.958C146.635 105.941 146.501 105.79 146.501 105.606C146.534 105.203 146.534 104.801 146.534 104.399C146.534 104.13 146.534 103.879 146.517 103.628C146.517 103.443 146.651 103.292 146.836 103.276C147.02 103.276 147.171 103.41 147.188 103.594C147.205 103.862 147.205 104.13 147.205 104.399C147.205 104.801 147.188 105.22 147.171 105.639C147.154 105.823 147.003 105.958 146.836 105.958H146.819ZM2.39211 104.08C2.32506 103.41 2.29154 102.722 2.27478 102.052C2.27478 101.868 2.42564 101.717 2.61003 101.717C2.79442 101.717 2.94529 101.868 2.94529 102.052C2.96205 102.722 2.99557 103.376 3.06262 104.03C3.07938 104.214 2.94527 104.382 2.76088 104.399C2.74412 104.382 2.74413 104.382 2.72736 104.382C2.55974 104.382 2.40887 104.248 2.39211 104.08ZM146.299 101.666C146.182 101.013 146.031 100.376 145.83 99.7722C145.78 99.6046 145.864 99.4034 146.048 99.3531C146.232 99.3028 146.417 99.3866 146.467 99.571C146.668 100.208 146.836 100.879 146.953 101.566C146.987 101.75 146.869 101.918 146.685 101.951C146.668 101.951 146.651 101.951 146.635 101.951C146.467 101.951 146.333 101.834 146.299 101.666ZM2.64355 100.359C2.45916 100.342 2.32504 100.191 2.32504 100.007C2.37532 99.3363 2.44238 98.6491 2.54296 97.9786C2.57648 97.7942 2.74412 97.6768 2.92851 97.6936C3.1129 97.7271 3.24699 97.8948 3.21346 98.0791C3.11289 98.7329 3.04585 99.4034 3.01232 100.057C2.99556 100.225 2.84468 100.359 2.66029 100.359H2.64355ZM145.076 97.9786C144.774 97.4086 144.422 96.8555 144.036 96.3358C143.919 96.185 143.953 95.9838 144.103 95.8665C144.254 95.7491 144.456 95.7827 144.573 95.9335C144.992 96.4867 145.361 97.0734 145.662 97.6768C145.746 97.8445 145.679 98.0456 145.512 98.1294C145.495 98.1462 145.428 98.163 145.377 98.163C145.26 98.163 145.143 98.0959 145.076 97.9786ZM3.16317 96.3861C2.97878 96.3526 2.86144 96.1682 2.91173 95.9838C3.06259 95.3301 3.23023 94.6596 3.43139 94.0058C3.48167 93.8214 3.66606 93.7209 3.85045 93.7879C4.03484 93.8382 4.13543 94.0226 4.06837 94.207C3.88399 94.844 3.71636 95.4977 3.5655 96.1347C3.53197 96.2855 3.39787 96.3861 3.23024 96.3861C3.21348 96.3861 3.17993 96.3861 3.16317 96.3861ZM142.746 94.8607C142.293 94.4249 141.773 93.9891 141.237 93.6035C141.086 93.503 141.053 93.285 141.17 93.1342C141.271 92.9833 141.489 92.9498 141.639 93.0671C142.209 93.4694 142.729 93.922 143.215 94.3914C143.349 94.5255 143.349 94.7266 143.215 94.8607C143.165 94.9278 143.081 94.9613 142.98 94.9613C142.897 94.9613 142.813 94.9278 142.746 94.8607ZM139.578 92.5642C139.024 92.2625 138.421 91.9608 137.801 91.7093C137.633 91.6423 137.549 91.4411 137.616 91.2735C137.683 91.1059 137.885 91.0221 138.052 91.0891C138.689 91.3573 139.309 91.6591 139.896 91.9775C140.064 92.0614 140.114 92.2625 140.03 92.4301C139.98 92.5307 139.863 92.5978 139.745 92.5978C139.695 92.5978 139.628 92.581 139.578 92.5642ZM4.26952 92.514C4.10189 92.4469 4.00132 92.2625 4.06837 92.0781C4.30305 91.4411 4.57125 90.8209 4.85621 90.2007C4.94002 90.0331 5.14117 89.966 5.30879 90.0331C5.47642 90.1169 5.54347 90.318 5.47642 90.4857C5.20822 91.0891 4.94004 91.6926 4.70536 92.3128C4.65508 92.4469 4.52095 92.5307 4.38685 92.5307C4.35332 92.5307 4.30304 92.5307 4.26952 92.514ZM135.94 91.0221C135.32 90.8209 134.683 90.6533 134.029 90.5024C133.845 90.4521 133.744 90.2845 133.778 90.1001C133.811 89.9157 133.996 89.8152 134.18 89.8487C134.851 89.9995 135.521 90.1839 136.141 90.3851C136.326 90.4354 136.409 90.6365 136.359 90.8042C136.309 90.9383 136.175 91.0388 136.041 91.0388C136.007 91.0388 135.974 91.0388 135.94 91.0221ZM132.068 90.1169C131.414 90.0163 130.744 89.9325 130.09 89.8654C129.906 89.8487 129.771 89.6811 129.788 89.4967C129.805 89.3123 129.973 89.1782 130.157 89.1949C130.827 89.262 131.515 89.3458 132.185 89.4464C132.37 89.4799 132.487 89.6475 132.47 89.8319C132.42 89.9995 132.286 90.1169 132.118 90.1169C132.101 90.1169 132.085 90.1169 132.068 90.1169ZM5.89549 88.8429C5.72786 88.7591 5.67756 88.558 5.76138 88.3903C6.09663 87.7869 6.44868 87.2002 6.80069 86.647C6.90127 86.4962 7.10239 86.4459 7.27002 86.5464C7.42088 86.647 7.47118 86.8482 7.37061 87.0158C7.01859 87.569 6.66656 88.1389 6.34807 88.7256C6.29778 88.8262 6.18045 88.8765 6.06311 88.8765C6.01283 88.8765 5.94577 88.8597 5.89549 88.8429ZM8.05789 85.4401C7.90703 85.3228 7.89024 85.1216 7.99082 84.9708C8.40988 84.4344 8.8457 83.8979 9.28153 83.3951C9.39887 83.261 9.61679 83.2442 9.75089 83.3615C9.885 83.4789 9.90175 83.6968 9.78441 83.8309C9.34858 84.317 8.92952 84.8367 8.52721 85.3563C8.46016 85.4736 8.35961 85.5072 8.25904 85.5072C8.19199 85.5072 8.12494 85.4904 8.05789 85.4401ZM10.6896 82.4228C10.5555 82.2887 10.5723 82.0708 10.7064 81.9535C11.2092 81.4841 11.7289 81.0315 12.2486 80.6125C12.3994 80.4951 12.6005 80.5287 12.7179 80.6628C12.8352 80.8136 12.8017 81.0148 12.6676 81.1321C12.1647 81.5344 11.6451 81.9702 11.1757 82.4228C11.1087 82.4899 11.0249 82.5234 10.9411 82.5234C10.8572 82.5234 10.7567 82.4899 10.6896 82.4228ZM89.5411 81.3165C89.3567 81.3165 89.2058 81.1489 89.2226 80.9645C89.2226 80.7801 89.3734 80.6292 89.5746 80.646C90.2451 80.6795 90.9156 80.6628 91.5526 80.6292C91.737 80.6125 91.8879 80.7633 91.9046 80.9477C91.9214 81.1321 91.7705 81.283 91.5861 81.2997C91.1838 81.3333 90.7648 81.3333 90.3625 81.3333C90.0943 81.3333 89.826 81.3333 89.5411 81.3165ZM87.5128 81.1656C86.8926 81.0986 86.2221 80.998 85.5013 80.8807C85.3169 80.8471 85.1996 80.6795 85.2331 80.4951C85.2666 80.3107 85.4342 80.1934 85.6186 80.2269C86.3227 80.3443 86.9764 80.4448 87.5799 80.5119C87.7642 80.5287 87.8984 80.6963 87.8816 80.8807C87.8648 81.0483 87.714 81.1656 87.5463 81.1656C87.5296 81.1656 87.5128 81.1656 87.5128 81.1656ZM93.2121 80.7969C93.1786 80.6125 93.3127 80.4448 93.4971 80.4113C94.1341 80.3107 94.7878 80.1766 95.4415 80.009C95.6259 79.9587 95.8103 80.0761 95.8438 80.2437C95.8941 80.4281 95.7768 80.6125 95.6092 80.646C94.9386 80.8136 94.2682 80.9645 93.6144 81.0651C93.5976 81.0818 93.5809 81.0818 93.5474 81.0818C93.3798 81.0818 93.2457 80.9645 93.2121 80.7969ZM83.5233 80.4951C82.9534 80.3778 82.3499 80.2437 81.5453 80.0761C81.3609 80.0425 81.2436 79.8581 81.2939 79.6738C81.3274 79.4894 81.5118 79.372 81.6962 79.4223C82.5008 79.5899 83.1042 79.724 83.6574 79.8414C83.8418 79.8749 83.9591 80.0593 83.9256 80.2437C83.8753 80.3946 83.7412 80.4951 83.5903 80.4951C83.5736 80.4951 83.5401 80.4951 83.5233 80.4951ZM97.1346 79.8582C97.0675 79.6905 97.1681 79.4894 97.3357 79.4391C97.9392 79.2379 98.5594 79.0033 99.1796 78.7351H99.1964C99.364 78.668 99.5651 78.7518 99.6322 78.9194C99.6992 79.0871 99.6154 79.2882 99.4478 79.3553L99.3305 79.0368L99.4478 79.3553C98.7941 79.6235 98.1571 79.8582 97.5536 80.0761C97.5201 80.0761 97.4866 80.0761 97.453 80.0761C97.3189 80.0761 97.1849 79.9923 97.1346 79.8582ZM13.8242 79.8917C13.7236 79.7408 13.774 79.5229 13.9248 79.4223C14.5115 79.0535 15.115 78.7183 15.7184 78.4166C15.886 78.3327 16.0872 78.3998 16.171 78.5674C16.2548 78.7351 16.1878 78.9362 16.0201 79.02C15.4502 79.305 14.8635 79.6235 14.2936 79.9922C14.2265 80.0258 14.1595 80.0425 14.1092 80.0425C13.9918 80.0425 13.8913 79.9922 13.8242 79.8917ZM79.5841 79.657C78.9471 79.5229 78.2934 79.372 77.6229 79.2379C77.4385 79.2044 77.3211 79.02 77.3714 78.8356C77.405 78.6512 77.5893 78.5339 77.7737 78.5842C78.461 78.735 79.1147 78.8691 79.7349 79.0033C79.9193 79.0368 80.0367 79.2212 79.9864 79.4056C79.9529 79.5397 79.8187 79.657 79.6511 79.657C79.6344 79.657 79.6008 79.657 79.5841 79.657ZM75.6616 78.8189C74.9911 78.6848 74.3374 78.5507 73.7004 78.4333C73.516 78.3998 73.3987 78.2322 73.4322 78.0478C73.4657 77.8634 73.6333 77.7461 73.8177 77.7796C74.4715 77.8969 75.1252 78.031 75.7957 78.1651C75.9801 78.1986 76.0975 78.383 76.0639 78.5674C76.0304 78.7183 75.8795 78.8189 75.7287 78.8189C75.7119 78.8189 75.6784 78.8189 75.6616 78.8189ZM100.856 78.3495C100.772 78.1819 100.839 77.9807 101.007 77.8969C101.61 77.612 102.197 77.2935 102.767 76.975C102.934 76.8912 103.136 76.9415 103.219 77.1091C103.303 77.2767 103.253 77.4779 103.085 77.5617C102.499 77.8969 101.895 78.2154 101.292 78.5004C101.258 78.5339 101.208 78.5339 101.158 78.5339C101.04 78.5339 100.906 78.4669 100.856 78.3495ZM17.3947 78.0645C17.3276 77.8969 17.4282 77.6958 17.5958 77.6455C18.2496 77.4276 18.9201 77.2432 19.5738 77.1091C19.7582 77.0756 19.9258 77.1929 19.9761 77.3773C20.0096 77.5617 19.8923 77.7293 19.7079 77.7796C19.0709 77.9137 18.434 78.0813 17.8137 78.2992C17.7802 78.2825 17.7467 78.2825 17.7132 78.2825C17.579 78.2825 17.445 78.1986 17.3947 78.0645ZM71.7224 78.0981C71.0686 77.9807 70.3982 77.8802 69.7444 77.7796C69.56 77.7461 69.4427 77.5784 69.4594 77.394C69.493 77.2097 69.6606 77.0923 69.845 77.1091C70.5155 77.2097 71.186 77.3102 71.8398 77.4276C72.0241 77.4611 72.1415 77.6287 72.1079 77.8131C72.0744 77.9807 71.9403 78.0981 71.7727 78.0981C71.7559 78.0981 71.7391 78.0981 71.7224 78.0981ZM67.7496 77.4946C67.0959 77.4108 66.4254 77.327 65.7549 77.2432C65.5705 77.2264 65.4364 77.0588 65.4532 76.8744C65.4699 76.69 65.6375 76.5559 65.8219 76.5727C66.4924 76.6565 67.163 76.7403 67.8167 76.8241C68.0011 76.8409 68.1352 77.0253 68.1017 77.1929C68.1017 77.3773 67.9676 77.4946 67.7999 77.4946C67.7832 77.4946 67.7664 77.4946 67.7496 77.4946ZM21.3004 77.1929C21.2836 77.0085 21.4177 76.8409 21.6021 76.8241C22.2726 76.7571 22.9431 76.7068 23.6136 76.6565C23.798 76.6397 23.9656 76.7738 23.9824 76.9582C23.9992 77.1426 23.8651 77.3102 23.6807 77.327C23.0269 77.3773 22.3564 77.4443 21.6859 77.4946C21.6524 77.4946 21.6524 77.4946 21.6356 77.4946C21.468 77.4946 21.3171 77.3605 21.3004 77.1929ZM25.3066 76.8409C25.2899 76.6565 25.424 76.4889 25.6084 76.4721C26.2789 76.4218 26.9494 76.3715 27.6199 76.3212C27.8043 76.3045 27.9719 76.4386 27.9719 76.623C27.9886 76.8073 27.8546 76.975 27.6702 76.975C27.0164 77.0253 26.3459 77.0755 25.6587 77.1258C25.6587 77.1426 25.6587 77.1426 25.6419 77.1426C25.4743 77.1426 25.3234 77.0085 25.3066 76.8409ZM63.7769 77.0253C63.1232 76.9582 62.4527 76.8912 61.7822 76.8409C61.5978 76.8241 61.4637 76.6565 61.4804 76.4721C61.4972 76.2877 61.6648 76.1536 61.8492 76.1704C62.5197 76.2374 63.1902 76.2877 63.8607 76.3548C64.0451 76.3715 64.1792 76.5391 64.1625 76.7235C64.1289 76.8912 63.978 77.0253 63.8104 77.0253C63.7937 77.0253 63.7937 77.0253 63.7769 77.0253ZM29.3297 76.5391C29.3129 76.3548 29.4638 76.1871 29.6481 76.1871C30.3186 76.1368 30.9892 76.1033 31.6597 76.053C31.844 76.0363 32.0117 76.1871 32.0117 76.3715C32.0285 76.5559 31.8776 76.7235 31.6932 76.7235C31.0395 76.7571 30.369 76.8074 29.6817 76.8576H29.6649C29.4973 76.8576 29.3464 76.7235 29.3297 76.5391ZM59.7874 76.6733C59.1336 76.623 58.4464 76.5727 57.7926 76.5391C57.6083 76.5224 57.4741 76.3715 57.4741 76.1871C57.4741 76.0027 57.6418 75.8519 57.8262 75.8686C58.4967 75.9022 59.1672 75.9525 59.8377 76.0027C60.0221 76.0195 60.1562 76.1704 60.1394 76.3548C60.1227 76.5391 59.9718 76.6733 59.8042 76.6733H59.7874ZM33.3359 76.2877C33.3192 76.1033 33.4701 75.9525 33.6544 75.9357C34.3417 75.9022 35.0122 75.8686 35.666 75.8351C35.8503 75.8351 36.0012 75.9692 36.0179 76.1536C36.0347 76.338 35.8839 76.4889 35.6995 76.5056C35.0457 76.5392 34.3752 76.5727 33.688 76.6062C33.688 76.6062 33.6879 76.6062 33.6712 76.6062C33.4868 76.6062 33.3527 76.4721 33.3359 76.2877ZM104.376 76.405C104.275 76.2542 104.309 76.0363 104.477 75.9357C105.03 75.5669 105.583 75.1814 106.103 74.7791C106.253 74.6617 106.455 74.6953 106.572 74.8461C106.689 74.997 106.656 75.1981 106.505 75.3155C105.968 75.7178 105.415 76.1201 104.845 76.4889C104.778 76.5391 104.711 76.5559 104.661 76.5559C104.544 76.5559 104.443 76.5056 104.376 76.405ZM55.7979 76.4218C55.1106 76.3883 54.4401 76.3548 53.7696 76.338C53.5852 76.338 53.4343 76.1704 53.4511 75.986C53.4679 75.8016 53.602 75.6507 53.8031 75.6675C54.4736 75.6843 55.1441 75.7178 55.8146 75.7513C55.999 75.7681 56.1499 75.9189 56.1331 76.1033C56.1164 76.2877 55.9655 76.4218 55.7979 76.4218C55.7811 76.4218 55.7811 76.4218 55.7979 76.4218ZM37.359 76.1033C37.359 75.9189 37.4931 75.7681 37.6775 75.7513C38.3647 75.7178 39.0352 75.701 39.689 75.6842C39.8734 75.6675 40.0242 75.8184 40.041 76.0027C40.041 76.1871 39.9069 76.338 39.7225 76.3548C39.052 76.3715 38.3815 76.3883 37.6942 76.4218C37.6942 76.4218 37.711 76.4218 37.6942 76.4218C37.5098 76.4218 37.359 76.2877 37.359 76.1033ZM41.382 75.9525C41.382 75.7681 41.5161 75.6172 41.7172 75.6172C42.4045 75.6004 43.075 75.5837 43.7288 75.5837C43.9132 75.5837 44.064 75.7345 44.064 75.9189C44.064 76.1033 43.9132 76.2542 43.7288 76.2542C43.075 76.271 42.4045 76.2709 41.7172 76.2877C41.5329 76.2877 41.382 76.1368 41.382 75.9525ZM51.7748 76.2877C51.1043 76.2709 50.4338 76.2542 49.7633 76.2542C49.5789 76.2542 49.4281 76.1033 49.4281 75.9189C49.4281 75.7345 49.5789 75.5837 49.7633 75.5837C50.4506 75.6004 51.1211 75.6004 51.7748 75.6172C51.9592 75.6172 52.1101 75.7681 52.1101 75.9525C52.0933 76.1368 51.9592 76.2877 51.7748 76.2877C51.7748 76.2877 51.7581 76.2877 51.7748 76.2877ZM45.405 75.9022C45.405 75.7178 45.5559 75.5669 45.7403 75.5669C46.4276 75.5669 47.0981 75.5669 47.7518 75.5669C47.9362 75.5669 48.0871 75.7178 48.0871 75.9022C48.0871 76.0865 47.9362 76.2374 47.7518 76.2374C47.0981 76.2374 46.4276 76.2374 45.7403 76.2374C45.5559 76.2374 45.405 76.0865 45.405 75.9022ZM107.594 73.9912C107.477 73.8571 107.477 73.6392 107.628 73.5219C108.131 73.086 108.6 72.6167 109.053 72.1473C109.187 72.0132 109.388 72.0132 109.522 72.1306C109.656 72.2647 109.656 72.4658 109.539 72.5999C109.07 73.086 108.583 73.5554 108.064 74.008C108.014 74.0918 107.93 74.1086 107.846 74.1086C107.745 74.1086 107.661 74.075 107.594 73.9912ZM110.411 71.1416C110.26 71.0242 110.243 70.8063 110.36 70.6722C110.779 70.1526 111.182 69.6329 111.55 69.0798C111.651 68.9289 111.869 68.8954 112.02 68.996C112.171 69.0965 112.204 69.3144 112.104 69.4653C111.718 70.0185 111.316 70.5716 110.88 71.0913C110.83 71.1751 110.729 71.2254 110.628 71.2254C110.561 71.2254 110.478 71.2086 110.411 71.1416ZM112.724 67.8561C112.556 67.7723 112.506 67.5544 112.59 67.4035C112.908 66.8336 113.21 66.2301 113.478 65.6434C113.562 65.4758 113.746 65.392 113.914 65.4758C114.082 65.5596 114.165 65.744 114.082 65.9116C113.813 66.5318 113.495 67.1353 113.16 67.7388C113.126 67.8393 113.009 67.9064 112.891 67.9064C112.841 67.9064 112.774 67.8896 112.724 67.8561ZM114.434 64.2186C114.266 64.1516 114.165 63.9672 114.232 63.7995C114.45 63.1793 114.635 62.5423 114.786 61.9054C114.836 61.721 115.004 61.6204 115.188 61.6539C115.372 61.7042 115.473 61.8718 115.439 62.0562C115.288 62.71 115.087 63.3805 114.869 64.0174C114.802 64.1516 114.685 64.2354 114.534 64.2354C114.501 64.2354 114.467 64.2354 114.434 64.2186ZM115.439 60.3297C115.255 60.2961 115.121 60.1285 115.154 59.9441C115.255 59.2904 115.305 58.6366 115.339 57.9829C115.356 57.7985 115.506 57.6476 115.691 57.6644C115.875 57.6812 116.026 57.832 116.009 58.0164C115.976 58.6869 115.909 59.3742 115.808 60.0447C115.791 60.2123 115.641 60.3297 115.49 60.3297C115.473 60.3297 115.456 60.3297 115.439 60.3297ZM115.339 56.0049C115.305 55.3512 115.238 54.6807 115.154 54.0437C115.121 53.8593 115.255 53.6917 115.439 53.6581C115.624 53.6246 115.791 53.7587 115.825 53.9431C115.925 54.6136 115.993 55.3009 116.026 55.9714C116.009 56.1558 115.875 56.3066 115.674 56.3234C115.49 56.3234 115.356 56.1893 115.339 56.0049ZM114.769 52.0992C114.618 51.4622 114.434 50.8252 114.216 50.205C114.149 50.0374 114.249 49.8363 114.417 49.786C114.584 49.7189 114.786 49.8195 114.836 49.9871C115.054 50.6241 115.255 51.2946 115.406 51.9483C115.456 52.1327 115.339 52.3171 115.154 52.3506C115.154 52.3506 115.121 52.3506 115.087 52.3506C114.937 52.3506 114.802 52.2501 114.769 52.0992ZM113.478 48.3444C113.21 47.7409 112.908 47.1542 112.573 46.5843C112.489 46.4167 112.539 46.2155 112.707 46.1317C112.875 46.0479 113.076 46.0982 113.16 46.2658C113.495 46.8525 113.813 47.4727 114.082 48.0929C114.165 48.2606 114.082 48.4617 113.914 48.5288C113.88 48.5455 113.83 48.5455 113.78 48.5455C113.646 48.5455 113.528 48.4785 113.478 48.3444ZM111.534 44.908C111.165 44.3716 110.763 43.8352 110.344 43.3323C110.226 43.1815 110.243 42.9803 110.394 42.863C110.545 42.7457 110.746 42.7624 110.863 42.9133C111.299 43.4329 111.701 43.9861 112.087 44.5393C112.187 44.6901 112.154 44.908 112.003 45.0086C111.936 45.0254 111.869 45.0589 111.802 45.0589C111.701 45.0589 111.584 45.0086 111.534 44.908ZM109.019 41.8405C108.567 41.3711 108.081 40.9185 107.578 40.4827C107.444 40.3654 107.427 40.1474 107.544 40.0133C107.662 39.8792 107.879 39.8625 108.013 39.9798C108.533 40.4324 109.019 40.9018 109.489 41.3879C109.623 41.522 109.623 41.7399 109.489 41.8572C109.422 41.9243 109.338 41.941 109.254 41.941C109.17 41.941 109.086 41.9075 109.019 41.8405ZM106.036 39.2255C105.516 38.84 104.963 38.4544 104.41 38.0856C104.259 37.9851 104.208 37.7839 104.309 37.6163C104.41 37.4654 104.611 37.4151 104.778 37.5157C105.348 37.8845 105.918 38.27 106.455 38.6723C106.605 38.7897 106.639 38.9908 106.522 39.1417C106.438 39.259 106.337 39.2925 106.237 39.2925C106.17 39.2925 106.103 39.2758 106.036 39.2255ZM102.683 37.0966C102.113 36.7782 101.51 36.4764 100.906 36.1915C100.739 36.1076 100.672 35.9065 100.755 35.7389C100.839 35.5712 101.04 35.5042 101.208 35.588C101.828 35.873 102.432 36.1915 103.018 36.5099C103.186 36.5938 103.236 36.8117 103.152 36.9625C103.085 37.0631 102.968 37.1302 102.851 37.1302C102.8 37.1302 102.733 37.1134 102.683 37.0966ZM99.0958 35.3701C98.4923 35.1187 97.8554 34.884 97.2352 34.6661C97.0675 34.599 96.9669 34.4146 97.034 34.247C97.101 34.0794 97.2854 33.9788 97.453 34.0458C98.09 34.2638 98.7438 34.5152 99.3472 34.7666C99.5149 34.8337 99.5987 35.0348 99.5316 35.2025C99.4813 35.3198 99.364 35.3869 99.2299 35.3869C99.1796 35.3869 99.1461 35.3869 99.0958 35.3701ZM95.3242 34.0626C94.704 33.8782 94.0502 33.7106 93.3965 33.543C93.2121 33.4927 93.1115 33.3251 93.1451 33.1407C93.1953 32.9563 93.363 32.8557 93.5474 32.8892C94.2179 33.0568 94.8716 33.2245 95.5086 33.4089C95.693 33.4591 95.7935 33.6435 95.7433 33.8279C95.7097 33.9788 95.5756 34.0794 95.4248 34.0794C95.3913 34.0794 95.3577 34.0794 95.3242 34.0626ZM91.452 33.1071C90.8151 32.973 90.1445 32.8557 89.4908 32.7384C89.3064 32.7048 89.1891 32.5372 89.2226 32.3528C89.2561 32.1684 89.4238 32.0511 89.6082 32.0846C90.2787 32.2019 90.9492 32.3193 91.6029 32.4534C91.7873 32.4869 91.9046 32.6713 91.8711 32.8557C91.8208 33.0066 91.6699 33.1071 91.5191 33.1071C91.5023 33.1071 91.4688 33.1071 91.452 33.1071ZM87.496 32.4534C86.8591 32.3696 86.1886 32.2858 85.5013 32.2187C85.3169 32.202 85.1828 32.0343 85.1996 31.8499C85.2163 31.6655 85.3839 31.5314 85.5683 31.5482C86.2556 31.6153 86.9261 31.6991 87.5799 31.7829C87.7642 31.7996 87.8983 31.984 87.8648 32.1517C87.8648 32.3361 87.714 32.4534 87.5463 32.4534C87.5296 32.4534 87.5128 32.4534 87.496 32.4534ZM53.0488 31.7326C53.0488 31.5482 53.1997 31.3973 53.3841 31.3973C54.0546 31.3973 54.7251 31.3973 55.3956 31.3806C55.58 31.3806 55.7308 31.5314 55.7308 31.7158C55.7308 31.9002 55.58 32.0511 55.3956 32.0511C54.7251 32.0679 54.0546 32.0678 53.3841 32.0678C53.1997 32.0678 53.0488 31.917 53.0488 31.7326ZM49.361 32.0176C49.1766 32.0176 49.0258 31.8667 49.0258 31.6823C49.0258 31.4979 49.1766 31.3471 49.361 31.3471C50.0148 31.3638 50.6853 31.3638 51.3725 31.3806C51.5569 31.3806 51.7078 31.5314 51.7078 31.7158C51.7078 31.917 51.5569 32.0511 51.3725 32.0511C50.6853 32.0511 49.998 32.0343 49.361 32.0176ZM83.5233 32.0343C82.8696 31.984 82.199 31.9337 81.5285 31.9002C81.3441 31.8835 81.2101 31.7326 81.2101 31.5482C81.2268 31.3638 81.3777 31.2297 81.5621 31.2297C82.2494 31.2632 82.9199 31.3135 83.5736 31.3638C83.758 31.3806 83.8921 31.5314 83.8753 31.7326C83.8753 31.9002 83.7244 32.0343 83.5568 32.0343C83.5401 32.0343 83.5401 32.0343 83.5233 32.0343ZM57.0718 31.6991C57.0718 31.5147 57.2227 31.3638 57.4071 31.3638C58.0776 31.3471 58.7481 31.3471 59.4186 31.3303C59.603 31.3303 59.7539 31.4812 59.7539 31.6655C59.7539 31.8499 59.603 32.0008 59.4186 32.0008C58.7481 32.0008 58.0776 32.0176 57.4071 32.0343C57.2227 32.0343 57.0718 31.8835 57.0718 31.6991ZM45.3212 31.8835C45.1368 31.8667 44.986 31.7158 45.0027 31.5314C45.0195 31.3471 45.1704 31.213 45.3548 31.213C46.0085 31.2465 46.679 31.28 47.3663 31.2968C47.5507 31.2968 47.7015 31.4644 47.6848 31.6488C47.6848 31.8164 47.5339 31.9673 47.3495 31.9673C46.6622 31.9505 45.975 31.917 45.3212 31.8835ZM61.0949 31.6153C61.0949 31.4309 61.229 31.28 61.4301 31.28C62.1006 31.2632 62.7711 31.2465 63.4417 31.2297C63.626 31.2297 63.7769 31.3638 63.7769 31.5482C63.7769 31.7326 63.6428 31.8835 63.4584 31.9002C62.7712 31.917 62.1006 31.9338 61.4301 31.9505C61.2457 31.9505 61.0949 31.7996 61.0949 31.6153ZM65.1179 31.5147C65.1179 31.3303 65.252 31.1794 65.4364 31.1794C66.1069 31.1627 66.7774 31.1459 67.4479 31.1291C67.6323 31.1291 67.7832 31.28 67.7832 31.4644C67.7832 31.6488 67.6491 31.7997 67.4479 31.7997C66.7942 31.8164 66.1237 31.8332 65.4532 31.8499C65.2688 31.8499 65.1179 31.6991 65.1179 31.5147ZM77.5223 31.7326C77.3379 31.7326 77.187 31.5817 77.187 31.3973C77.187 31.213 77.3379 31.0621 77.5223 31.0621C78.2095 31.0789 78.8968 31.0956 79.5338 31.1291C79.7182 31.1291 79.869 31.2968 79.8523 31.4812C79.869 31.6655 79.7182 31.7997 79.5338 31.7997C78.88 31.7829 78.2095 31.7494 77.5223 31.7326ZM69.141 31.4141C69.141 31.2297 69.2918 31.0789 69.4762 31.0789C70.1467 31.0621 70.8172 31.0621 71.4877 31.0453C71.6721 31.0453 71.823 31.1962 71.823 31.3806C71.823 31.565 71.6721 31.7158 71.4877 31.7158C70.8172 31.7326 70.1467 31.7494 69.4762 31.7494C69.2918 31.7494 69.141 31.5985 69.141 31.4141ZM43.3097 31.7494C42.6224 31.6991 41.9519 31.6488 41.2982 31.5817C41.1138 31.565 40.9797 31.3973 40.9965 31.213C41.0133 31.0286 41.1809 30.8945 41.3653 30.9112C42.019 30.9783 42.6895 31.0286 43.36 31.0789C43.5444 31.0956 43.6785 31.2465 43.6785 31.4309C43.6617 31.6153 43.5109 31.7494 43.3265 31.7494H43.3097ZM73.9518 31.7158C73.801 31.7158 73.6501 31.7158 73.4992 31.7158C73.3148 31.7158 73.164 31.565 73.164 31.3806C73.164 31.1962 73.3148 31.0453 73.4992 31.0453C73.6669 31.0453 73.8513 31.0453 74.0189 31.0453C74.5218 31.0453 75.0246 31.0453 75.5108 31.0453C75.6951 31.0453 75.846 31.1962 75.846 31.3806C75.846 31.565 75.6951 31.7158 75.5108 31.7158C74.9911 31.7158 74.4715 31.7158 73.9518 31.7158ZM39.2867 31.3806C38.6162 31.2968 37.9289 31.213 37.2751 31.1291C37.0908 31.0956 36.9567 30.928 36.9902 30.7436C37.0237 30.5592 37.1913 30.4251 37.3757 30.4586C38.0295 30.5424 38.6832 30.6263 39.3705 30.7101C39.5549 30.7268 39.689 30.8945 39.6722 31.0789C39.6387 31.2632 39.4878 31.3806 39.3202 31.3806C39.3035 31.3806 39.2867 31.3806 39.2867 31.3806ZM35.2972 30.8274C34.6267 30.7101 33.9562 30.576 33.3024 30.4419C33.118 30.4083 33.0007 30.224 33.051 30.0396C33.0845 29.8552 33.2689 29.7378 33.4533 29.7881C34.0903 29.9222 34.744 30.0563 35.4145 30.1737C35.5989 30.2072 35.7162 30.3748 35.6827 30.5592C35.6492 30.7101 35.4983 30.8274 35.3474 30.8274C35.3307 30.8274 35.3139 30.8274 35.2972 30.8274ZM31.3412 29.9558C30.6874 29.7714 30.0337 29.587 29.3967 29.3858C29.2291 29.3355 29.1285 29.1344 29.1788 28.9668C29.2291 28.7991 29.4303 28.6986 29.5979 28.7488C30.2181 28.95 30.8551 29.1344 31.5088 29.3188C31.6932 29.3691 31.7938 29.5535 31.7435 29.7378C31.71 29.8719 31.5591 29.9725 31.425 29.9725C31.3915 29.9725 31.3747 29.9725 31.3412 29.9558ZM27.4858 28.6986C26.8488 28.4471 26.2286 28.1789 25.6251 27.894C25.4575 27.8101 25.3904 27.609 25.4575 27.4414C25.5413 27.2737 25.7425 27.2067 25.9101 27.2737C26.4968 27.5419 27.117 27.8101 27.7372 28.0616C27.9048 28.1286 27.9887 28.3298 27.9216 28.4974C27.8546 28.6315 27.7372 28.7153 27.6031 28.7153C27.5696 28.7153 27.5193 28.7153 27.4858 28.6986ZM23.798 26.9888C23.1945 26.6535 22.6079 26.3015 22.0547 25.9495C21.9038 25.8489 21.8535 25.6478 21.9541 25.4801C22.0547 25.3293 22.2558 25.279 22.4235 25.3796C22.9766 25.7316 23.5466 26.0836 24.1333 26.4021C24.3009 26.4859 24.3512 26.687 24.2674 26.8547C24.2003 26.9552 24.083 27.0223 23.9656 27.0223C23.9153 27.0223 23.8483 27.0055 23.798 26.9888ZM20.3952 24.7761C19.8588 24.357 19.3224 23.9212 18.8195 23.4686C18.6854 23.3513 18.6686 23.1334 18.8027 22.9993C18.9201 22.8652 19.138 22.8484 19.2721 22.9825C19.7582 23.4183 20.2779 23.8374 20.7975 24.2397C20.9484 24.357 20.9651 24.5582 20.8645 24.709C20.7975 24.7929 20.6969 24.8432 20.5963 24.8432C20.5293 24.8432 20.4622 24.8264 20.3952 24.7761ZM17.3612 22.0438C16.8918 21.5409 16.456 21.038 16.0369 20.5016C15.9195 20.3508 15.9531 20.1496 16.0872 20.0323C16.238 19.9149 16.4392 19.9485 16.5565 20.0826C16.9588 20.6022 17.3947 21.1051 17.8473 21.5744C17.9814 21.7085 17.9646 21.9265 17.8305 22.0438C17.7802 22.1108 17.6964 22.1444 17.6126 22.1444C17.5288 22.1444 17.4282 22.1108 17.3612 22.0438ZM14.8468 18.8421C14.478 18.2722 14.1259 17.6855 13.8074 17.082C13.7236 16.9144 13.7739 16.7133 13.9416 16.6295C14.1092 16.5456 14.3103 16.5959 14.3941 16.7636C14.7126 17.3502 15.0479 17.9202 15.4167 18.4733C15.5173 18.6242 15.4837 18.8421 15.3161 18.9427C15.249 18.9762 15.182 18.993 15.1317 18.993C15.0144 18.993 14.9138 18.9427 14.8468 18.8421ZM12.9191 15.2549C12.6509 14.6347 12.3994 13.981 12.1983 13.344C12.148 13.1764 12.2318 12.9752 12.4162 12.9249C12.6006 12.8746 12.785 12.9584 12.8352 13.1428C13.0364 13.763 13.2711 14.3833 13.5393 15.0035C13.6063 15.1711 13.5393 15.3723 13.3716 15.4393C13.3046 15.4561 13.2543 15.4561 13.2208 15.4561C13.0867 15.4561 12.9693 15.3723 12.9191 15.2549ZM11.6451 11.366C11.3601 10.1255 11.3266 9.35447 11.3098 9.32094C11.2931 9.13655 11.4439 8.98569 11.6283 8.96893C11.8127 8.95216 11.9636 9.10303 11.9803 9.28742C11.9803 9.28742 12.0306 10.0417 12.2988 11.2319C12.3323 11.4163 12.2318 11.5839 12.0474 11.6342C12.0138 11.6342 11.9971 11.6342 11.9636 11.6342C11.8127 11.6342 11.6786 11.5336 11.6451 11.366Z" fill="#F9C287"/>
<path fill-rule="evenodd" clip-rule="evenodd" d="M146.081 141.561V142.064H4.26941V141.561H146.081Z" fill="#1F1F39"/>
<path d="M70.3142 30.9275C78.8631 32.6038 81.7128 45.8463 85.4006 49.8693C89.0884 53.8924 97.9726 55.5686 102.163 63.4471C106.354 71.3255 104.51 81.3831 111.886 87.9205C119.261 94.458 129.654 100.476 134.348 112.562C141.053 129.827 134.683 140.723 126.804 141.896C123.318 142.416 92.3571 141.745 70.0963 141.209C56.1665 140.874 30.922 142.231 16.1709 141.561C2.107 140.924 3.48153 121.496 7.11903 115.914C14.327 104.851 16.5564 101.834 17.1766 92.6141C17.8471 82.7241 22.0378 76.3543 28.7428 71.4931C35.4479 66.632 38.8842 63.5812 38.4652 55.7362C37.7947 42.9966 42.6558 34.7829 50.7019 33.1067C55.8983 32.0339 59.2509 34.2801 59.2509 34.2801C59.2509 34.2801 62.6872 29.4357 70.3142 30.9275Z" fill="#1F1F39"/>
<path d="M79.1985 50.0369C81.8805 50.7074 82.2493 54.412 81.0424 56.5743C79.3661 59.5916 75.1755 59.9269 75.1755 59.9269L74.6726 52.7189C74.6726 52.7189 76.5165 49.3664 79.1985 50.0369Z" fill="#F9ACC0"/>
<path fill-rule="evenodd" clip-rule="evenodd" d="M115.624 35.4035C113.964 34.1798 111.617 34.5486 110.394 36.2081L103.957 44.9917C102.733 46.6513 103.102 48.998 104.761 50.2217L109.287 53.5407L105.415 58.8209C105.113 59.24 105.197 59.8267 105.616 60.1284L105.851 60.296C106.052 60.514 106.354 60.6648 106.689 60.6145L117.199 59.3238L124.407 64.604C126.067 65.8277 128.413 65.4589 129.637 63.7994L136.074 55.0158C137.298 53.3563 136.929 51.0095 135.253 49.7859L115.624 35.4035ZM122.396 52.5685L121.172 54.8147C120.753 55.5857 120.183 55.569 119.848 54.7979L118.926 52.4847L116.495 52.1159C115.674 51.9818 115.506 51.4286 116.143 50.8419L118.004 49.0818L117.736 46.601C117.635 45.7628 118.155 45.4108 118.875 45.7964L120.971 47.0033L123.167 45.9137C123.921 45.4946 124.39 45.8466 124.223 46.7351L123.686 49.1824L125.379 50.909C125.933 51.5124 125.715 52.1159 124.877 52.2164L122.396 52.5685Z" fill="#FCFCFC"/>
<path d="M33.1011 120.608L17.847 111.221C17.847 111.221 29.7485 93.4524 42.991 86.0768C56.2335 78.7013 69.8112 78.0308 80.3717 79.8747C90.9322 81.7185 101.66 87.5855 108.198 95.7992C114.735 104.013 122.949 118.261 122.949 118.261L101.996 121.278L105.851 141.561H28.7428L33.1011 120.608Z" fill="#3D5CFF"/>
<path d="M33.7716 120.44L18.5176 111.053C18.5176 111.053 30.4191 93.2847 43.6615 85.9091C56.904 78.5335 70.4818 77.863 81.0422 79.7069C91.6027 81.5508 102.331 87.4177 108.868 95.6314C115.406 103.845 123.619 118.093 123.619 118.093L102.163 121.111L110.88 141.896L29.4133 141.393L33.7716 120.44Z" fill="#3D5CFF"/>
<path d="M75.9966 59.3405C75.8625 59.3238 75.7619 59.1897 75.7954 59.0556C75.8122 58.9717 76.1307 56.9938 76.9688 55.1331C77.8237 53.2557 78.8295 52.4008 78.8798 52.3673C78.9804 52.2834 79.148 52.3002 79.2318 52.4008C79.3156 52.5014 79.2988 52.669 79.1983 52.7528C79.1815 52.7528 78.226 53.5909 77.4214 55.351C76.6 57.1446 76.2816 59.1226 76.2816 59.1394C76.2648 59.2567 76.1475 59.3405 76.0301 59.3405C76.0134 59.3405 75.9966 59.3405 75.9966 59.3405Z" fill="#1F1F39"/>
<path d="M44.1812 54.9986C41.9685 56.6581 43.0581 60.2118 45.0025 61.7372C47.7181 63.8661 51.7076 62.5586 51.7076 62.5586L49.3944 55.7194C49.3944 55.7194 46.3939 53.3391 44.1812 54.9986Z" fill="#F9ACC0"/>
<path d="M52.2106 65.962C54.8926 70.6555 59.2509 70.9908 59.2509 70.9908C59.2509 70.9908 59.5861 74.1757 59.4185 77.5282C59.2509 80.8807 59.2509 82.3894 59.2509 82.3894C59.2509 82.3894 62.4022 84.887 67.6322 83.898C73.8344 82.7246 74.3373 80.0426 74.3373 80.0426C74.3373 80.0426 73.1639 76.6901 71.9905 73.0023C70.9009 69.5827 70.9847 68.9792 70.9847 68.9792C70.9847 68.9792 76.1811 65.962 76.3488 59.5922C76.5164 53.2224 75.1754 49.1993 75.1754 49.1993C75.1754 49.1993 69.6437 49.5346 66.2912 47.8583C63.123 46.2826 60.089 42.9971 60.089 42.9971C60.089 42.9971 57.0047 42.8966 52.7134 47.1878C48.858 51.0432 48.858 55.7368 48.858 55.7368C48.858 55.7368 49.5285 61.2684 52.2106 65.962Z" fill="#F9D2DD"/>
<path d="M94.1171 97.1569C93.5472 96.8049 92.994 96.4361 92.4408 96.0841C85.3167 91.6253 80.1035 91.4912 73.4991 91.3235C70.6494 91.2565 67.4142 91.1727 63.6761 90.7201C56.1497 89.8317 53.3336 85.6578 52.2943 82.322L52.9313 82.1208C53.9203 85.2722 56.5855 89.1947 63.7599 90.0496C67.4813 90.4854 70.6997 90.5692 73.5326 90.6363C80.2376 90.8039 85.5346 90.938 92.8096 95.4974C93.3628 95.8495 93.9327 96.2015 94.5027 96.5702C99.9002 100.023 105.465 103.594 113.679 101.951L113.813 102.605C112.321 102.923 110.93 103.057 109.606 103.057C103.337 103.057 98.6598 100.074 94.1171 97.1569Z" fill="#EAEAFF"/>
<path d="M32.8664 121.546L31.626 127.967L38.968 131.168L41.583 141.46L60.9941 141.595L50.3666 119.267L32.8664 121.546Z" fill="#224BF4"/>
<path fill-rule="evenodd" clip-rule="evenodd" d="M72.3315 60.9601C70.5658 61.3361 68.9469 60.7601 68.7155 59.6736C68.4841 58.587 69.7279 57.4013 71.4935 57.0253C73.2592 56.6493 74.8781 57.2253 75.1095 58.3119C75.3409 59.3984 74.0972 60.5841 72.3315 60.9601Z" fill="#F9ACC0"/>
<path fill-rule="evenodd" clip-rule="evenodd" d="M55.4322 64.5492C53.6665 64.9253 52.0476 64.3493 51.8162 63.2627C51.5848 62.1761 52.8286 60.9905 54.5942 60.6144C56.3599 60.2384 57.9788 60.8144 58.2102 61.901C58.4416 62.9875 57.1979 64.1732 55.4322 64.5492Z" fill="#F9ACC0"/>
<path d="M50.2158 56.0049C51.7076 56.072 52.0429 57.413 52.5457 58.9216C53.0486 60.4303 53.5515 63.6152 55.3954 65.6267C57.2393 67.6382 58.245 69.8173 57.5745 72.3317C56.904 74.8461 53.3839 77.3605 53.3839 77.3605C53.3839 77.3605 38.9848 112.177 34.2745 122.117C29.5642 132.057 26.396 138.712 17.8471 141.226C13.0027 142.651 0.581543 140.388 0.581543 126.643C0.581543 115.529 19.8586 95.7994 19.8586 95.7994L42.1529 68.3087C42.1529 68.3087 40.6443 63.4475 41.3148 60.7655C41.9853 58.0835 42.991 57.7482 43.6615 57.5806C44.332 57.413 44.6673 57.5806 44.6673 57.5806C44.6673 57.5806 45.1702 56.4072 46.5112 56.4072C47.8522 56.4072 48.1875 57.5806 48.1875 57.5806C48.1875 57.5806 48.7071 55.9379 50.2158 56.0049Z" fill="#F9D2DD"/>
<path d="M53.1826 77.5111C53.0988 77.3938 53.1323 77.2429 53.2329 77.1591C53.2664 77.1423 56.686 74.6615 57.323 72.2644C57.9097 70.0685 57.2392 68.0067 55.1941 65.794C53.7022 64.168 53.082 61.8548 52.6294 60.1618C52.5121 59.7092 52.3947 59.3236 52.2942 59.0051L52.1936 58.7034C51.6907 57.178 51.3554 56.3064 50.1821 56.2561C50.048 56.2561 49.9306 56.1387 49.9474 55.9879C49.9474 55.8538 50.0648 55.7364 50.2156 55.7532C51.7913 55.8202 52.2271 57.1445 52.6797 58.5525L52.7803 58.8543C52.8976 59.1895 52.9982 59.5751 53.1155 60.0444C53.5514 61.6872 54.1716 63.9334 55.5797 65.4755C57.7085 67.8055 58.446 70.0685 57.8091 72.4153C57.1218 74.9799 53.6687 77.4776 53.5179 77.5781C53.4843 77.5949 53.434 77.6117 53.3837 77.6117C53.2999 77.6117 53.2329 77.5782 53.1826 77.5111Z" fill="#1F1F39"/>
<path d="M66.4923 49.9365C66.8443 49.7521 67.2466 49.6348 67.6489 49.6348C68.0512 49.618 68.4702 49.6851 68.839 49.8695C69.2078 50.0539 69.5263 50.3388 69.6436 50.7244C69.3419 50.4729 69.0234 50.3388 68.6882 50.2383C68.3529 50.1544 68.0177 50.1209 67.6656 50.1377C67.3136 50.1544 66.9784 50.2047 66.6431 50.3053C66.3079 50.3891 65.9726 50.54 65.6206 50.7076C65.8218 50.3724 66.1402 50.1209 66.4923 49.9365Z" fill="#1F1F39"/>
<path d="M53.8198 52.9376C54.1047 52.6694 54.4567 52.4682 54.8423 52.3676C54.9429 52.3341 55.0434 52.3341 55.1272 52.3173C55.2278 52.3006 55.3117 52.3006 55.4122 52.2838C55.5966 52.267 55.781 52.267 55.9654 52.2838C56.3341 52.3173 56.7197 52.3509 57.0549 52.552C56.6862 52.5688 56.3342 52.6358 55.9821 52.6861L55.4625 52.7699C55.2781 52.8035 55.1272 52.8202 54.9596 52.8705C54.6411 52.9543 54.3394 53.0884 54.0544 53.256C53.7695 53.4237 53.5013 53.6416 53.2163 53.893C53.3169 53.5242 53.5516 53.2058 53.8198 52.9376Z" fill="#1F1F39"/>
<path d="M61.9327 56.9604C61.8657 57.413 61.8154 57.8656 61.7819 58.3014C61.7651 58.5193 61.7819 58.7372 61.8154 58.9049C61.8321 58.9551 61.8321 58.9887 61.8489 59.0222C61.8489 59.039 61.8657 59.0557 61.8657 59.0557C61.8824 59.0557 61.8657 59.0725 61.8992 59.0892C61.9662 59.1395 62.05 59.2066 62.1339 59.2401C62.3182 59.3072 62.5194 59.3574 62.7373 59.3407C62.9552 59.3407 63.1899 59.3072 63.4246 59.2569C63.2402 59.4077 63.0223 59.5083 62.7876 59.5754C62.5529 59.6424 62.2847 59.6759 62.0165 59.6089C61.8824 59.5754 61.7483 59.5251 61.631 59.4413C61.5975 59.4245 61.564 59.391 61.5304 59.3575C61.4969 59.3239 61.4801 59.2904 61.4466 59.2569C61.3963 59.1898 61.3795 59.1228 61.346 59.0557C61.2622 58.7875 61.2622 58.5361 61.2622 58.2846C61.2957 57.7985 61.3963 57.3292 61.5304 56.8766C61.6981 56.424 61.8657 55.9882 62.1003 55.5691C62.0668 56.0384 61.9998 56.5078 61.9327 56.9604Z" fill="#1F1F39"/>
<path d="M62.9385 61.7713C63.9443 61.7713 64.95 60.7655 64.95 60.7655C64.95 60.7655 65.4529 62.2741 64.1119 63.1123C62.7709 63.9504 61.0946 62.9446 61.0946 61.2684C61.0946 61.2684 61.9327 61.7713 62.9385 61.7713Z" fill="#F95368"/>
<path fill-rule="evenodd" clip-rule="evenodd" d="M56.5557 58.5484C55.8652 58.621 55.2372 58.0304 55.153 57.2294C55.0688 56.4284 55.5604 55.7202 56.2509 55.6477C56.9415 55.5751 57.5695 56.1656 57.6536 56.9667C57.7378 57.7677 57.2463 58.4758 56.5557 58.5484Z" fill="#1F1F39"/>
<path d="M59.2677 71.1915C59.3348 71.929 59.5527 74.5943 59.603 77.1422C60.7428 76.7064 62.2682 76.0023 63.4416 75.0133C65.6207 73.1694 66.9617 70.4874 66.9617 70.4874C66.9617 70.4874 65.7884 71.1579 61.9329 71.3256C60.5249 71.3926 59.7203 71.292 59.2677 71.1915Z" fill="#F9ACC0"/>
<path fill-rule="evenodd" clip-rule="evenodd" d="M67.8375 56.9218C67.1469 56.9944 66.5189 56.4038 66.4347 55.6028C66.3506 54.8018 66.8421 54.0936 67.5327 54.0211C68.2232 53.9485 68.8512 54.5391 68.9354 55.3401C69.0195 56.1411 68.528 56.8493 67.8375 56.9218Z" fill="#1F1F39"/>
<path d="M58.3959 71.3593C58.2618 71.3258 58.178 71.1917 58.2115 71.0576C58.245 70.9235 58.3791 70.8397 58.5132 70.8732C58.5468 70.8732 61.2791 71.4934 63.3744 71.2587C65.453 71.0241 66.5258 70.5044 66.5425 70.5044C66.6599 70.4374 66.8107 70.4877 66.8778 70.6218C66.9448 70.7391 66.8945 70.89 66.7604 70.957C66.7102 70.9738 65.6206 71.5269 63.4247 71.7616C63.0559 71.7951 62.6871 71.8119 62.3183 71.8119C60.4242 71.8119 58.4964 71.3761 58.3959 71.3593Z" fill="#1F1F39"/>
<path d="M27.4019 123.793L32.5983 125.805C32.9335 125.101 33.9225 122.854 34.2745 122.117C34.7104 121.212 35.2132 120.089 35.7832 118.815L36.2861 88.9268L27.4019 123.793Z" fill="#F9ACC0"/>
<path d="M109.539 140.22L97.1345 111.053L101.174 141.83L109.539 140.22Z" fill="#224BF4"/>
<path d="M49.9642 67.7388C49.9475 67.7053 48.6064 64.7048 48.1874 61.8216C47.7683 58.9552 47.9192 57.5974 47.9359 57.5471C47.9527 57.413 48.0868 57.3125 48.2209 57.3292C48.355 57.346 48.4556 57.4801 48.4388 57.6142C48.4388 57.631 48.2879 58.972 48.6902 61.7546C49.0925 64.5539 50.4168 67.5041 50.4335 67.5377C50.4838 67.6718 50.4336 67.8059 50.2995 67.8729C50.2659 67.8897 50.2324 67.8897 50.1989 67.8897C50.0983 67.8897 50.0145 67.8394 49.9642 67.7388Z" fill="#1F1F39"/>
<path d="M45.606 68.1073C45.5893 68.0737 44.4494 64.9894 44.2147 62.0895C43.98 59.1895 44.2315 57.8653 44.2482 57.7982C44.2818 57.6641 44.3991 57.5803 44.55 57.5971C44.6841 57.6306 44.7679 57.748 44.7511 57.8988C44.7511 57.9156 44.4996 59.2398 44.7343 62.056C44.969 64.8721 46.0754 67.9061 46.0921 67.9396C46.1424 68.0737 46.0754 68.2079 45.9413 68.2581C45.9077 68.2749 45.8742 68.2749 45.8407 68.2749C45.7401 68.2749 45.6395 68.2078 45.606 68.1073Z" fill="#1F1F39"/>
<path d="M101.258 121.379L96.8996 111.154C96.8493 111.02 96.8996 110.886 97.0337 110.819C97.1678 110.768 97.3019 110.819 97.3689 110.953L101.727 121.178C101.778 121.312 101.727 121.446 101.593 121.513C101.56 121.53 101.526 121.53 101.493 121.53C101.392 121.53 101.308 121.48 101.258 121.379Z" fill="#1F1F39"/>
<path fill-rule="evenodd" clip-rule="evenodd" d="M48.5059 2.56566C47.7181 0.654719 45.5222 -0.250464 43.6112 0.554143L21.1493 9.9077C19.2383 10.6955 18.3332 12.8915 19.1378 14.8024L23.3284 24.86C24.1163 26.7709 26.3122 27.6761 28.2231 26.8715L33.4028 24.7091L35.9172 30.7604C36.1183 31.2465 36.6715 31.4645 37.1409 31.2633L37.409 31.146C37.7108 31.0789 37.979 30.9113 38.1131 30.5928L42.4378 20.9375L50.6851 17.5012C52.5792 16.7301 53.4844 14.5342 52.6966 12.6232L48.5059 2.56566ZM35.4478 17.0989L35.2299 16.596C34.9952 16.0596 34.9282 15.4729 35.0455 14.903C35.1629 14.3498 35.431 13.8469 35.8501 13.4446C36.5039 12.8076 36.7385 11.936 36.4368 11.2152C36.001 10.1927 34.66 9.79036 33.4363 10.31C32.2126 10.8296 31.5756 12.0868 31.9947 13.1094L32.0618 13.277C32.1121 13.3776 32.0618 13.4949 31.9612 13.5452L30.8549 14.0145C30.7543 14.0648 30.6369 14.0145 30.5867 13.914L30.5196 13.7463C30.1341 12.8412 30.1676 11.8186 30.6202 10.8799C31.056 9.97475 31.8271 9.25396 32.7993 8.85165C33.7716 8.43259 34.8276 8.3823 35.7831 8.70079C36.7721 9.01928 37.5264 9.70655 37.9119 10.6117C38.4819 11.9527 38.1131 13.5284 36.9732 14.6348C36.6212 14.9868 36.5039 15.5232 36.705 15.9758L36.9229 16.4954C36.9732 16.596 36.9229 16.7133 36.8224 16.7636L35.716 17.1995C35.6155 17.2497 35.4981 17.1994 35.4478 17.0989ZM36.353 19.7641C36.1351 19.2613 36.3698 18.6578 36.8894 18.4399C37.3923 18.222 37.9957 18.4566 38.2137 18.9763C38.4316 19.4959 38.1801 20.0826 37.6773 20.3005C37.1744 20.5185 36.5709 20.2838 36.353 19.7641Z" fill="#FCFCFC"/>
<path d="M41.415 85.9093L62.7203 95.0617L88.2498 86.5128L91.0994 91.0051L61.2284 100.023L38.4144 89.9659L41.415 85.9093Z" fill="#FCFCFC"/>
<path d="M61.899 96.6376L92.5579 89.9325V129.073L61.899 133.281V96.6376Z" fill="#EAE9FF"/>
<path d="M62.7204 96.5703V133.348L35.5482 126.592L36.3025 88.9098L62.7204 96.5703Z" fill="#F4F3FD"/>
<path d="M70.1635 102.906C70.1299 102.789 70.2137 102.672 70.3311 102.638L86.2388 99.336C86.3562 99.3193 86.4735 99.3863 86.507 99.5037C86.5406 99.621 86.4567 99.7384 86.3394 99.7719L70.4316 103.074C70.4149 103.091 70.3981 103.091 70.3813 103.091C70.2808 103.091 70.1802 103.024 70.1635 102.906Z" fill="#1F1F39"/>
<path d="M70.163 112.445C70.1294 112.328 70.2133 112.21 70.3306 112.177L86.2383 108.874C86.3557 108.858 86.473 108.925 86.5065 109.042C86.5401 109.159 86.4563 109.277 86.3389 109.31L70.4311 112.613C70.4144 112.629 70.3976 112.629 70.3808 112.629C70.2803 112.629 70.1797 112.562 70.163 112.445Z" fill="#1F1F39"/>
<path d="M70.163 121.983C70.1294 121.865 70.2133 121.748 70.3306 121.714L86.2383 118.412C86.3557 118.395 86.473 118.463 86.5065 118.58C86.5401 118.697 86.4563 118.815 86.3389 118.848L70.4311 122.15C70.4144 122.167 70.3976 122.167 70.3808 122.167C70.2803 122.167 70.1797 122.1 70.163 121.983Z" fill="#1F1F39"/>
<path d="M56.9706 102.504L41.0629 99.2018C40.9456 99.1683 40.8617 99.051 40.8953 98.9336C40.9288 98.8163 41.0461 98.7325 41.1635 98.766L57.0712 102.068C57.1886 102.102 57.2724 102.219 57.2388 102.336C57.2221 102.42 57.1215 102.504 57.0209 102.504C57.0042 102.504 56.9874 102.504 56.9706 102.504Z" fill="#1F1F39"/>
<path d="M56.9706 112.026L41.0629 108.723C40.9456 108.69 40.8617 108.573 40.8953 108.455C40.9288 108.338 41.0461 108.254 41.1635 108.288L57.0712 111.59C57.1886 111.623 57.2724 111.741 57.2388 111.858C57.2221 111.959 57.1215 112.026 57.0209 112.026C57.0042 112.026 56.9874 112.026 56.9706 112.026Z" fill="#1F1F39"/>
<path d="M56.9706 121.563L41.0629 118.261C40.9456 118.228 40.8617 118.11 40.8953 117.993C40.9288 117.876 41.0461 117.792 41.1635 117.825L57.0712 121.128C57.1886 121.161 57.2724 121.278 57.2388 121.396C57.2221 121.496 57.1215 121.563 57.0209 121.563C57.0042 121.563 56.9874 121.563 56.9706 121.563Z" fill="#1F1F39"/>
<path d="M51.5401 126.978C51.5401 124.798 53.7193 125.134 56.066 125.804C58.4128 126.475 69.6438 127.648 81.0424 126.642C92.441 125.637 102.666 123.96 102.666 123.96L101.493 121.278L122.111 118.261C122.111 118.261 126.804 129.324 125.631 136.7C124.458 144.075 117.417 144.914 97.9726 146.255C86.7249 147.026 72.0408 145.567 61.6815 144.193C54.1216 143.187 46.8969 141.36 45.12 140.287C43.6952 139.432 42.4045 138.46 42.3374 137.706C42.1698 136.029 43.3432 136.029 43.3432 136.029C43.3432 136.029 41.3317 135.191 41.4993 133.012C41.6334 131.168 42.8403 130.833 42.8403 130.833C42.8403 130.833 42.3374 128.989 43.1756 128.151C44.0137 127.313 45.3212 127.933 46.3605 128.486C48.8581 129.827 48.5228 129.827 54.3898 130.833C54.3898 130.833 51.5401 129.157 51.5401 126.978Z" fill="#F9D2DD"/>
<path d="M47.601 133.75C44.3993 132.577 42.723 131.085 42.656 131.018C42.5554 130.917 42.5386 130.766 42.6392 130.666C42.7398 130.565 42.8907 130.548 42.9913 130.649C43.008 130.666 44.6675 132.141 47.7686 133.281C50.8697 134.421 54.524 134.437 54.5575 134.437C54.6916 134.437 54.8089 134.555 54.8089 134.689C54.8089 134.823 54.6916 134.94 54.5575 134.94C54.4066 134.94 50.7859 134.923 47.601 133.75Z" fill="#1F1F39"/>
<path d="M47.0981 137.941C43.9132 136.767 42.304 135.359 42.2369 135.292C42.1364 135.192 42.1196 135.041 42.2202 134.94C42.3207 134.84 42.4716 134.823 42.5722 134.923C42.5889 134.94 44.1814 136.331 47.2657 137.471C50.3668 138.611 54.0211 138.628 54.0546 138.628C54.1887 138.628 54.306 138.745 54.306 138.879C54.306 139.013 54.1887 139.131 54.0546 139.131C53.9037 139.131 50.283 139.114 47.0981 137.941Z" fill="#1F1F39"/>
<path d="M124.39 125.033C123.351 121.194 122.111 118.261 122.111 118.261L101.493 121.278" fill="#F9ACC0"/>
</svg>
