<svg width="24" height="24" viewBox="0 0 24 24" fill="none"
    xmlns="http://www.w3.org/2000/svg">
    <path
        d="M13.2006 1.58385C12.7712 1.26295 12.5565 1.10249 12.3194 1.04082C12.1102 0.986395 11.8898 0.986395 11.6806 1.04082C11.4435 1.10249 11.2288 1.26295 10.7994 1.58385L2.50992 7.7789C1.9558 8.19302 1.67874 8.40007 1.47914 8.65938C1.30234 8.88908 1.17062 9.14784 1.09048 9.42296C1 9.73355 1 10.0708 1 10.7453V19.242C1 20.5574 1 21.2151 1.26643 21.7175C1.50079 22.1595 1.87474 22.5188 2.33469 22.744C2.85759 23 3.54209 23 4.91111 23H7.35556C7.69781 23 7.86894 23 7.99966 22.936C8.11465 22.8797 8.20814 22.7899 8.26673 22.6794C8.33333 22.5538 8.33333 22.3893 8.33333 22.0605V14.3095C8.33333 13.6518 8.33333 13.3229 8.46655 13.0717C8.58373 12.8507 8.7707 12.6711 9.00068 12.5585C9.26213 12.4305 9.60438 12.4305 10.2889 12.4305H13.7111C14.3956 12.4305 14.7379 12.4305 14.9993 12.5585C15.2293 12.6711 15.4163 12.8507 15.5335 13.0717C15.6667 13.3229 15.6667 13.6518 15.6667 14.3095V22.0605C15.6667 22.3893 15.6667 22.5538 15.7333 22.6794C15.7919 22.7899 15.8854 22.8797 16.0003 22.936C16.1311 23 16.3022 23 16.6444 23H19.0889C20.4579 23 21.1424 23 21.6653 22.744C22.1253 22.5188 22.4992 22.1595 22.7336 21.7175C23 21.2151 23 20.5574 23 19.242V10.7453C23 10.0708 23 9.73355 22.9095 9.42296C22.8294 9.14784 22.6977 8.88908 22.5209 8.65938C22.3213 8.40007 22.0442 8.19302 21.4901 7.7789L13.2006 1.58385Z"
        stroke="currentColor" stroke-width="2" stroke-linecap="round" stroke-linejoin="round" />
</svg>