<svg width="31" height="30" viewBox="0 0 31 30" fill="none" xmlns="http://www.w3.org/2000/svg">
<path d="M0 15.0285C0.000846585 18.6078 1.27833 22.0694 3.60283 24.7912C5.92734 27.513 9.14643 29.3165 12.6815 29.8774V19.3724H8.86819V15.0285H12.686V11.7217C12.6017 10.9477 12.6889 10.1647 12.9413 9.42822C13.1937 8.69174 13.6052 8.01987 14.1465 7.46033C14.6878 6.90079 15.3457 6.4673 16.0734 6.19066C16.8011 5.91402 17.5808 5.80101 18.3572 5.85965C19.4845 5.87769 20.6118 5.97839 21.7241 6.16027V9.85635H19.8242C19.5013 9.81405 19.173 9.84487 18.8636 9.9465C18.5542 10.0481 18.2716 10.218 18.0367 10.4436C17.8017 10.6691 17.6205 10.9445 17.5063 11.2495C17.3922 11.5546 17.348 11.8813 17.3771 12.2057V15.0285H21.5422L20.8763 19.3739H17.3771V29.8774C20.2144 29.429 22.8638 28.177 25.0115 26.2697C27.1593 24.3623 28.7156 21.8795 29.4961 19.1151C30.2767 16.3507 30.2487 13.4205 29.4156 10.6715C28.5825 7.92252 26.9792 5.4698 24.7954 3.60374C22.6116 1.73768 19.9389 0.536433 17.0936 0.142226C14.2483 -0.251981 11.3497 0.177358 8.74081 1.37941C6.13196 2.58147 3.92217 4.50589 2.37308 6.92485C0.823981 9.34381 0.00045599 12.156 0 15.0285Z" fill="#1E1E1E"/>
</svg>
