<svg width="28" height="28" viewBox="0 0 28 28" fill="none" xmlns="http://www.w3.org/2000/svg">
<path d="M13.855 13.8552H13.869M18.798 18.7982C12.2462 25.3499 4.7219 28.4482 1.99199 25.7183C-0.73791 22.9884 2.36033 15.4641 8.9121 8.91229C15.4639 2.36052 22.9882 -0.737714 25.7181 1.99219C28.448 4.7221 25.3497 12.2464 18.798 18.7982ZM18.7979 8.91204C25.3497 15.4638 28.4479 22.9881 25.718 25.718C22.9881 28.4479 15.4638 25.3497 8.91204 18.7979C2.36027 12.2461 -0.737966 4.72184 1.99194 1.99194C4.72184 -0.737966 12.2461 2.36027 18.7979 8.91204ZM14.5541 13.8552C14.5541 14.2413 14.2411 14.5543 13.855 14.5543C13.469 14.5543 13.156 14.2413 13.156 13.8552C13.156 13.4692 13.469 13.1562 13.855 13.1562C14.2411 13.1562 14.5541 13.4692 14.5541 13.8552Z" stroke="#666666" stroke-width="2" stroke-linecap="round" stroke-linejoin="round"/>
</svg>
