<svg width="41" height="41" viewBox="0 0 41 41" fill="none" xmlns="http://www.w3.org/2000/svg">
    <path
        d="M14.3205 0.987141C12.8846 0.576883 10.6282 0.166626 8.98717 0.166626C7.34614 0.166626 5.08972 0.576883 3.65382 0.987141C2.21791 1.19227 1.19227 2.21791 0.987141 3.65382C0.576883 5.08972 0.166626 7.34614 0.166626 8.98717C0.166626 10.6282 0.576884 12.8846 0.782013 14.3205C0.987141 15.7564 2.21791 16.7821 3.44869 16.9872C4.88459 17.1923 7.14101 17.6026 8.78204 17.6026C10.4231 17.6026 12.6795 17.1923 14.1154 16.9872C15.5513 16.7821 16.5769 15.5513 16.7821 14.3205C16.9872 12.8846 17.3975 10.6282 17.3975 8.98717C17.3975 7.34614 16.9872 5.08972 16.7821 3.65382C16.7821 2.21791 15.7564 1.19227 14.3205 0.987141Z"
        fill="currentColor" />
    <path
        d="M14.3204 23.5514C12.8845 23.3463 10.6281 22.936 8.98707 22.936C7.34604 22.936 5.08962 23.3463 3.65372 23.5514C2.21782 23.7566 1.19217 24.9873 0.987042 26.2181C0.781913 27.654 0.371655 29.9104 0.371655 31.5514C0.371655 33.1925 0.781913 35.4489 0.987042 36.8848C1.19217 38.3207 2.42294 39.3463 3.65372 39.5515C5.08962 39.7566 7.34604 40.1669 8.98707 40.1669C10.6281 40.1669 12.8845 39.7566 14.3204 39.5515C15.7563 39.3463 16.782 38.1156 16.9871 36.8848C17.1922 35.4489 17.6025 33.1925 17.6025 31.5514C17.6025 29.9104 17.1922 27.654 16.9871 26.2181C16.782 24.7822 15.7563 23.7566 14.3204 23.5514Z"
        fill="currentColor" />
    <path
        d="M26.2179 16.9876C27.6538 17.1927 29.9102 17.603 31.5512 17.603C33.1922 17.603 35.4487 17.1927 36.8846 16.9876C38.3205 16.7824 39.3461 15.5517 39.5512 14.3209C39.7564 12.885 40.1666 10.6286 40.1666 8.98755C40.1666 7.34652 39.7564 5.09011 39.5512 3.6542C39.3461 2.2183 38.1153 1.19266 36.8846 0.987527C35.4487 0.782399 33.1922 0.372141 31.5512 0.372141C29.9102 0.372141 27.6538 0.782399 26.2179 0.987527C24.782 1.19266 23.7563 2.42343 23.5512 3.6542C23.3461 5.09011 22.9358 7.34652 22.9358 8.98755C22.9358 10.6286 23.3461 12.885 23.5512 14.3209C23.7563 15.7568 24.782 16.7824 26.2179 16.9876Z"
        fill="currentColor" />
    <path
        d="M36.8846 23.5514C35.4487 23.3463 33.1922 22.936 31.5512 22.936C29.9102 22.936 27.6538 23.3463 26.2179 23.5514C24.782 23.7566 23.7563 24.9873 23.5512 26.2181C23.3461 27.654 22.9358 29.9104 22.9358 31.5514C22.9358 33.1925 23.3461 35.4489 23.5512 36.8848C23.7563 38.3207 24.9871 39.3463 26.2179 39.5515C27.6538 39.7566 29.9102 40.1669 31.5512 40.1669C33.1922 40.1669 35.4487 39.7566 36.8846 39.5515C38.3205 39.3463 39.3461 38.1156 39.5512 36.8848C39.7564 35.4489 40.1666 33.1925 40.1666 31.5514C40.1666 29.9104 39.7564 27.654 39.5512 26.2181C39.3461 24.7822 38.3205 23.7566 36.8846 23.5514Z"
        fill="currentColor" />
</svg>