<svg width="28" height="20" viewBox="0 0 28 20" fill="none" xmlns="http://www.w3.org/2000/svg">
<path d="M26.71 7.4275H1M12.5695 12.5695H6.142M1 5.1136L1 14.8834C1 16.3233 1 17.0432 1.28022 17.5932C1.52671 18.077 1.92003 18.4703 2.40379 18.7168C2.95376 18.997 3.6737 18.997 5.1136 18.997L22.5964 18.997C24.0363 18.997 24.7562 18.997 25.3062 18.7168C25.79 18.4703 26.1833 18.077 26.4298 17.5932C26.71 17.0432 26.71 16.3233 26.71 14.8834V5.1136C26.71 3.67371 26.71 2.95376 26.4298 2.40379C26.1833 1.92003 25.79 1.52671 25.3062 1.28022C24.7562 1 24.0363 1 22.5964 1L5.1136 1C3.67371 1 2.95376 1 2.40379 1.28022C1.92003 1.52671 1.52671 1.92003 1.28022 2.40379C1 2.95376 1 3.6737 1 5.1136Z" stroke="#666666" stroke-width="2" stroke-linecap="round" stroke-linejoin="round"/>
</svg>
