<svg width="28" height="28" viewBox="0 0 28 28" fill="none" xmlns="http://www.w3.org/2000/svg">
<path d="M8.53191 9.70383C9.49368 11.707 10.8048 13.5844 12.4652 15.2448C14.1256 16.9052 16.003 18.2163 18.0062 19.1781C18.1785 19.2608 18.2646 19.3022 18.3736 19.334C18.7611 19.4469 19.2368 19.3658 19.5649 19.1308C19.6572 19.0647 19.7362 18.9858 19.8941 18.8278C20.3772 18.3447 20.6188 18.1031 20.8617 17.9452C21.7777 17.3496 22.9586 17.3496 23.8746 17.9452C24.1175 18.1031 24.3591 18.3447 24.8422 18.8278L25.1115 19.0971C25.8458 19.8314 26.213 20.1986 26.4125 20.593C26.8092 21.3773 26.8092 22.3035 26.4125 23.0878C26.213 23.4821 25.8458 23.8493 25.1115 24.5837L24.8936 24.8015C24.1618 25.5334 23.7958 25.8993 23.2983 26.1788C22.7463 26.4889 21.8888 26.7119 21.2556 26.71C20.685 26.7083 20.295 26.5976 19.515 26.3762C15.3233 25.1865 11.368 22.9417 8.06814 19.6419C4.7683 16.342 2.52352 12.3867 1.33378 8.19496C1.1124 7.41498 1.00171 7.02498 1.00001 6.45435C0.998127 5.82116 1.22111 4.96373 1.53122 4.41167C1.8107 3.91416 2.17663 3.54823 2.90849 2.81637L3.12632 2.59854C3.86069 1.86417 4.22788 1.49698 4.62223 1.29752C5.40652 0.900828 6.33273 0.900828 7.11701 1.29752C7.51137 1.49698 7.87856 1.86417 8.61293 2.59854L8.88221 2.86782C9.36532 3.35093 9.60687 3.59248 9.7648 3.83538C10.3604 4.75139 10.3604 5.9323 9.76479 6.84832C9.60687 7.09122 9.36532 7.33277 8.88221 7.81587C8.72425 7.97383 8.64527 8.05282 8.57916 8.14514C8.34423 8.47323 8.26311 8.94895 8.37604 9.33636C8.40782 9.44537 8.44918 9.53152 8.53191 9.70383Z" stroke="#666666" stroke-width="2" stroke-linecap="round" stroke-linejoin="round"/>
</svg>
