<svg width="14" height="13" viewBox="0 0 14 13" fill="none" xmlns="http://www.w3.org/2000/svg">
<path d="M12.9081 4.4036L9.20867 3.86595L7.55491 0.513267C7.50974 0.421473 7.43543 0.347163 7.34364 0.301994C7.11342 0.188344 6.83367 0.283053 6.71856 0.513267L5.06481 3.86595L1.36535 4.4036C1.26336 4.41817 1.1701 4.46625 1.09871 4.5391C1.01239 4.62782 0.964832 4.74717 0.966472 4.87094C0.968111 4.9947 1.01882 5.11275 1.10745 5.19915L3.78406 7.80873L3.1517 11.4936C3.13687 11.5793 3.14635 11.6675 3.17908 11.7481C3.2118 11.8287 3.26646 11.8985 3.33684 11.9496C3.40723 12.0008 3.49053 12.0311 3.5773 12.0373C3.66407 12.0435 3.75084 12.0253 3.82777 11.9846L7.13674 10.2449L10.4457 11.9846C10.536 12.0327 10.641 12.0488 10.7415 12.0313C10.995 11.9876 11.1655 11.7471 11.1218 11.4936L10.4894 7.80873L13.166 5.19915C13.2389 5.12775 13.287 5.0345 13.3015 4.93251C13.3409 4.67752 13.1631 4.44148 12.9081 4.4036Z" fill="#FFD600"/>
</svg>
