<svg width="137" height="151" viewBox="0 0 137 151" fill="none" xmlns="http://www.w3.org/2000/svg">
<path d="M11.9726 122.086C12.0048 121.668 11.7475 121.239 11.1901 120.917C10.1504 120.317 8.4569 120.317 7.42792 120.917C6.91342 121.218 6.65619 121.614 6.65619 122L6.62402 132.279C6.62402 132.676 6.88128 133.072 7.40649 133.372C8.45691 133.973 10.1397 133.973 11.1687 133.372C11.6832 133.072 11.9404 132.686 11.9404 132.29L11.9726 122C11.9833 122.032 11.9833 122.064 11.9726 122.086Z" fill="black"/>
<path d="M40.2052 138.571C40.2374 138.153 39.9802 137.724 39.4228 137.403C38.3831 136.802 36.6896 136.802 35.6606 137.403C35.1461 137.703 34.8888 138.099 34.8888 138.485L34.8567 148.764C34.8567 149.161 35.1139 149.557 35.6391 149.868C36.6896 150.468 38.3724 150.468 39.4014 149.868C39.9158 149.568 40.1731 149.182 40.1731 148.786L40.2052 138.496C40.216 138.528 40.216 138.549 40.2052 138.571Z" fill="black"/>
<path d="M54.9329 126.898L54.965 137.188C54.965 137.585 55.2223 137.971 55.7367 138.271C56.7764 138.871 58.4593 138.871 59.499 138.271C60.0242 137.971 60.2814 137.574 60.2814 137.167L60.2493 126.877C60.2493 126.491 59.992 126.094 59.4775 125.794C58.4378 125.194 56.755 125.194 55.7153 125.794C55.1579 126.116 54.9007 126.545 54.9329 126.963C54.9436 126.952 54.9329 126.93 54.9329 126.898Z" fill="black"/>
<path d="M37.247 110.971V148.143L5.31641 129.707V92.5346L37.247 110.971Z" fill="#8A603E"/>
<path d="M5.31641 92.5347L37.247 110.971L61.3424 97.0579L29.4117 78.6219L5.31641 92.5347Z" fill="#CC8B7C"/>
<path d="M61.3424 97.0579V134.23L37.2471 148.143V110.971L61.3424 97.0579Z" fill="#BA8254"/>
<path d="M90.9044 78.6756V118.838L61.2461 100.402V60.2396L90.9044 78.6756Z" fill="#8A603E"/>
<path d="M92.5759 77.6358V117.798L90.9038 118.838V78.6755L92.5759 77.6358Z" fill="#BA8254"/>
<path opacity="0.4" d="M61.3424 97.8402V105.547L37.247 119.46L37.1077 119.535L5.31641 101.174V93.4671L37.1077 111.828L37.247 111.753L61.3424 97.8402Z" fill="#855044"/>
<path d="M0 97.6152L31.0624 116.148V114.165L0 95.6323V97.6152Z" fill="#453535"/>
<path d="M0 95.6322L31.0624 114.165L92.9086 77.2713L61.8461 58.7282L0 95.6322Z" fill="#BA8254"/>
<path d="M31.0625 116.148L92.9086 79.2436V77.2714L31.0625 114.165V116.148Z" fill="#453535"/>
<path d="M30.9125 91.0019L21.2658 96.5648L9.02515 89.5013L18.6611 83.9276L30.9125 91.0019Z" fill="#CCCCCC"/>
<path d="M30.9125 90.6374L21.2658 96.2111L9.02515 89.1368L18.6611 83.5632L30.9125 90.6374Z" fill="#E6E6E6"/>
<path d="M30.9125 90.3158L21.2658 95.8788L9.02515 88.8045L18.6611 83.2416L30.9125 90.3158Z" fill="#CCCCCC"/>
<path d="M30.9125 89.9515L21.2658 95.5252L9.02515 88.4509L18.6611 82.8773L30.9125 89.9515Z" fill="#E6E6E6"/>
<path d="M30.9125 89.7477L21.2014 95.2142L9.02515 88.0006L18.7362 82.5341L30.9125 89.7477Z" fill="#CCCCCC"/>
<path d="M30.9125 89.2654L21.2658 94.8284L9.02515 87.7648L18.6611 82.1912L30.9125 89.2654Z" fill="white"/>
<path d="M20.826 86.5965L17.514 88.5152L16.9995 88.215L20.3115 86.2964L20.826 86.5965Z" fill="black"/>
<path d="M46.4544 101.249L36.8077 106.812L24.5564 99.7375L34.2031 94.1746L46.4544 101.249Z" fill="#CCCCCC"/>
<path d="M46.4544 100.884L36.8077 106.447L24.5564 99.3838L34.2031 93.8101L46.4544 100.884Z" fill="#E6E6E6"/>
<path d="M46.4544 100.552L36.8077 106.126L24.5564 99.0515L34.2031 93.4886L46.4544 100.552Z" fill="#CCCCCC"/>
<path d="M46.4544 100.198L36.8077 105.761L24.5564 98.6871L34.2031 93.1242L46.4544 100.198Z" fill="#E6E6E6"/>
<path d="M46.4544 99.8661L36.8077 105.44L24.5564 98.3655L34.2031 92.7918L46.4544 99.8661Z" fill="#CCCCCC"/>
<path d="M46.4651 99.3195L36.9149 105.054L24.5457 98.1833L34.0959 92.4596L46.4651 99.3195Z" fill="#F2F2F2"/>
<path d="M46.4544 99.1801L36.8077 104.754L24.5564 97.6795L34.2031 92.1059L46.4544 99.1801Z" fill="#CCCCCC"/>
<path d="M46.4544 98.8157L36.8077 104.389L24.5564 97.3151L34.2031 91.7521L46.4544 98.8157Z" fill="white"/>
<path d="M36.915 94.8177L30.6554 98.4298L30.1409 98.1297L36.4005 94.5175L36.915 94.8177Z" fill="black"/>
<path d="M36.2933 96.1575L32.9813 98.0762L32.4668 97.776L35.7788 95.8574L36.2933 96.1575Z" fill="black"/>
<path d="M103.927 99.2765C104.441 99.2765 104.859 98.8585 104.859 98.344V86.768C104.859 86.2535 104.441 85.8354 103.927 85.8354C103.412 85.8354 102.994 86.2535 102.994 86.768V98.344C102.994 98.8585 103.412 99.2765 103.927 99.2765Z" fill="#666666"/>
<path d="M125.686 132.333C125.686 132.997 126.222 133.533 126.887 133.533C127.551 133.533 128.087 132.997 128.087 132.333C128.087 131.668 127.551 131.132 126.887 131.132C126.222 131.121 125.686 131.657 125.686 132.333Z" fill="#333333"/>
<path d="M106.993 137.842C106.993 138.507 107.529 139.043 108.193 139.043C108.858 139.043 109.394 138.507 109.394 137.842C109.394 137.177 108.858 136.642 108.193 136.642C107.529 136.642 106.993 137.177 106.993 137.842Z" fill="#333333"/>
<path d="M92.5012 129.374C92.5012 130.039 93.0371 130.575 93.7017 130.575C94.3662 130.575 94.9022 130.039 94.9022 129.374C94.9022 128.71 94.3662 128.174 93.7017 128.174C93.0371 128.163 92.5012 128.71 92.5012 129.374Z" fill="#333333"/>
<path d="M101.516 118.356C101.516 119.02 102.052 119.556 102.716 119.556C103.381 119.556 103.917 119.02 103.917 118.356C103.917 117.691 103.381 117.155 102.716 117.155C102.052 117.155 101.516 117.691 101.516 118.356Z" fill="#333333"/>
<path d="M122.706 120.564C122.706 121.228 123.242 121.764 123.907 121.764C124.571 121.764 125.107 121.228 125.107 120.564C125.107 119.899 124.571 119.363 123.907 119.363C123.242 119.352 122.706 119.899 122.706 120.564Z" fill="#333333"/>
<path d="M107.561 125.537L101.676 117.67V117.144L103.402 117.155L110.959 124.519C111.473 124.508 111.988 124.562 112.481 124.658L123.617 118.999L124.989 119.267V119.792L115.192 126.223C115.364 126.502 115.439 126.802 115.439 127.102L128.205 130.95V131.475L127.326 132.472L113.703 129.074C113.285 129.256 112.813 129.396 112.331 129.481L109.083 137.831L107.164 137.66V137.134L108.547 129.128C108.343 129.042 108.14 128.945 107.947 128.838C107.764 128.731 107.604 128.613 107.454 128.495L92.6834 129.299L92.3833 128.195V127.67L106.853 126.319C107.003 126.041 107.25 125.773 107.561 125.537Z" fill="#333333"/>
<path d="M107.561 123.447L101.676 117.144L103.402 116.641L110.959 122.439C111.473 122.429 111.988 122.482 112.481 122.579L123.617 118.484L124.989 119.277L115.192 124.144C115.364 124.422 115.439 124.722 115.439 125.023L128.205 130.95L127.326 131.947L113.703 126.984C113.285 127.166 112.813 127.306 112.331 127.391L109.083 137.306L107.164 137.135L108.547 127.048C108.343 126.963 108.14 126.866 107.947 126.759C107.764 126.652 107.604 126.534 107.454 126.416L92.6834 128.774L92.3833 127.67L106.853 124.229C107.003 123.961 107.25 123.693 107.561 123.447Z" fill="#999999"/>
<path d="M109.147 113.489C109.254 113.382 109.372 113.286 109.533 113.2C110.455 112.675 111.934 112.675 112.856 113.2C113.006 113.286 113.135 113.382 113.242 113.489H113.542V124.551C113.542 124.894 113.317 125.248 112.856 125.516C111.934 126.041 110.455 126.041 109.533 125.516C109.072 125.248 108.847 124.905 108.847 124.551V113.489H109.147Z" fill="#4D4D4D"/>
<path d="M109.522 112.535C108.601 113.061 108.601 113.929 109.522 114.454C110.444 114.979 111.923 114.979 112.845 114.454C113.767 113.929 113.767 113.061 112.845 112.535C111.934 112 110.444 112 109.522 112.535Z" fill="#4D4D4D"/>
<path d="M108.193 105.718C108.525 105.375 109.051 105.075 109.779 104.882C110.701 104.636 111.677 104.636 112.598 104.882C113.327 105.075 113.852 105.375 114.185 105.718H114.635V114.133C114.635 114.84 113.992 115.547 112.695 115.923C111.72 116.212 110.658 116.212 109.683 115.923C108.397 115.537 107.743 114.829 107.743 114.133V105.718H108.193Z" fill="#999999"/>
<path d="M109.683 103.928C107.1 104.7 107.1 106.747 109.683 107.519C110.659 107.809 111.72 107.809 112.695 107.519C115.278 106.747 115.278 104.7 112.695 103.928C111.72 103.639 110.659 103.639 109.683 103.928Z" fill="#4D4D4D"/>
<path d="M96.8529 93.2634C97.1959 93.2634 97.5389 93.1777 97.8497 92.9955L111.998 84.8279C112.952 84.2813 113.284 83.0594 112.727 82.1054C112.18 81.1515 110.959 80.8192 110.005 81.3766L95.8561 89.5441C94.9021 90.0907 94.5699 91.3127 95.1272 92.2666C95.4917 92.899 96.1562 93.2634 96.8529 93.2634Z" fill="black"/>
<path d="M109.415 119.749L90.1428 108.623C89.8534 108.452 89.6819 108.098 89.6819 107.594V105.247C89.6819 104.229 90.3893 102.996 91.2682 102.492L110.412 91.4413C110.851 91.1841 111.248 91.1627 111.537 91.3341L130.809 102.46L109.415 119.749Z" fill="#1A1A1A"/>
<path d="M110.54 119.642L129.684 108.591C130.563 108.087 131.27 106.855 131.27 105.836V103.489C131.27 102.471 130.563 102.063 129.684 102.567L110.54 113.618C109.662 114.122 108.954 115.354 108.954 116.373V118.72C108.954 119.738 109.662 120.146 110.54 119.642Z" fill="black"/>
<path d="M135.868 57.6885L130.487 100.766L127.218 103.757L107.946 92.631C107.539 92.3952 107.41 91.7092 107.742 90.8625C113.509 76.4138 117.925 65.0843 118.686 52.4042C118.75 51.3645 119.479 50.1641 120.348 49.6603C120.808 49.3923 121.226 49.3709 121.527 49.5424C121.537 49.5424 135.868 57.6885 135.868 57.6885Z" fill="#333333"/>
<path d="M128.151 103.671L130.541 102.289C131.163 101.935 131.741 101.238 132.063 100.445C136.115 90.7232 137.722 75.4064 136.34 58.5996C136.265 57.6564 135.536 57.3134 134.678 57.8172C133.799 58.321 133.081 59.5214 133.017 60.5611C132.256 73.2412 132.781 87.5505 127.014 101.999C126.489 103.328 127.111 104.271 128.151 103.671Z" fill="black"/>
<path d="M116.757 73.4555L128.966 80.4976C128.773 82.4055 128.526 84.3134 128.215 86.232L114.989 78.5897C115.61 76.864 116.2 75.1598 116.757 73.4555Z" fill="black"/>
<path d="M124.893 99.1479L111.655 91.5055L110.305 90.7231C110.948 89.1153 111.569 87.5397 112.18 85.9855L126.479 94.2388C126.018 95.868 125.493 97.5079 124.893 99.1479Z" fill="black"/>
<path d="M121.109 52.2328C121.109 52.2114 121.109 52.2006 121.12 52.1792L123.413 53.5083C123.413 53.4654 130.809 57.6671 130.809 57.6671C130.423 58.4174 130.177 59.2427 130.123 60.0573C130.038 61.5151 129.962 62.9621 129.898 64.452L120.359 58.9426C120.712 56.7346 120.97 54.5051 121.109 52.2328Z" fill="black"/>
<path d="M114.56 79.7688L128.001 87.529C127.679 89.3512 127.283 91.1734 126.811 93.0062L112.631 84.8172C113.295 83.113 113.938 81.4302 114.56 79.7688Z" fill="black"/>
<path d="M118.676 66.9708L129.512 73.2304C129.405 75.1919 129.276 77.1748 129.094 79.1578L117.143 72.255C117.7 70.4865 118.215 68.7286 118.676 66.9708Z" fill="black"/>
<path d="M120.155 60.2396L129.845 65.8347C129.834 66.2206 129.813 66.6065 129.802 66.9923C129.738 68.6001 129.673 70.2186 129.587 71.8478L118.987 65.7275C119.437 63.9054 119.823 62.0832 120.155 60.2396Z" fill="black"/>
<path d="M122.974 111.303C123.489 111.303 123.907 110.885 123.907 110.37V98.7942C123.907 98.2797 123.489 97.8617 122.974 97.8617C122.46 97.8617 122.042 98.2797 122.042 98.7942V110.37C122.042 110.885 122.46 111.303 122.974 111.303Z" fill="#666666"/>
<path d="M116.254 104.679C116.597 104.679 116.94 104.593 117.251 104.411L131.399 96.2433C132.353 95.6966 132.685 94.4747 132.128 93.5208C131.581 92.5668 130.359 92.2345 129.405 92.7919L115.257 100.959C114.303 101.506 113.971 102.728 114.528 103.682C114.893 104.314 115.568 104.679 116.254 104.679Z" fill="black"/>
<path d="M65.7799 79.3186L44.9216 91.3662L31.7271 83.756V83.0272L52.5961 71.7084L65.7799 78.5897V79.3186Z" fill="black"/>
<path d="M65.7799 78.5897L44.9216 90.6374L31.7271 83.0272L52.5961 70.9688L65.7799 78.5897Z" fill="#4D4D4D"/>
<path d="M35.2107 82.3411L36.4862 81.6015L37.4723 82.1589L36.1861 82.8984L35.2107 82.3411Z" fill="#B3B3B3"/>
<path d="M36.7004 81.4837L37.9867 80.7441L38.9621 81.3014L37.6758 82.041L36.7004 81.4837Z" fill="#B3B3B3"/>
<path d="M38.1907 80.6154L39.4769 79.8759L40.4523 80.4439L39.1661 81.1835L38.1907 80.6154Z" fill="#B3B3B3"/>
<path d="M39.6802 79.758L40.9664 79.0184L41.9418 79.5865L40.6556 80.326L39.6802 79.758Z" fill="#B3B3B3"/>
<path d="M41.1702 78.9005L42.4564 78.1609L43.4318 78.7183L42.1455 79.4579L41.1702 78.9005Z" fill="#B3B3B3"/>
<path d="M42.6602 78.0323L43.9464 77.2927L44.9218 77.8608L43.6463 78.6004L42.6602 78.0323Z" fill="#B3B3B3"/>
<path d="M44.1501 77.1748L45.4364 76.4352L46.4118 77.0033L45.1363 77.7429L44.1501 77.1748Z" fill="#B3B3B3"/>
<path d="M45.6399 76.3173L46.9261 75.5777L47.9015 76.1351L46.626 76.8746L45.6399 76.3173Z" fill="#B3B3B3"/>
<path d="M47.1404 75.4491L48.4159 74.7095L49.3913 75.2776L48.1158 76.0172L47.1404 75.4491Z" fill="#B3B3B3"/>
<path d="M48.6304 74.5916L49.9059 73.852L50.8813 74.4201L49.6058 75.1597L48.6304 74.5916Z" fill="#B3B3B3"/>
<path d="M50.1201 73.7341L51.3956 72.9946L52.371 73.5627L51.0955 74.3022L50.1201 73.7341Z" fill="#B3B3B3"/>
<path d="M36.9575 83.3487L38.2437 82.6091L39.2191 83.1772L37.9436 83.9168L36.9575 83.3487Z" fill="#B3B3B3"/>
<path d="M38.4585 82.4912L39.734 81.7516L40.7094 82.3197L39.4339 83.0593L38.4585 82.4912Z" fill="#B3B3B3"/>
<path d="M39.9482 81.6337L41.2238 80.8942L42.1991 81.4515L40.9236 82.1911L39.9482 81.6337Z" fill="#B3B3B3"/>
<path d="M41.4382 80.7655L42.7137 80.0259L43.6891 80.594L42.4136 81.3336L41.4382 80.7655Z" fill="#B3B3B3"/>
<path d="M42.928 79.9081L44.2035 79.1685L45.1896 79.7366L43.9034 80.4762L42.928 79.9081Z" fill="#B3B3B3"/>
<path d="M44.418 79.0506L45.6935 78.311L46.6796 78.8683L45.3934 79.6079L44.418 79.0506Z" fill="#B3B3B3"/>
<path d="M45.9077 78.1824L47.1832 77.4428L48.1693 78.0109L46.8831 78.7505L45.9077 78.1824Z" fill="#B3B3B3"/>
<path d="M47.3977 77.3249L48.6839 76.5853L49.6593 77.1534L48.3731 77.8929L47.3977 77.3249Z" fill="#B3B3B3"/>
<path d="M48.8875 76.4674L50.1737 75.7278L51.1491 76.2959L49.8628 77.0355L48.8875 76.4674Z" fill="#B3B3B3"/>
<path d="M50.3772 75.6099L51.6634 74.8703L52.6388 75.4277L51.3526 76.1672L50.3772 75.6099Z" fill="#B3B3B3"/>
<path d="M51.8672 74.7417L53.1534 74.0021L54.1288 74.5702L52.8426 75.3098L51.8672 74.7417Z" fill="#B3B3B3"/>
<path d="M38.083 84.0026L39.3692 83.263L40.3446 83.8204L39.0584 84.56L38.083 84.0026Z" fill="#B3B3B3"/>
<path d="M39.573 83.1344L40.8592 82.3948L41.8346 82.9629L40.5484 83.7024L39.573 83.1344Z" fill="#B3B3B3"/>
<path d="M41.0627 82.2768L42.349 81.5372L43.3244 82.1053L42.0381 82.8449L41.0627 82.2768Z" fill="#B3B3B3"/>
<path d="M42.553 81.4193L43.8392 80.6797L44.8146 81.2371L43.5284 81.9767L42.553 81.4193Z" fill="#B3B3B3"/>
<path d="M44.0422 80.5512L45.3285 79.8116L46.3039 80.3797L45.0283 81.1192L44.0422 80.5512Z" fill="#B3B3B3"/>
<path d="M45.5325 79.6937L46.8187 78.9541L47.7941 79.5222L46.5186 80.2618L45.5325 79.6937Z" fill="#B3B3B3"/>
<path d="M47.0227 78.8361L48.3089 78.0966L49.2843 78.6539L48.0088 79.4042L47.0227 78.8361Z" fill="#B3B3B3"/>
<path d="M48.5227 77.9787L49.7982 77.2391L50.7736 77.7965L49.4981 78.5361L48.5227 77.9787Z" fill="#B3B3B3"/>
<path d="M50.0132 77.1105L51.2887 76.3709L52.2641 76.939L50.9886 77.6786L50.0132 77.1105Z" fill="#B3B3B3"/>
<path d="M51.5029 76.253L52.7784 75.5134L53.7538 76.0815L52.4783 76.821L51.5029 76.253Z" fill="#B3B3B3"/>
<path d="M39.2085 84.6456L40.484 83.9061L41.4594 84.4741L40.1839 85.2137L39.2085 84.6456Z" fill="#B3B3B3"/>
<path d="M40.6982 83.7882L41.9738 83.0486L42.9491 83.606L41.6736 84.3456L40.6982 83.7882Z" fill="#B3B3B3"/>
<path d="M42.1885 82.92L43.464 82.1804L44.4394 82.7485L43.1639 83.4881L42.1885 82.92Z" fill="#B3B3B3"/>
<path d="M43.6782 82.0625L44.9537 81.3229L45.9398 81.891L44.6536 82.6305L43.6782 82.0625Z" fill="#B3B3B3"/>
<path d="M45.1685 81.205L46.444 80.4654L47.4301 81.0228L46.1439 81.7623L45.1685 81.205Z" fill="#B3B3B3"/>
<path d="M46.658 80.3475L47.9442 79.5972L48.9196 80.1653L47.6334 80.9048L46.658 80.3475Z" fill="#B3B3B3"/>
<path d="M48.1479 79.4792L49.4342 78.7396L50.4096 79.3077L49.1233 80.0473L48.1479 79.4792Z" fill="#B3B3B3"/>
<path d="M49.6377 78.6218L50.9239 77.8822L51.8993 78.4503L50.6131 79.1899L49.6377 78.6218Z" fill="#B3B3B3"/>
<path d="M51.1279 77.7643L52.4142 77.0247L53.3895 77.5821L52.1033 78.3217L51.1279 77.7643Z" fill="#B3B3B3"/>
<path d="M52.9928 75.3955L54.1076 76.0386L52.6177 76.8961L53.5931 77.4641L55.0937 76.6067L55.4581 76.3923L56.3692 75.8671L55.5331 75.3847L55.3938 75.299L54.2683 74.6559L52.9928 75.3955Z" fill="#B3B3B3"/>
<path d="M42.2097 84.2061L41.8131 84.4312L40.3232 85.2887L41.2986 85.8568L42.7885 84.9993L43.1851 84.7742L44.0747 84.2597L43.0994 83.6917L42.2097 84.2061Z" fill="#B3B3B3"/>
<path d="M43.3032 83.5738L44.5895 82.8342L45.5648 83.3916L44.2893 84.1312L43.3032 83.5738Z" fill="#B3B3B3"/>
<path d="M44.793 82.7056L46.0792 81.966L47.0546 82.5341L45.7791 83.2737L44.793 82.7056Z" fill="#B3B3B3"/>
<path d="M46.2827 81.8481L47.569 81.1085L48.5443 81.6766L47.2688 82.4162L46.2827 81.8481Z" fill="#B3B3B3"/>
<path d="M47.7837 80.9906L49.0592 80.251L50.0346 80.8191L48.7591 81.5587L47.7837 80.9906Z" fill="#B3B3B3"/>
<path d="M49.2734 80.1331L50.5489 79.3936L51.5243 79.9509L50.2488 80.6905L49.2734 80.1331Z" fill="#B3B3B3"/>
<path d="M50.7632 79.2648L52.0387 78.5253L53.0141 79.0934L51.7386 79.8329L50.7632 79.2648Z" fill="#B3B3B3"/>
<path d="M52.2529 78.4074L53.5284 77.6678L54.5145 78.2359L53.2283 78.9755L52.2529 78.4074Z" fill="#B3B3B3"/>
<path d="M55.0184 76.8104L54.8041 76.9283L53.7429 77.55L54.7183 78.1074L55.7794 77.4964L56.0045 77.3678L57.4944 76.5103L56.5083 75.9422L55.0184 76.8104Z" fill="#B3B3B3"/>
<path d="M41.4487 85.9426L42.7242 85.2031L43.6996 85.7604L42.4241 86.5L41.4487 85.9426Z" fill="#B3B3B3"/>
<path d="M42.9385 85.0744L44.214 84.3348L45.2001 84.9029L43.9139 85.6424L42.9385 85.0744Z" fill="#B3B3B3"/>
<path d="M44.4287 84.2169L45.7042 83.4773L46.6903 84.0454L45.4041 84.785L44.4287 84.2169Z" fill="#B3B3B3"/>
<path d="M52.5211 79.5437L51.878 79.9188L51.6743 80.0367L50.3881 80.7763L50.1844 80.8942L48.8982 81.6338L48.6946 81.7624L47.4083 82.502L45.9185 83.3595L46.8939 83.9276L48.3837 83.0594L49.67 82.3198L49.8736 82.2019L51.1598 81.4623L51.3635 81.3444L52.6497 80.6048L52.8534 80.4762L53.4965 80.1118L54.1396 79.7366L53.1642 79.1793L52.5211 79.5437Z" fill="#B3B3B3"/>
<path d="M53.3677 79.0506L54.6539 78.311L55.6293 78.8791L54.3538 79.6186L53.3677 79.0506Z" fill="#B3B3B3"/>
<path d="M54.8577 78.1931L56.1439 77.4535L57.1193 78.0216L55.8438 78.7612L54.8577 78.1931Z" fill="#B3B3B3"/>
<path d="M56.3584 77.3356L57.6339 76.596L58.6093 77.1534L57.3338 77.893L56.3584 77.3356Z" fill="#B3B3B3"/>
<path d="M55.8651 82.5448L51.7492 84.9136L49.166 83.4237L53.282 81.0549L55.8651 82.5448Z" fill="black"/>
<path d="M52.0172 70.7866L31.727 83.0272L31.1482 82.8342L27.1501 67.9033L48.0192 55.8556L48.598 56.0485L52.0172 70.7866Z" fill="black"/>
<path d="M52.5961 70.9688L31.727 83.0272L27.729 68.0962L48.5981 56.0485L52.5961 70.9688Z" fill="#333333"/>
<path d="M28.458 68.3963L48.2016 57.0025L51.8674 70.6687L32.1238 82.0732L28.458 68.3963Z" fill="#732056"/>
<path d="M33.292 68.5142L33.5492 69.5218L44.1713 63.38L43.8927 62.3939L33.292 68.5142Z" fill="#E6E6E6"/>
<path d="M44.8358 61.8474L43.8926 62.394L44.1713 63.3801L45.1038 62.8442L44.8358 61.8474Z" fill="#ED1C24"/>
<path d="M47.1831 70.4759L45.1037 62.8442L33.5491 69.5219L35.5213 77.2071L47.1831 70.4759Z" fill="white"/>
<path d="M36.1646 75.8671C36.111 75.8671 36.0574 75.835 36.0253 75.7921C35.9824 75.7171 36.0038 75.6206 36.0789 75.5777L45.7899 69.9719C45.8649 69.9291 45.9614 69.9505 46.0043 70.0255C46.0471 70.1005 46.0257 70.197 45.9507 70.2399L36.2396 75.8457C36.2182 75.8564 36.1861 75.8671 36.1646 75.8671Z" fill="#1A1A1A"/>
<path d="M35.8538 74.7095C35.8002 74.7095 35.7466 74.6773 35.7145 74.6345C35.6716 74.5594 35.693 74.463 35.7681 74.4201L45.4791 68.8143C45.5541 68.7714 45.6506 68.7928 45.6935 68.8679C45.7364 68.9429 45.7149 69.0394 45.6399 69.0822L35.9289 74.688C35.9074 74.7095 35.886 74.7095 35.8538 74.7095Z" fill="#1A1A1A"/>
<path d="M35.5538 73.5626C35.5002 73.5626 35.4466 73.5304 35.4144 73.4875C35.3716 73.4125 35.393 73.316 35.468 73.2732L45.179 67.6674C45.2541 67.6245 45.3506 67.6459 45.3934 67.721C45.4363 67.796 45.4149 67.8924 45.3398 67.9353L35.6288 73.5411C35.6074 73.5519 35.5859 73.5626 35.5538 73.5626Z" fill="#1A1A1A"/>
<path d="M35.2535 72.4051C35.1999 72.4051 35.1463 72.3729 35.1141 72.3301C35.0713 72.255 35.0927 72.1586 35.1677 72.1157L44.8788 66.5099C44.9538 66.467 45.0502 66.4885 45.0931 66.5635C45.136 66.6385 45.1146 66.735 45.0395 66.7779L35.3285 72.3837C35.3071 72.4051 35.2856 72.4051 35.2535 72.4051Z" fill="#1A1A1A"/>
<path d="M34.9534 71.2582C34.8998 71.2582 34.8462 71.226 34.8141 71.1832C34.7712 71.1081 34.7927 71.0117 34.8677 70.9688L44.5787 65.363C44.6537 65.3201 44.7502 65.3415 44.7931 65.4166C44.8359 65.4916 44.8145 65.5881 44.7395 65.6309L35.0285 71.2368C35.007 71.2475 34.9749 71.2582 34.9534 71.2582Z" fill="#1A1A1A"/>
<path d="M34.6534 70.1006C34.5998 70.1006 34.5462 70.0684 34.514 70.0256C34.4712 69.9505 34.4926 69.8541 34.5676 69.8112L44.2787 64.2054C44.3537 64.1625 44.4501 64.1839 44.493 64.259C44.5359 64.334 44.5145 64.4305 44.4394 64.4733L34.7284 70.0792C34.707 70.1006 34.6748 70.1006 34.6534 70.1006Z" fill="#1A1A1A"/>
<path d="M54.611 45.8338C53.2712 44.987 53.2391 45.2228 52.8317 45.1049L49.3268 44.4939C48.3407 44.4296 47.4403 43.9259 46.8508 43.1434L46.5935 42.7897C45.929 42.6289 45.3931 42.168 45.1358 41.5356L44.632 40.2815L43.6245 38.5237L42.0703 35.2117C41.7166 34.3113 42.3811 34.2684 42.9707 34.7079L45.3287 36.9588L46.6793 37.9127L49.6591 37.7091V36.7551L47.9762 35.4046L46.9473 34.7936C46.0683 34.2041 46.4756 33.5503 47.3546 33.7539L49.6483 34.5578L52.7353 36.9159L54.6432 40.721L55.7901 40.9997C56.9477 41.8357 56.251 46.3375 54.611 45.8338Z" fill="#FCB58D"/>
<path d="M73.4333 16.9043C64.1939 21.0202 67.4416 35.0616 66.2625 38.0842L54.3757 40.0457C53.5396 41.0425 53.4003 44.719 55.1045 46.2625C59.1776 48.1168 65.4587 48.6634 71.2788 47.1199C78.9319 46.0266 78.2138 29.9381 79.3392 20.42L73.4333 16.9043Z" fill="#732056"/>
<path d="M86.2206 122.011C86.9387 122.997 86.8958 125.237 86.6814 127.766C85.9526 130.317 83.5302 130.071 81.4508 130.36C77.4421 130.918 75.4055 133.887 70.0784 133.78C66.9164 133.715 64.8156 133.008 64.1939 130.993C64.1081 130.071 64.6655 129.138 65.8017 128.206C73.1225 125.076 73.1225 125.076 73.294 124.969C73.4869 124.851 76.7775 122.536 76.8418 122.279C76.9061 122.032 78.1923 116.491 78.1923 116.491L85.9955 116.63L86.2206 122.011Z" fill="black"/>
<path d="M100.947 133.319C101.666 135.623 101.816 136.298 101.505 138.003C101.162 138.903 100.819 139.31 100.444 140.564C100.004 142.108 100.069 144.691 97.7748 146.235C95.0415 148.4 89.7466 148.496 88.0745 146.192C88.0745 145.066 88.8248 142.58 90.2075 140.575L92.8978 135.58L92.7263 130.896L100.444 129.203L100.947 133.319Z" fill="black"/>
<path d="M71.4073 92.5345C72.9722 104.1 77.0989 114.54 76.5951 121.582C77.6026 123.458 81.4935 124.326 84.1088 123.511C85.3736 123.125 86.3168 122.364 86.5419 121.164C87.4101 112.096 84.1624 102.846 83.3264 93.4671L84.5697 86.6393L88.9322 62.6512L73.5403 60.2609C73.1437 61.8044 72.8222 63.4122 72.5328 65.1057C72.2969 66.5099 72.104 67.9569 71.954 69.4467C71.1715 76.6389 71.1715 84.6671 71.4073 92.5345Z" fill="#1E1E1E"/>
<path opacity="0.6" d="M71.954 69.436L71.6753 72.4801C77.3347 79.833 79.9393 90.0907 80.1108 102.063L84.1088 123.511C85.3736 123.125 86.3169 122.364 86.542 121.164C87.4102 112.096 84.1624 102.846 83.3264 93.467L84.5697 86.6393L81.6221 71.3332C81.6221 71.3332 73.2831 66.4134 72.8972 65.2986C72.8115 65.0628 72.6936 65.0092 72.5542 65.095C72.3077 66.5098 72.1148 67.9568 71.954 69.436Z" fill="#1E1E1E"/>
<path d="M72.7581 63.8624C72.8116 64.6127 72.9939 65.4702 73.2725 66.4134C73.4119 66.6814 73.5512 66.9386 73.6906 67.2066C76.1558 71.8477 78.8998 75.4385 81.9867 77.7751C81.7509 80.9692 81.7724 78.9756 81.901 82.5127C82.1261 89.3083 82.93 96.6612 84.0876 104.346C87.689 115.429 90.9689 126.073 91.7406 133.083C93.1019 134.787 97.2285 135.398 99.6402 134.348C100.712 133.876 101.441 133.083 101.441 131.904C101.387 122.986 99.7474 113.961 97.2285 104.893L97.9896 62.6941L98.011 61.4936C88.9002 60.1752 76.7989 56.0164 73.5512 60.2502C72.8974 61.1077 72.608 62.2761 72.7581 63.8624Z" fill="#1E1E1E"/>
<path opacity="0.6" d="M72.2434 66.1883L73.6797 67.2066C77.0882 70.9688 80.6896 73.4234 84.6126 73.9379L86.8207 80.8406L93.4447 81.4087C95.5563 86.2964 93.9271 96.3718 93.6055 106.072C96.4995 110.488 98.4718 123.147 99.6186 134.348C100.69 133.876 101.419 133.083 101.419 131.904C101.366 122.986 99.7258 113.961 97.207 104.893L97.968 62.6941L73.5296 60.2502C73.5296 60.261 72.7472 63.8517 72.7472 63.8517L72.2434 66.1883Z" fill="#1E1E1E"/>
<path d="M72.4898 60.9684C72.4898 61.1935 72.5112 61.3971 72.522 61.6222C72.8114 61.9116 73.1222 62.1796 73.433 62.4368C76.7451 65.2022 81.0647 66.392 86.3382 66.1562C86.499 66.1454 86.6705 66.1454 86.8312 66.124C88.1175 66.0597 89.4466 65.8989 90.8185 65.6631L90.8936 47.7845L90.9793 26.0794L87.8602 24.3109L80.5823 21.9635L79.5319 22.135C79.5212 22.135 77.0881 18.9409 77.0881 18.9409C77.0666 18.9516 75.3409 22.8317 75.3409 22.8317C75.3195 22.9282 75.2981 23.0139 75.2766 23.1104C74.4513 26.5403 73.7867 30.3133 73.3044 34.2898C72.254 42.6396 71.9967 51.8897 72.4898 60.9684Z" fill="white"/>
<path d="M81.3009 26.0687L81.4403 27.9444L79.8003 31.1064C78.9964 36.2406 78.7177 47.195 79.3501 51.6432L76.5204 56.4237L74.2695 51.0108C74.8912 42.9612 76.8313 34.8686 78.0854 30.7741L78.4926 26.2295L79.8218 24.8361L81.3009 26.0687Z" fill="#E6454A"/>
<path d="M71.1501 56.6488C70.8178 59.4035 69.2851 67.228 70.239 71.687C71.3645 72.2872 72.8436 73.1447 74.6015 74.045C74.0977 72.6516 73.7226 68.6215 73.476 63.4015C73.4653 63.08 73.4439 62.7584 73.4332 62.4261C73.3903 61.5579 73.3581 60.6576 73.326 59.7358C73.058 51.6218 73.0366 41.7286 73.2831 34.322C73.5189 27.8373 73.7333 20.4951 74.3871 20.6666C75.6733 20.002 76.9381 17.6225 77.1096 17.5689C78.1279 17.2366 81.9116 18.5979 82.9191 18.5872C86.1025 18.555 85.5237 23.7321 85.856 27.505C84.8377 34.6543 84.8163 43.2506 85.2022 51.3217C85.2557 52.4686 85.3201 53.5726 85.3844 54.6552C85.6416 58.7925 85.9953 62.7155 86.3383 66.1347C87.035 72.866 87.7424 77.6679 87.8389 78.504C89.5539 78.6862 91.3225 78.7076 93.1017 78.4718C95.4384 78.1717 97.8072 77.4428 100.133 76.1244C101.226 72.3729 100.948 69.4682 100.519 66.3598C99.9509 62.2117 99.1792 50.8715 99.1899 46.8735L99.2113 43.0255L99.6079 38.8881L100.594 28.5876C99.1256 26.5189 98.536 25.5114 96.9175 23.9786C93.3483 20.6237 88.5142 17.6118 84.8163 15.6824L73.4439 16.8722C71.0965 19.584 70.0675 23.6463 69.7996 28.4697C69.7996 28.4697 71.9004 47.463 71.5788 52.1577C71.4824 53.3368 71.343 55.0089 71.1501 56.6488Z" fill="#732056"/>
<path d="M83.5193 14.6213L88.4713 17.7833C91.4939 24.536 85.2665 27.505 81.9437 31.7924L80.3359 25.983L76.5094 28.2553L75.2339 19.3374L83.5193 14.6213Z" fill="#D4EEFF"/>
<path opacity="0.3" d="M73.4654 63.4122C73.4547 63.0906 73.4333 62.7691 73.4225 62.4368C76.7346 65.2022 81.0542 66.392 86.3277 66.1562C86.3384 66.1883 86.8208 66.124 86.8208 66.124C86.8315 66.124 90.8081 65.6631 90.8081 65.6631L93.0911 78.4932C95.4278 78.1931 97.7966 77.4642 100.122 76.1459C101.216 72.3944 100.937 69.4896 100.508 66.3812C99.9403 62.2332 99.1685 50.8929 99.1793 46.8949L99.2007 43.0469L99.5973 38.9096L94.1522 36.0048L91.8585 47.1843L90.8938 47.7845L85.1915 51.3324C85.2022 51.3752 86.6814 54.3229 86.6814 54.3229L85.3737 54.6659L74.8696 57.4634L73.3261 59.7357L72.5007 60.9577L71.729 62.0938L73.4654 63.4122Z" fill="#732056"/>
<path d="M83.4333 53.3475C83.3154 53.2939 80.1534 53.787 80.1534 53.787L73.9152 53.6048L70.5174 55.4162L69.2848 56.4023C69.1883 57.3777 68.706 58.964 68.9954 59.3714C69.049 60.1217 69.4027 60.6361 70.1208 60.8291C70.3888 61.5365 70.914 61.9652 71.7179 62.1046C72.0395 62.5762 72.629 62.7906 73.315 62.9085L75.2122 63.6052C75.5016 63.7124 75.8338 63.6052 76.0053 63.3479C76.1983 63.0478 76.1339 62.6512 75.8445 62.4369L75.0299 61.8473C76.702 61.3864 78.2562 60.7433 79.3495 59.3285L80.9787 58.7175L84.1086 58.2995L83.4333 53.3475Z" fill="#FCB58D"/>
<path d="M99.7685 27.5264C104.345 31.2351 104.742 40.0886 103.381 51.9648C103.134 54.0656 101.773 55.8985 99.8006 56.6702C94.4628 58.7925 87.4957 59.8644 80.0785 60.6575C78.5457 58.0529 77.7204 55.5555 77.8811 53.2081L94.0769 49.06V38.8024C93.8411 32.7035 95.824 29.0377 99.7685 27.5264Z" fill="#732056"/>
<path d="M87.5818 16.8508C87.5818 16.8508 89.1038 21.0203 85.8454 27.5265C83.573 34.3435 84.5484 42.361 85.1594 50.625C86.1669 44.0759 86.81 34.9759 89.286 31.0743L87.078 28.6948L89.7684 29.7988C90.9688 26.0902 91.419 21.0203 89.7684 18.5979L87.5818 16.8508Z" fill="#51143E"/>
<path d="M80.4108 16.1433C80.4108 16.1433 76.0912 20.2914 75.5446 23.8821C74.9979 27.4728 73.1008 36.5943 73.1115 43.2399C73.1222 49.8747 70.9571 28.3625 71.7181 26.0473L74.2262 25.6078L71.5573 25.104C71.5573 25.0933 73.701 17.6653 80.4108 16.1433Z" fill="#51143E"/>
<path d="M77.6242 24.6432C77.9136 25.2112 78.8354 25.9079 79.3391 26.0473C84.1518 27.4621 87.2494 22.4137 87.5388 18.7479C87.7961 15.5002 88.0212 12.9385 88.0212 12.9385L76.9918 15.6181C76.9918 15.6181 76.8953 16.4863 76.8417 17.719C76.7345 19.8198 76.7667 22.9603 77.6242 24.6432Z" fill="#FCB58D"/>
<path opacity="0.5" d="M75.9736 24.6967C79.575 25.5863 82.4047 19.0802 82.4047 19.0802L75.0411 17.676C73.6048 22.5315 74.4623 24.3215 75.9736 24.6967Z" fill="#FFB294"/>
<path d="M86.7351 13.6995C86.7351 13.6995 84.0447 17.5689 82.244 19.3053C80.4433 21.0418 78.5247 21.4062 77.4314 21.4598C76.3381 21.5134 75.9629 21.1704 75.0304 20.6023C72.951 19.3589 73.1975 12.0274 73.1975 12.0274C73.219 9.06911 73.369 8.87617 73.7227 7.23623C74.2372 4.81384 76.5739 0.237006 83.6374 1.20168C87.0459 1.67329 89.0181 3.67767 89.4683 6.67887C89.822 9.06911 88.5251 13.0135 88.5251 13.0135L86.7351 13.6995Z" fill="#FCB58D"/>
<path d="M88.2143 16.1326C86.3492 19.241 83.0908 19.0159 82.7585 16.0683C82.6942 15.4788 81.0435 15.6717 80.379 15.5002L80.8935 13.4637C81.14 11.8666 80.0146 11.9202 79.082 11.7166C75.6414 10.9448 73.7763 9.48711 73.3262 7.7507C72.19 3.38824 77.9352 0.183392 82.2655 0.322734C87.5176 0.494231 90.0364 3.93489 90.5938 7.0004C91.194 10.2696 88.2143 16.1326 88.2143 16.1326Z" fill="black"/>
<path d="M83.1015 13.4744C83.5624 13.2386 84.2055 13.2707 84.5163 13.6888C84.6878 13.9246 84.7307 14.2354 84.6878 14.5248C84.6449 14.8142 84.5271 15.0822 84.3984 15.3394C84.1733 15.7896 83.9268 16.2398 83.6588 16.6685C83.4445 17.0115 83.1658 17.3867 82.7692 17.4724C82.3619 17.5689 81.8688 17.8583 81.6437 17.4939C81.4187 17.1401 81.4401 16.1648 81.5258 15.7467C81.7081 14.8785 82.2761 13.8924 83.1015 13.4744Z" fill="#FCB58D"/>
<path d="M73.7225 11.7274C73.326 11.9524 72.5757 14.0533 72.2327 15.0715C72.1362 15.3717 72.3077 15.6825 72.6185 15.7575L74.5586 16.2077L73.7225 11.7274Z" fill="#FCB58D"/>
</svg>
