<svg width="97" height="150" viewBox="0 0 97 150" fill="none" xmlns="http://www.w3.org/2000/svg">
<path d="M68.5217 138.686L62.9079 101.371C62.7053 100.359 61.8517 99.1722 60.9113 98.6369C60.6364 98.4778 39.9464 86.4979 39.6281 86.411L34.9114 117.764C34.434 118.951 31.2364 118.748 31.7862 116.925L36.503 85.5429C36.9659 83.4595 39.1652 82.3599 41.6827 83.8067L62.5173 95.8445C64.2969 96.8717 65.7727 98.9697 66.1054 100.923L66.1199 101.082L71.7481 138.483C71.9941 140.147 68.5651 140.422 68.5217 138.686Z" fill="#CCCCCC"/>
<path d="M66.4812 69.4685C63.9637 68.0217 61.7645 69.1357 61.3015 71.2047L56.5848 102.587C56.035 104.41 59.2325 104.612 59.71 103.426L64.4267 72.0728C64.745 72.1597 64.094 71.8124 79.228 80.5658L80.5012 77.5564L66.4812 69.4685Z" fill="#808080"/>
<path d="M96.5471 124.145L90.9189 86.7438L90.9044 86.5847C90.5861 84.6314 89.1103 82.5335 87.3162 81.5062L80.4871 77.5708L79.2139 80.5802L85.6957 84.3131C86.6362 84.8484 87.4898 86.0493 87.6924 87.0476L93.3062 124.362C93.364 126.098 96.7931 125.823 96.5471 124.145Z" fill="#CCCCCC"/>
<path d="M89.5586 83.5319L63.2839 98.6948C61.7358 99.5919 59.2183 99.5919 57.6701 98.6948L36.4883 86.469C34.9402 85.5719 35.3308 84.7472 35.3308 83.3004L62.763 68.0506C64.3112 67.1535 66.8287 67.1535 68.3768 68.0506L90.7161 80.3777C90.7306 81.8246 91.1068 82.6348 89.5586 83.5319Z" fill="#453535"/>
<path d="M89.5588 81.9982L63.2841 97.1612C61.736 98.0582 59.2184 98.0582 57.6703 97.1612L36.4885 84.9353C34.9404 84.0383 34.9404 82.5914 36.4885 81.6944L62.7632 66.5314C64.3114 65.6344 66.8289 65.6344 68.377 66.5314L89.5588 78.7573C91.107 79.6543 91.107 81.1012 89.5588 81.9982Z" fill="#BA8254"/>
<path d="M69.9684 53.7413L82.7441 61.1202C84.4948 62.133 87.3451 62.133 89.0957 61.1202L95.6355 57.3439C97.3862 56.3311 96.9521 55.4341 96.9521 53.4953L53.4454 29.304C49.8862 27.2495 44.1133 27.2495 40.5396 29.304L0.10021 52.8008C0.10021 55.5932 -0.796835 56.4903 2.77688 58.5448L19.3143 68.094C22.8736 70.1485 28.6465 70.1485 32.2202 68.094L57.077 53.7413C60.6363 51.6867 66.4092 51.6867 69.9684 53.7413Z" fill="#453535"/>
<path d="M69.9684 51.7156L82.7441 59.0945C84.4948 60.1073 87.345 60.1073 89.0957 59.0945L95.6355 55.3183C97.3862 54.3055 97.3862 52.6561 95.6355 51.6433L53.4454 27.2784C49.8862 25.2239 44.1133 25.2239 40.5396 27.2784L2.77685 49.0824C-0.782389 51.1369 -0.782389 54.4791 2.77685 56.5336L19.3143 66.0828C22.8736 68.1373 28.6465 68.1373 32.2202 66.0828L57.077 51.7301C60.6363 49.6611 66.4092 49.6611 69.9684 51.7156Z" fill="#BA8254"/>
<path d="M58.1189 30.3168C55.6737 28.3636 56.7155 29.0002 51.6226 26.584C50.3638 25.9329 49.8574 26.4827 50.5085 26.9746L48.917 26.2946C47.7161 25.8027 47.0795 26.3236 48.1357 27.1049L51.1885 29.0581L46.3705 26.8155C45.1262 26.1933 44.75 27.1048 45.8062 27.7559L49.8574 30.23L44.9671 28.19C43.9977 27.8572 43.5202 28.7253 44.3594 29.2896C51.0294 33.3408 52.592 34.0931 50.1034 34.7153C50.1034 34.7153 47.1373 34.6285 46.3705 34.9757C45.1407 35.54 45.6905 36.4949 46.7178 36.4949C46.7178 36.4949 49.4957 36.5962 50.8702 36.7843C52.2447 36.9723 55.0082 36.7843 55.0082 36.7843L58.8423 34.1944L58.1189 30.3168Z" fill="#FCB58D"/>
<path d="M58.3212 28.0308C58.3212 27.8861 57.9305 25.3541 57.9305 25.3541C57.9305 25.3541 58.3646 23.9941 57.3518 23.4588C56.3245 22.9234 49.9584 19.5089 52.9244 7.0081C52.9244 7.0081 56.6718 -2.43981 63.6311 1.40881C70.5904 5.25742 71.9505 8.51282 71.473 11.638C70.9811 14.7487 69.1725 21.7515 69.1725 21.7515L68.8542 24.732L58.3212 28.0308Z" fill="#FCB58D"/>
<path d="M75.4084 25.3542L76.6672 23.0682C76.6672 23.0682 83.6699 21.8528 86.1585 28.4649C86.1585 28.4649 87.2871 30.5339 87.2292 33.1237C87.1858 35.6991 87.3449 37.0447 87.2003 38.1154C85.7679 48.2433 83.4529 45.4509 78.8519 48.6918L75.4084 25.3542Z" fill="white"/>
<path d="M63.1969 94.499L63.8336 100.171C63.8336 100.171 65.2081 103.903 64.4846 107.159C64.4846 107.159 63.8336 109.749 59.2905 108.591C59.2905 108.591 58.0751 108.143 56.6717 107.101C55.2682 106.059 52.7362 106.392 51.8247 105.871C50.9132 105.35 47.6144 103.6 48.6417 100.098C49.6834 96.5969 54.8776 97.8846 54.8776 97.8846L63.1969 94.499Z" fill="#1A1A1A"/>
<path d="M40.0764 102.138L41.7693 108.244C41.7693 108.244 43.5778 111.63 42.3191 114.596C41.3207 116.954 39.0347 117.431 33.9852 116.028C30.6285 115.102 27.3297 114.596 27.3297 114.596C27.3297 114.596 18.8512 113.945 18.4027 108.881C18.4027 108.881 18.1423 106.349 21.0649 105.958C23.9875 105.567 30.9324 104.728 30.9324 104.728L33.0737 100.952L40.0764 102.138Z" fill="#1A1A1A"/>
<path d="M75.7847 79.1769C65.4977 86.0928 64.2678 89.4639 43.1583 80.3778C42.2324 79.9726 41.4366 79.6109 40.7276 79.2926C38.5574 78.2943 37.4867 77.6866 37.4867 77.6866C37.4867 77.6866 43.4477 97.1756 40.8434 106.262C40.8434 106.262 39.2663 108.013 36.5752 108.013C34.8679 108.013 32.7266 107.304 30.2669 105.032C30.2669 105.032 23.9587 71.2916 23.7272 69.7C23.0761 65.0846 25.8107 61.3807 30.6142 61.3951C33.45 61.3951 57.1494 65.0991 57.2217 65.1714C57.2362 65.1714 57.6123 65.2293 57.6123 65.2293L78.1142 62.9143C78.1142 62.9143 78.6061 63.8982 79.098 65.4029C80.2555 68.9621 81.3262 75.444 75.7847 79.1769Z" fill="#732056"/>
<path opacity="0.6" d="M57.7426 67.3994C53.4599 65.8079 48.8734 66.8641 46.1533 70.9442C44.6052 73.3025 42.2613 77.7299 43.1439 80.3921C42.2324 80.0014 41.4221 79.6397 40.7276 79.307C38.5574 78.3086 37.4867 77.701 37.4867 77.701C37.4867 77.701 43.4477 97.19 40.8434 106.276C40.8434 106.276 39.2663 108.027 36.5752 108.027C34.8679 108.027 32.7266 107.318 30.2669 105.046C30.2669 105.046 23.9587 71.3059 23.7272 69.7144C23.0761 65.0989 25.8107 61.395 30.6142 61.4095C32.6398 61.4095 43.332 63.0155 50.6385 64.144C50.653 64.144 57.2072 65.1568 57.2217 65.1857C57.3374 65.996 57.5111 66.7483 57.7426 67.3994Z" fill="#732056"/>
<path d="M62.7339 74.8363C64.5714 82.2007 66.1195 93.79 64.4267 99.6931C64.4267 99.6931 60.4623 103.846 53.8502 98.7816C53.8502 98.7816 51.2604 85.3404 48.2075 74.3444L62.7339 74.8363Z" fill="#732056"/>
<path d="M81.7598 36.4225C81.89 45.0457 79.1121 56.4902 79.1121 65.4173C76.4354 68.528 64.3977 77.1078 56.686 73.4328C51.2024 70.814 51.0722 59.4563 51.839 53.4808C51.839 53.4808 47.9326 47.6211 50.696 39.9528C50.9999 39.1136 51.3905 38.2455 51.8535 37.3774C52.7216 35.7859 55.1089 32.4871 56.686 30.5917L69.9536 23.7626L76.6814 23.0826C76.6669 23.0681 81.6296 27.7993 81.7598 36.4225Z" fill="#732056"/>
<path d="M69.1579 21.737L70.5758 23.6902C70.5758 23.6902 70.3299 25.9039 68.2464 27.264C66.1629 28.624 58.9866 29.3908 58.9866 29.3908L56.6716 30.5772L57.9304 25.3686C62.488 25.6724 66.9442 24.5294 69.1579 21.737Z" fill="white"/>
<path d="M73.6577 12.4049C72.7317 17.6569 71.6032 21.3319 69.4619 22.9813C67.3205 24.6162 62.271 23.372 61.1425 22.6341C58.8565 21.1293 59.6812 18.3948 58.4224 17.5701C57.7279 17.1216 57.3518 17.9173 57.3518 17.9173C57.3518 17.9173 54.8053 16.6007 54.9934 14.2713C55.1815 11.9274 53.3006 11.4355 53.1559 11.1461C53.0112 10.8567 50.3924 7.6158 52.5338 4.15784C56.8888 -2.85937 76.1174 -1.55721 73.6577 12.4049Z" fill="#4D1B0B"/>
<path d="M59.6234 19.5957C59.6958 19.0459 59.5511 18.4816 59.2907 17.9897C59.0302 17.4978 58.6396 17.0493 58.1477 16.8178C57.6413 16.5863 57.0047 16.5863 56.5561 16.919C56.1221 17.2374 55.934 17.7872 55.8761 18.308C55.7893 19.3497 56.3391 20.8689 57.3808 21.3175C58.3358 21.737 59.4932 20.4928 59.6234 19.5957Z" fill="#FCB58D"/>
<path d="M68.5217 138.686L62.9079 101.371C62.7053 100.359 61.8517 99.1722 60.9113 98.6369C60.6364 98.4778 39.9464 86.4979 39.6281 86.411L34.9114 117.764C34.434 118.951 31.2364 118.748 31.7862 116.925L36.503 85.5429C36.9659 83.4595 39.1652 82.3599 41.6827 83.8067L62.5173 95.8445C64.2969 96.8717 65.7727 98.9697 66.1054 100.923L66.1199 101.082L71.7481 138.483C71.9941 140.147 68.5651 140.422 68.5217 138.686Z" fill="#CCCCCC"/>
<path d="M96.5471 124.145L90.9189 86.7438L90.9044 86.5847C90.5861 84.6314 89.1103 82.5335 87.3162 81.5062L80.4871 77.5708L79.2139 80.5802L85.6957 84.3131C86.6362 84.8484 87.4898 86.0493 87.6924 87.0476L93.3062 124.362C93.364 126.098 96.7931 125.823 96.5471 124.145Z" fill="#CCCCCC"/>
<path d="M89.5586 83.5319L63.2839 98.6948C61.7358 99.5919 59.2183 99.5919 57.6701 98.6948L36.4883 86.469C34.9402 85.5719 35.3308 84.7472 35.3308 83.3004L62.763 68.0506C64.3112 67.1535 66.8287 67.1535 68.3768 68.0506L90.7161 80.3777C90.7306 81.8246 91.1068 82.6348 89.5586 83.5319Z" fill="#453535"/>
<path d="M89.5588 81.9982L63.2841 97.1612C61.736 98.0582 59.2184 98.0582 57.6703 97.1612L36.4885 84.9353C34.9404 84.0383 34.9404 82.5914 36.4885 81.6944L62.7632 66.5314C64.3114 65.6344 66.8289 65.6344 68.377 66.5314L89.5588 78.7573C91.107 79.6543 91.107 81.1012 89.5588 81.9982Z" fill="#BA8254"/>
<path d="M75.7848 79.1768C69.1727 83.6186 64.2823 88.6247 53.9085 84.4867C53.8795 84.4723 53.8361 84.4578 53.7927 84.4433C52.042 83.8067 42.898 80.1173 40.7277 79.2926C40.6843 79.2636 50.6096 64.1441 50.6241 64.1296C51.4343 64.2454 57.2073 65.1569 57.2073 65.1569C57.2217 65.1569 57.5979 65.2147 57.5979 65.2147L78.0997 62.8998C78.0997 62.8998 78.5917 63.8836 79.0836 65.3884C80.2555 68.9621 81.3262 75.4439 75.7848 79.1768Z" fill="#51143E"/>
<path d="M46.1535 70.9443C44.6053 73.3027 42.2615 77.73 43.144 80.3922C42.2325 80.0016 41.4223 79.6399 40.7278 79.3071C40.6844 79.2637 46.1535 70.9443 46.1535 70.9443Z" fill="#51143E"/>
<path d="M57.7425 67.3995C53.6769 65.8948 49.0759 66.734 46.3269 70.6839L50.6385 64.1296C51.4487 64.2454 57.2217 65.1569 57.2217 65.1569C57.2217 65.4029 57.4532 66.6327 57.7425 67.3995Z" fill="#51143E"/>
<path d="M51.5498 60.4692C51.709 65.4319 52.7362 71.5376 56.6861 73.4185C64.3978 77.1079 76.4356 68.5281 79.1122 65.4029C79.0978 63.8693 79.1846 62.2054 79.3293 60.4547H51.5498V60.4692Z" fill="#51143E"/>
<path d="M58.5818 48.6917C57.6124 53.1769 56.1077 62.9866 57.7427 67.3994C57.6124 67.356 55.1817 66.4011 52.3315 66.8352C51.3476 62.7985 51.3476 57.2136 51.8395 53.4663C51.8395 53.4663 47.933 47.6066 50.6965 39.9383L55.8762 40.9656L58.5818 48.6917Z" fill="#51143E"/>
<path d="M93.9424 45.0602C94.0148 45.1036 92.3943 44.0329 92.3943 44.0329C91.3091 43.324 89.7032 43.4108 87.8657 44.4814L72.4423 53.394C68.9264 55.4196 65.8881 60.2231 65.671 64.1152C65.3961 68.7885 66.0183 68.774 68.6371 70.4957C68.5937 70.4668 68.5647 70.4379 68.5213 70.3945C69.6065 71.2047 71.2559 71.1468 73.1802 70.0472L88.6035 61.1347C92.1194 59.1091 95.1578 54.3055 95.3748 50.4135L95.4616 48.9233C95.5484 47.0134 94.9697 45.6823 93.9424 45.0602Z" fill="#453535"/>
<path d="M74.0483 54.4503C70.5324 56.4758 67.4941 61.2794 67.277 65.1714L67.1902 66.6616C66.9587 70.5537 69.6354 72.0584 73.1512 70.0328L88.5746 61.1202C92.0905 59.0946 95.1288 54.2911 95.3459 50.3991L95.4327 48.9088C95.6642 45.0168 92.9875 43.4976 89.4717 45.5377L74.0483 54.4503Z" fill="#BA8254"/>
<path d="M69.3605 97.711C69.2592 97.711 69.1579 97.6966 69.0711 97.6821C68.3188 97.5229 67.8413 96.785 68.0149 96.0327L74.3666 66.6328C74.7428 64.665 75.9726 62.8999 77.7233 61.8582L84.2341 57.9661C85.1166 57.4308 86.2307 57.4308 87.1133 57.9661C87.9959 58.5015 88.5312 59.4709 88.4733 60.5126L86.6792 86.5992C86.6214 87.3661 85.9703 87.9448 85.2035 87.8869C84.4366 87.8291 83.8579 87.178 83.9158 86.4111L85.7243 60.3534C79.0399 64.3178 77.5641 64.694 77.0866 67.197L70.7205 96.6259C70.5758 97.2625 69.9971 97.711 69.3605 97.711Z" fill="#CCCCCC"/>
<path d="M43.1584 28.2479C42.2035 28.5083 41.3209 28.8411 40.5396 29.3041L0.10021 52.8009C0.10021 55.5933 -0.796835 56.4903 2.77688 58.5448L19.3143 68.094C22.8736 70.1485 28.6465 70.1485 32.2202 68.094L43.1728 61.7713V28.2479H43.1584Z" fill="#453535"/>
<path d="M43.1584 26.2222C42.2034 26.4827 41.3209 26.8154 40.5396 27.2784L2.77685 49.0824C-0.782389 51.1369 -0.782389 54.4791 2.77685 56.5337L19.3143 66.0829C22.8736 68.1374 28.6465 68.1374 32.2202 66.0829L43.1728 59.7601V26.2222H43.1584Z" fill="#BA8254"/>
<path d="M38.6153 34.7875L28.0677 40.083L27.8218 40.1987L45.9218 50.7318L46.1678 50.6016L56.7153 45.3206L38.6153 34.7875Z" fill="#C7363B"/>
<path d="M27.8214 40.1987C27.5899 40.3289 27.4018 40.6328 27.3729 40.9222L27.344 41.1971C27.344 41.2549 27.3006 41.2983 27.2572 41.3273L25.2894 42.4703C25.2316 42.4703 43.3461 53.0033 43.3461 53.0033C43.404 53.0033 45.3861 51.8603 45.3861 51.8603C45.4296 51.8314 45.4585 51.7735 45.473 51.7301L45.5019 51.4552C45.5308 51.1803 45.7189 50.862 45.9504 50.7318L27.8214 40.1987Z" fill="#661C1E"/>
<path d="M42.9558 53.2348L42.9268 52.9744C42.8979 52.931 24.7979 42.4124 24.7979 42.4124C24.8268 42.4558 24.8557 42.7163 24.8557 42.7163C24.8702 42.8175 24.9136 42.9043 24.9859 42.9333L43.1005 53.4519C43.0137 53.4229 42.9702 53.3361 42.9558 53.2348Z" fill="#661C1E"/>
<path d="M25.0436 41.9639L43.1581 52.4825C43.0858 52.4391 42.97 52.4391 42.8543 52.5114L24.7397 41.9928C24.8555 41.9205 24.9712 41.9205 25.0436 41.9639Z" fill="#661C1E"/>
<path d="M24.7398 41.9928L19.3864 45.4797L13.9463 49.0245L32.0608 59.5575L37.501 55.9983L42.8543 52.5114L24.7398 41.9928Z" fill="#C7363B"/>
<path d="M46.1679 50.6015L45.9219 50.7318C45.6904 50.862 45.5023 51.1658 45.4734 51.4552L45.4445 51.7301C45.4445 51.788 45.401 51.8314 45.3576 51.8603L43.3899 53.0033C43.3465 53.0323 43.3176 53.0178 43.3031 52.9744L43.2742 52.7139C43.2452 52.4824 43.0572 52.3956 42.8401 52.5259L37.4868 56.0128L32.0467 59.572L13.9321 49.0534L13.9611 49.4585L32.0756 59.9771L42.8257 52.9599C42.8691 52.931 42.898 52.9454 42.9125 52.9888L42.9414 53.2493C42.9703 53.4808 43.1584 53.5676 43.3899 53.4374L45.3576 52.2944C45.5891 52.1641 45.7772 51.8458 45.8062 51.5709L45.8351 51.296C45.8351 51.2526 45.8785 51.1948 45.9219 51.1658L56.6865 45.7691L56.7154 45.335L46.1679 50.6015Z" fill="#FF8084"/>
<path d="M44.0264 50.4858L26.5774 40.3434C26.8957 39.2149 27.8651 38.3468 29.1672 37.5944C31.5111 36.2489 34.9402 35.2795 37.6747 33.876L55.1237 44.0184C52.3891 45.4074 48.9601 46.3768 46.6162 47.7368C45.2996 48.4892 44.3447 49.3573 44.0264 50.4858Z" fill="#F7EEE1"/>
<path d="M32.2778 58.8341L14.8433 48.6917L15.2339 46.9266L32.6684 57.069L32.2778 58.8341Z" fill="#F7EEE1"/>
<path d="M43.7225 50.0228L26.288 39.8804C25.8539 39.6345 25.0437 39.9238 24.002 40.5315C21.6436 41.8916 18.1133 44.8721 15.2485 46.9266L32.6975 57.069C35.5623 55.0145 39.0926 52.034 41.4509 50.6739C42.4782 50.0662 43.3029 49.7769 43.7225 50.0228Z" fill="#FFF5E8"/>
<path d="M41.4364 50.6739C42.8543 49.8637 43.8381 49.6177 44.0262 50.4858C44.3445 49.3573 45.3139 48.4892 46.6161 47.7368C48.96 46.3913 52.389 45.4219 55.1235 44.0184L55.8325 45.2338L45.8203 50.2688L45.5888 50.3846C45.2995 50.1241 44.7062 50.2833 44.113 50.6305C43.433 51.0212 42.7385 51.6578 42.4926 52.1786L37.1392 55.6655L32.2778 58.8341L32.6685 57.069C35.5477 55 39.078 52.034 41.4364 50.6739Z" fill="#EBD2B4"/>
<path d="M37.9495 51.2527C37.9061 51.2527 37.8627 51.2382 37.8482 51.1948C37.8048 51.1369 37.8193 51.0501 37.8772 51.0212L38.0074 50.9344C38.9768 50.2399 39.9896 49.5164 41.1181 49.1113C41.1905 49.0824 41.2628 49.1258 41.2773 49.1837C41.3062 49.256 41.2628 49.3283 41.2049 49.3428C40.1053 49.7335 39.1215 50.4424 38.1521 51.1369L38.0219 51.2237C38.0074 51.2382 37.9785 51.2527 37.9495 51.2527Z" fill="#333333"/>
<path d="M32.1043 55.68C32.0609 55.68 32.032 55.6656 32.003 55.6222C31.9596 55.5643 31.9741 55.4775 32.032 55.4485C32.8277 54.8553 33.6235 54.2476 34.3903 53.6544C35.2295 53.0178 36.0831 52.3523 36.9512 51.7157C37.0091 51.6723 37.0959 51.6867 37.1249 51.7446C37.1683 51.8025 37.1538 51.8893 37.0959 51.9182C36.2423 52.5548 35.3742 53.2204 34.5495 53.857C33.7826 54.4502 32.9724 55.0724 32.1766 55.6656C32.1622 55.6656 32.1332 55.68 32.1043 55.68Z" fill="#333333"/>
<path d="M43.3028 48.4169C43.1581 48.33 43.1581 48.2577 43.2016 48.1998C43.5488 47.8092 43.9829 47.4475 44.5182 47.1002C44.5761 47.0568 44.6629 47.0713 44.6918 47.1436C44.7352 47.2015 44.7207 47.2883 44.6484 47.3173C44.1275 47.6645 43.7079 48.0117 43.3752 48.3734C43.3752 48.4024 43.3462 48.4169 43.3028 48.4169Z" fill="#333333"/>
<path d="M45.4874 46.8108C45.444 46.8108 45.4006 46.7818 45.3716 46.7384C45.3427 46.6805 45.3572 46.5937 45.4295 46.5648C46.6738 45.8992 47.976 45.3784 49.2203 44.9009C49.2926 44.872 49.3649 44.9009 49.3794 44.9733C49.4083 45.0456 49.3794 45.1179 49.3071 45.1324C48.0772 45.6099 46.7751 46.1307 45.5453 46.7818C45.5308 46.8108 45.5019 46.8108 45.4874 46.8108Z" fill="#333333"/>
<path d="M50.1752 44.7852C50.1173 44.7852 50.0739 44.7562 50.0594 44.6984C50.0305 44.626 50.0594 44.5537 50.1318 44.5248C50.9131 44.2209 51.7522 43.8881 52.5625 43.5264C52.6203 43.4975 52.7072 43.5264 52.7361 43.5843C52.765 43.6422 52.7361 43.729 52.6782 43.7579C51.868 44.1196 51.0143 44.4669 50.233 44.7707C50.2041 44.7852 50.1896 44.7852 50.1752 44.7852Z" fill="#333333"/>
<path d="M33.0157 53.5676C32.9723 53.5676 32.9433 53.5531 32.9144 53.5242C32.871 53.4663 32.8855 53.394 32.9433 53.3506C33.4208 52.9889 33.8983 52.5982 34.3902 52.1931C36.1698 50.7463 38.0073 49.256 40.0763 48.5037C40.1486 48.4747 40.221 48.5181 40.2354 48.576C40.2644 48.6483 40.221 48.7207 40.1631 48.7352C38.152 49.4586 36.329 50.9488 34.5638 52.3812C34.0574 52.7863 33.5799 53.177 33.1025 53.5387C33.0591 53.5676 33.0301 53.5676 33.0157 53.5676Z" fill="#333333"/>
<path d="M31.0479 55.0578C31.0045 55.0578 30.9756 55.0433 30.9466 54.9999C30.9032 54.942 30.9177 54.8552 30.9756 54.8263C31.3373 54.5514 31.7135 54.2765 32.0752 54.0016C32.133 53.9582 32.2054 53.9726 32.2488 54.0305C32.2922 54.0884 32.2777 54.1607 32.2198 54.2041C31.8581 54.479 31.4964 54.7539 31.1202 55.0288C31.0913 55.0578 31.0768 55.0578 31.0479 55.0578Z" fill="#333333"/>
<path d="M42.2464 47.8091C42.1018 47.7368 42.1018 47.6499 42.1452 47.5921C42.5937 47.1001 43.1869 46.6227 43.9971 46.1597C45.2559 45.4363 46.804 44.8286 48.4389 44.1775C49.4517 43.7724 50.5079 43.3673 51.4918 42.9188C51.5497 42.8898 51.6365 42.9188 51.6654 42.9766C51.6943 43.0345 51.6654 43.1213 51.6075 43.1503C50.6237 43.5988 49.5675 44.0184 48.5402 44.409C46.9053 45.0456 45.3716 45.6533 44.1273 46.3623C43.346 46.8108 42.7673 47.2593 42.3333 47.7368C42.3188 47.7946 42.2754 47.8091 42.2464 47.8091Z" fill="#333333"/>
<path d="M35.6055 50.1965C35.5621 50.1965 35.5332 50.182 35.5042 50.1386C35.4608 50.0807 35.4753 49.9939 35.5332 49.965L35.7357 49.8203C36.763 49.0824 37.8192 48.3156 39.0056 47.8815C39.078 47.8526 39.1503 47.896 39.1648 47.9539C39.1937 48.0262 39.1503 48.0986 39.0924 48.113C37.9349 48.5326 36.8932 49.285 35.8804 50.0229L35.6779 50.1675C35.6634 50.182 35.6345 50.1965 35.6055 50.1965Z" fill="#333333"/>
<path d="M29.9918 54.4502C29.9483 54.4502 29.9194 54.4357 29.8905 54.3923C29.8471 54.3344 29.8615 54.2621 29.9194 54.2187C30.7152 53.6254 31.5109 53.0033 32.2922 52.4101C33.088 51.8024 33.8982 51.1658 34.7229 50.5581C34.7808 50.5147 34.8676 50.5292 34.8966 50.5871C34.94 50.6449 34.9255 50.7173 34.8676 50.7607C34.0574 51.3684 33.2327 51.9905 32.4369 52.6127C31.6556 53.2059 30.8599 53.828 30.0641 54.4212C30.0352 54.4502 30.0207 54.4502 29.9918 54.4502Z" fill="#333333"/>
<path d="M41.6388 46.7385C41.4941 46.6517 41.4942 46.5649 41.552 46.5215C43.2014 44.9878 45.3428 44.2354 47.4118 43.512C48.2365 43.2227 49.0756 42.9188 49.8714 42.586C49.9293 42.5571 50.0161 42.586 50.045 42.6584C50.074 42.7307 50.045 42.8031 49.9727 42.832C49.1769 43.1792 48.3233 43.4831 47.4986 43.7725C45.444 44.4959 43.3316 45.2482 41.7256 46.7385C41.6967 46.724 41.6678 46.7385 41.6388 46.7385Z" fill="#333333"/>
<path d="M29.6589 53.2926C29.6155 53.2926 29.5721 53.2782 29.5576 53.2348C29.5142 53.1769 29.5287 53.0901 29.601 53.0611C30.5993 52.41 31.5543 51.6143 32.4802 50.833C34.1441 49.444 35.8659 48.0116 37.9493 47.2737C38.0217 47.2448 38.094 47.2882 38.1085 47.3461C38.1374 47.4184 38.094 47.4908 38.0361 47.5052C35.9816 48.2142 34.2888 49.6466 32.6394 51.0211C31.699 51.8024 30.744 52.6126 29.7312 53.2637C29.7023 53.2926 29.6734 53.2926 29.6589 53.2926Z" fill="#333333"/>
<path d="M40.1341 46.5793C39.9894 46.507 39.9894 46.4202 40.0329 46.3623C40.4814 45.8559 41.0891 45.3929 41.8848 44.9299C43.1436 44.2065 44.6917 43.5988 46.3266 42.9477C47.3394 42.5426 48.3956 42.1375 49.3795 41.689C49.4374 41.66 49.5242 41.689 49.5531 41.7468C49.582 41.8047 49.5531 41.8915 49.4952 41.9205C48.5114 42.369 47.4552 42.7886 46.4279 43.1792C44.793 43.8158 43.2593 44.4235 42.015 45.1325C41.2337 45.581 40.655 46.0295 40.2209 46.507C40.2065 46.5648 40.1631 46.5793 40.1341 46.5793Z" fill="#333333"/>
<path d="M33.6089 48.8943C33.5655 48.8943 33.5221 48.8798 33.5077 48.8364C33.4643 48.7785 33.4787 48.6917 33.5366 48.6628L33.6958 48.547C34.6941 47.8236 35.7358 47.0857 36.8933 46.6661C36.9656 46.6372 37.038 46.6806 37.0524 46.7385C37.0814 46.8108 37.038 46.8832 36.9801 46.8976C35.8516 47.3027 34.8388 48.0406 33.8549 48.7496L33.6958 48.8653C33.6668 48.8798 33.6379 48.8943 33.6089 48.8943Z" fill="#333333"/>
<path d="M27.8648 53.2348C27.8214 53.2348 27.7925 53.2204 27.7635 53.1769C27.7201 53.1191 27.7346 53.0323 27.7925 53.0033C28.5882 52.4101 29.384 51.788 30.1653 51.1948C30.9611 50.5871 31.7713 49.9505 32.596 49.3428C32.6539 49.2994 32.7262 49.3139 32.7696 49.3717C32.813 49.4296 32.7985 49.5164 32.7407 49.5454C31.9304 50.153 31.1057 50.7752 30.31 51.3973C29.5287 51.9905 28.7329 52.6127 27.9371 53.2059C27.9227 53.2204 27.8937 53.2348 27.8648 53.2348Z" fill="#333333"/>
<path d="M39.078 45.9716C38.9333 45.8992 38.9333 45.8124 38.9767 45.7546C39.4252 45.2626 40.0329 44.7852 40.8287 44.3222C42.0874 43.5988 43.6355 42.9911 45.2705 42.34C46.2833 41.9349 47.3395 41.5298 48.3233 41.0812C48.3812 41.0523 48.468 41.0812 48.497 41.1391C48.5259 41.197 48.497 41.2838 48.4391 41.3127C47.4552 41.7613 46.399 42.1808 45.3718 42.5715C43.7368 43.2081 42.2032 43.8158 40.9589 44.5247C40.1776 44.9733 39.5988 45.4218 39.1648 45.8992C39.1503 45.9571 39.1069 45.9716 39.078 45.9716Z" fill="#333333"/>
<path d="M29.3987 50.645C29.3553 50.645 29.3264 50.6305 29.2975 50.6016C29.254 50.5437 29.2685 50.4713 29.3264 50.4279C29.717 50.1241 30.1222 49.8058 30.5273 49.473C32.1911 48.1419 33.9129 46.753 35.8227 46.0585C35.8951 46.0295 35.9674 46.0729 35.9819 46.1308C36.0108 46.2032 35.9674 46.2755 35.9095 46.29C34.0286 46.97 32.3214 48.33 30.6864 49.6611C30.2813 49.9939 29.8762 50.3122 29.4711 50.616C29.4566 50.645 29.4277 50.645 29.3987 50.645Z" fill="#333333"/>
<path d="M26.8089 52.6127C26.7655 52.6127 26.7365 52.5982 26.7076 52.5548C26.6642 52.4969 26.6787 52.4101 26.7365 52.3812C27.3732 51.9037 27.9953 51.4263 28.574 50.9922C28.6319 50.9488 28.7043 50.9633 28.7477 51.0212C28.7911 51.079 28.7766 51.1514 28.7187 51.1948C28.14 51.6433 27.5178 52.1208 26.8812 52.5982C26.8668 52.6127 26.8378 52.6127 26.8089 52.6127Z" fill="#333333"/>
<path d="M38.6005 44.7997C38.5571 44.7997 38.5281 44.7852 38.4992 44.7563C38.4558 44.6984 38.4558 44.626 38.5137 44.5682C39.2516 43.9605 40.1341 43.4107 41.2193 42.9043C41.2771 42.8754 41.364 42.9043 41.3929 42.9622C41.4218 43.02 41.3929 43.1069 41.335 43.1358C40.2788 43.6422 39.4107 44.1775 38.6873 44.7707C38.6584 44.7852 38.6294 44.7997 38.6005 44.7997Z" fill="#333333"/>
<path d="M42.203 42.7306C42.1596 42.7306 42.1017 42.7017 42.0873 42.6583C42.0583 42.586 42.0873 42.5136 42.1596 42.4847C42.912 42.1664 43.6788 41.8915 44.4167 41.6166C45.3571 41.2693 46.341 40.9076 47.267 40.488C47.3248 40.4591 47.4117 40.488 47.4406 40.5459C47.4695 40.6038 47.4406 40.6906 47.3827 40.7195C46.4423 41.1391 45.4584 41.5153 44.5035 41.8625C43.7656 42.1374 42.9988 42.4268 42.2464 42.7306C42.2464 42.7306 42.2175 42.7306 42.203 42.7306Z" fill="#333333"/>
<path d="M25.7525 52.005C25.7091 52.005 25.6802 51.9906 25.6512 51.9471C25.6078 51.8893 25.6223 51.8169 25.6802 51.7735C26.447 51.1948 27.2717 50.5726 28.053 49.965C30.0062 48.4602 32.0318 46.9121 33.5365 46.0295C34.014 45.7546 34.4191 45.5521 34.7664 45.4363C34.8387 45.4074 34.911 45.4508 34.9255 45.5087C34.9544 45.581 34.911 45.6534 34.8532 45.6678C34.5204 45.7836 34.1297 45.9717 33.6667 46.2466C32.162 47.1147 30.1509 48.6628 28.2121 50.1531C27.4164 50.7607 26.6061 51.3829 25.8248 51.9616C25.8104 52.005 25.7814 52.005 25.7525 52.005Z" fill="#333333"/>
<path d="M36.951 44.7563C36.8063 44.6694 36.8063 44.5971 36.8497 44.5392C38.2966 42.9188 40.5826 42.0796 42.6082 41.3272C43.0423 41.1681 43.4618 41.0089 43.8525 40.8498C43.9248 40.8208 43.9972 40.8498 44.0261 40.9221C44.055 40.9945 44.0261 41.0668 43.9538 41.0957C43.5486 41.2549 43.1291 41.414 42.695 41.5732C40.6984 42.3111 38.4413 43.1503 37.0378 44.7129C37.0234 44.7418 36.9944 44.7563 36.951 44.7563Z" fill="#333333"/>
<path d="M44.8073 40.7485C44.7494 40.7485 44.706 40.7195 44.6915 40.6617C44.6626 40.5893 44.6915 40.517 44.7639 40.488C45.3137 40.271 45.7911 40.0685 46.2252 39.8659C46.283 39.837 46.3699 39.8659 46.3988 39.9238C46.4277 39.9817 46.3988 40.0685 46.3409 40.0974C45.9069 40.3 45.4149 40.5025 44.8796 40.7195C44.8362 40.7485 44.8217 40.7485 44.8073 40.7485Z" fill="#333333"/>
<path d="M30.209 47.2304C30.1656 47.2304 30.1367 47.2159 30.1078 47.1725C30.0644 47.1146 30.0788 47.0278 30.1367 46.9989L30.3682 46.8253C31.4244 46.0584 32.5095 45.2627 33.7249 44.8286C33.7972 44.7997 33.8696 44.8431 33.884 44.9009C33.913 44.9733 33.8696 45.0456 33.8117 45.0601C32.6253 45.4942 31.5546 46.261 30.5129 47.0278L30.2814 47.2014C30.2524 47.2159 30.238 47.2304 30.209 47.2304Z" fill="#333333"/>
<path d="M24.6966 51.3973C24.6532 51.3973 24.6242 51.3828 24.5953 51.3394C24.5519 51.2816 24.5664 51.1948 24.6242 51.1658C25.42 50.5726 26.2302 49.9505 27.0115 49.3573C27.7205 48.8075 28.4584 48.2432 29.1818 47.6934C29.2397 47.65 29.312 47.6645 29.3554 47.7223C29.3988 47.7802 29.3844 47.8525 29.3265 47.8959C28.6031 48.4457 27.8652 49.01 27.1562 49.5598C26.3749 50.153 25.5647 50.7752 24.7689 51.3828C24.7545 51.3973 24.7255 51.3973 24.6966 51.3973Z" fill="#333333"/>
<path d="M35.8951 44.1341C35.7504 44.0473 35.7504 43.9749 35.7938 43.917C36.7198 42.8753 38.022 42.2387 39.1795 41.7178C39.2518 41.6889 39.3241 41.7178 39.3531 41.7757C39.382 41.8336 39.3531 41.9204 39.2952 41.9493C38.1667 42.4557 36.8934 43.0923 35.9964 44.0907C35.9675 44.1196 35.9385 44.1341 35.8951 44.1341Z" fill="#333333"/>
<path d="M40.0619 41.6022C40.0185 41.6022 39.9606 41.5733 39.9461 41.5298C39.9172 41.4575 39.9461 41.3852 40.0185 41.3562C40.7274 41.0669 41.4509 40.7775 42.1454 40.5026C43.1437 40.1119 44.1709 39.7068 45.1693 39.2583C45.2271 39.2294 45.3139 39.2583 45.3429 39.3162C45.3718 39.374 45.3429 39.4609 45.285 39.4898C44.2867 39.9383 43.2594 40.3434 42.2466 40.7341C41.5521 41.009 40.8287 41.2839 40.1342 41.5877C40.0908 41.6022 40.0764 41.6022 40.0619 41.6022Z" fill="#333333"/>
<path d="M25.8538 49.1113C25.8104 49.1113 25.7815 49.0969 25.7525 49.0679C25.7091 49.0101 25.7236 48.9377 25.7815 48.8943C26.23 48.5471 26.664 48.1998 27.127 47.8236C28.8633 46.4202 30.6573 44.9734 32.654 44.2499C32.7263 44.221 32.7987 44.2644 32.8131 44.3223C32.8421 44.3946 32.7987 44.467 32.7408 44.4814C30.7731 45.1904 29.0079 46.6228 27.2862 48.0117C26.8232 48.3879 26.3747 48.7496 25.9262 49.0969C25.9117 49.0969 25.8827 49.1113 25.8538 49.1113Z" fill="#333333"/>
<path d="M23.6402 50.7897C23.5968 50.7897 23.5678 50.7752 23.5389 50.7318C23.4955 50.6739 23.51 50.5871 23.5678 50.5582C24.0164 50.2254 24.4649 49.8782 24.9134 49.5454C24.9713 49.502 25.0436 49.5164 25.087 49.5743C25.1304 49.6322 25.116 49.7045 25.0581 49.7479C24.6096 50.0952 24.1611 50.428 23.7125 50.7607C23.6981 50.7752 23.6691 50.7897 23.6402 50.7897Z" fill="#333333"/>
<path d="M35.4318 42.9622C35.3884 42.9622 35.3594 42.9477 35.3305 42.9188C35.2871 42.8609 35.2871 42.7886 35.345 42.7452C37.0522 41.3273 39.1791 40.546 41.2192 39.7936L41.7111 39.6055C41.7834 39.5766 41.8558 39.62 41.8702 39.6779C41.8992 39.7502 41.8558 39.8226 41.7979 39.837L41.306 40.0251C39.2804 40.7775 37.1825 41.5443 35.5041 42.9333C35.4897 42.9622 35.4607 42.9622 35.4318 42.9622Z" fill="#333333"/>
<path d="M42.7094 39.5042C42.6516 39.5042 42.6082 39.4753 42.5937 39.4174C42.5647 39.3451 42.6082 39.2727 42.666 39.2582C43.2014 39.0557 43.6788 38.8531 44.0984 38.665C44.1563 38.6361 44.2431 38.665 44.272 38.7229C44.301 38.7808 44.272 38.8676 44.2142 38.8965C43.7801 39.0846 43.3171 39.2872 42.7673 39.5042C42.7384 39.4897 42.7239 39.5042 42.7094 39.5042Z" fill="#333333"/>
<path d="M28.5447 45.6823C28.5013 45.6823 28.4579 45.6679 28.4435 45.6245C28.4 45.5666 28.4145 45.4798 28.4724 45.4508L28.5592 45.3785C29.5141 44.6985 30.498 44.004 31.5976 43.6133C31.6699 43.5844 31.7423 43.6278 31.7567 43.6857C31.7857 43.758 31.7423 43.8304 31.6844 43.8448C30.6137 44.2355 29.6443 44.9155 28.7184 45.581L28.6315 45.6534C28.6026 45.6679 28.5737 45.6823 28.5447 45.6823Z" fill="#333333"/>
<path d="M22.5843 50.182C22.5409 50.182 22.5119 50.1676 22.483 50.1242C22.4396 50.0663 22.4541 49.9795 22.5119 49.9505C23.3077 49.3573 24.1035 48.7497 24.8848 48.142C25.6805 47.5343 26.5052 46.8977 27.3155 46.29C27.3733 46.2466 27.4457 46.2611 27.4891 46.3189C27.5325 46.3768 27.518 46.4492 27.4602 46.4926C26.6499 47.1002 25.8252 47.7369 25.0295 48.3445C24.2626 48.9377 23.4524 49.5599 22.6566 50.1531C22.6422 50.1676 22.6132 50.182 22.5843 50.182Z" fill="#333333"/>
<path d="M33.7828 42.9188C33.6381 42.832 33.6381 42.7597 33.6815 42.7018C34.4918 41.7903 35.5914 41.1971 36.662 40.6762C36.7199 40.6473 36.8067 40.6762 36.8357 40.7341C36.8646 40.792 36.8357 40.8788 36.7778 40.9077C35.7361 41.3996 34.6654 41.9784 33.8841 42.8609C33.8552 42.9044 33.8262 42.9188 33.7828 42.9188Z" fill="#333333"/>
<path d="M37.6747 40.5025C37.6313 40.5025 37.5734 40.4736 37.5589 40.4302C37.53 40.3579 37.5589 40.2855 37.6313 40.2566C38.427 39.9093 39.2518 39.591 40.0475 39.2727C41.0458 38.8821 42.0586 38.477 43.057 38.0429C43.1148 38.014 43.2016 38.0429 43.2306 38.1008C43.2595 38.1587 43.2306 38.2455 43.1727 38.2744C42.1744 38.7229 41.1471 39.128 40.1633 39.5187C39.3675 39.837 38.5428 40.1553 37.747 40.4881C37.7036 40.5025 37.6892 40.5025 37.6747 40.5025Z" fill="#333333"/>
<path d="M24.7398 47.1146C24.6964 47.1146 24.6675 47.1001 24.6385 47.0712C24.5951 47.0133 24.6096 46.941 24.6675 46.8976C24.9858 46.6516 25.3185 46.3912 25.6368 46.1307C27.1705 44.9154 28.762 43.6566 30.5417 43.0055C30.614 42.9766 30.6863 43.02 30.7008 43.0779C30.7297 43.1502 30.6863 43.2226 30.6285 43.237C28.8922 43.8737 27.3152 45.1179 25.796 46.3188C25.4632 46.5793 25.1449 46.8397 24.8121 47.0857C24.7977 47.1146 24.7687 47.1146 24.7398 47.1146Z" fill="#333333"/>
<path d="M21.5279 49.5599C21.4845 49.5599 21.4555 49.5454 21.4266 49.502C21.3832 49.4441 21.3977 49.3573 21.4555 49.3284C22.179 48.793 22.8879 48.2577 23.539 47.7368C23.5969 47.6934 23.6692 47.7079 23.7126 47.7658C23.756 47.8237 23.7416 47.896 23.6837 47.9394C23.0181 48.4458 22.3092 48.9956 21.6002 49.5309C21.5858 49.5599 21.5568 49.5599 21.5279 49.5599Z" fill="#333333"/>
<path d="M32.7262 42.3111C32.5815 42.2243 32.5815 42.152 32.6249 42.0941C32.9432 41.7469 33.3049 41.4141 33.7245 41.1103C33.7824 41.0669 33.8692 41.0813 33.8981 41.1392C33.9415 41.1971 33.9271 41.2839 33.8692 41.3128C33.4641 41.6022 33.1168 41.9205 32.813 42.2677C32.7985 42.2967 32.7696 42.3111 32.7262 42.3111Z" fill="#333333"/>
<path d="M34.6942 40.7485C34.6508 40.7485 34.6074 40.7196 34.5784 40.6907C34.5495 40.6328 34.564 40.546 34.6218 40.517C35.7938 39.837 37.0815 39.3596 38.3258 38.8966C38.7598 38.7374 39.1939 38.5783 39.6279 38.4046C39.7003 38.3757 39.7726 38.4046 39.8016 38.477C39.8305 38.5493 39.8016 38.6217 39.7292 38.6506C39.2952 38.8242 38.8611 38.9834 38.427 39.1425C37.1972 39.6055 35.924 40.0685 34.7665 40.7341C34.7376 40.7485 34.7231 40.7485 34.6942 40.7485Z" fill="#333333"/>
<path d="M40.5829 38.3034C40.5395 38.3034 40.4816 38.2744 40.4671 38.2165C40.4382 38.1442 40.4671 38.0719 40.5395 38.0429C41.0893 37.8259 41.5667 37.6233 42.0008 37.4208C42.0587 37.3918 42.1455 37.4208 42.1744 37.4787C42.2034 37.5365 42.1744 37.6233 42.1165 37.6523C41.6825 37.8548 41.205 38.0574 40.6552 38.2744C40.6118 38.3034 40.5974 38.3034 40.5829 38.3034Z" fill="#333333"/>
<path d="M20.4715 48.9521C20.4281 48.9521 20.3991 48.9376 20.3702 48.8942C20.3268 48.8364 20.3413 48.764 20.3991 48.7206C20.8911 48.3589 21.383 47.9827 21.8894 47.5921C21.9473 47.5487 22.0196 47.5631 22.063 47.621C22.1064 47.6789 22.092 47.7512 22.0341 47.7946C21.5277 48.1853 21.0358 48.5615 20.5438 48.9232C20.5149 48.9521 20.5004 48.9521 20.4715 48.9521Z" fill="#333333"/>
<path d="M22.6995 47.2593C22.6561 47.2593 22.6272 47.2449 22.5982 47.2159C22.5548 47.1581 22.5693 47.0857 22.6272 47.0423L22.7719 46.9266C24.0885 45.9138 25.463 44.8576 26.6639 44.0184C26.7217 43.975 26.8086 43.9895 26.8375 44.0473C26.8809 44.1052 26.8664 44.192 26.8086 44.221C25.6077 45.0457 24.2476 46.1019 22.931 47.1147L22.7863 47.2304C22.7574 47.2449 22.7285 47.2593 22.6995 47.2593Z" fill="#333333"/>
<path d="M27.2718 43.8737C27.2284 43.8737 27.185 43.8592 27.1705 43.8158C27.1271 43.7579 27.1416 43.6711 27.1994 43.6422C27.5756 43.3817 27.9373 43.1647 28.2556 42.9911C28.7331 42.7162 29.1382 42.5136 29.4855 42.3979C29.5578 42.3689 29.6301 42.4123 29.6446 42.4702C29.6735 42.5426 29.6301 42.6149 29.5723 42.6294C29.2395 42.7451 28.8488 42.9477 28.3859 43.2081C28.082 43.3817 27.7203 43.5988 27.3441 43.8592C27.3297 43.8737 27.3007 43.8737 27.2718 43.8737Z" fill="#333333"/>
<path d="M31.67 41.7034C31.5253 41.6166 31.5253 41.5443 31.5687 41.4864C32.5815 40.3579 33.9994 39.6779 35.5042 39.0412C35.562 39.0123 35.6488 39.0412 35.6778 39.1136C35.7067 39.1859 35.6778 39.2583 35.6054 39.2872C34.1441 39.9238 32.7407 40.5749 31.7713 41.6745C31.7424 41.689 31.699 41.7034 31.67 41.7034Z" fill="#333333"/>
<path d="M36.546 38.8676C36.4882 38.8676 36.4447 38.8387 36.4303 38.7808C36.4013 38.7085 36.4303 38.6361 36.5026 38.6072C36.9656 38.4191 37.4141 38.2455 37.8771 38.0574C38.8899 37.6668 39.9316 37.2616 40.93 36.7986C40.9878 36.7697 41.0747 36.7986 41.1036 36.8565C41.1325 36.9144 41.1036 37.0012 41.0457 37.0301C40.0329 37.4931 38.9912 37.8982 37.9784 38.2889C37.5154 38.4625 37.0669 38.6506 36.6039 38.8387C36.575 38.8676 36.5605 38.8676 36.546 38.8676Z" fill="#333333"/>
<path d="M19.4151 48.3444C19.3717 48.3444 19.3427 48.33 19.3138 48.2866C19.2704 48.2287 19.2849 48.1419 19.3427 48.1129C20.1096 47.5342 20.9343 46.9121 21.7156 46.3044C23.6688 44.7997 25.6944 43.2515 27.1991 42.369C27.6766 42.0941 28.0817 41.8915 28.4289 41.7758C28.5013 41.7468 28.5736 41.7902 28.5881 41.8481C28.617 41.9204 28.5736 41.9928 28.5158 42.0072C28.183 42.123 27.7923 42.3111 27.3293 42.586C25.8246 43.4541 23.8135 45.0022 21.8747 46.4925C21.079 47.1002 20.2687 47.7223 19.5019 48.301C19.4585 48.33 19.4296 48.3444 19.4151 48.3444Z" fill="#333333"/>
<path d="M31.1637 40.546C31.0191 40.4447 31.0191 40.3723 31.0769 40.3145C32.5672 38.9978 34.4625 38.3033 36.3 37.6378C36.792 37.4497 37.3128 37.2761 37.8048 37.0735C37.8771 37.0446 37.9495 37.0735 37.9784 37.1459C38.0073 37.2182 37.9784 37.2906 37.906 37.3195C37.4141 37.5221 36.8933 37.7101 36.3869 37.8838C34.5783 38.5493 32.6974 39.2293 31.2361 40.517C31.2216 40.5315 31.1927 40.546 31.1637 40.546Z" fill="#333333"/>
<path d="M38.7596 36.9577C38.7162 36.9577 38.6584 36.9288 38.6439 36.8854C38.615 36.8131 38.6439 36.7407 38.7162 36.7118C39.1358 36.5382 39.512 36.379 39.8737 36.2054C39.9316 36.1764 40.0184 36.2054 40.0473 36.2633C40.0763 36.3211 40.0473 36.4079 39.9895 36.4369C39.6278 36.596 39.2371 36.7697 38.8175 36.9433C38.7886 36.9577 38.7741 36.9577 38.7596 36.9577Z" fill="#333333"/>
<path d="M18.3592 47.7368C18.3158 47.7368 18.2868 47.7223 18.2579 47.6789C18.2145 47.621 18.229 47.5342 18.2868 47.5053C19.0537 46.9265 19.8639 46.3044 20.6597 45.6967L21.2529 45.2482C21.3107 45.2048 21.3831 45.2193 21.4265 45.2771C21.4699 45.335 21.4554 45.4074 21.3976 45.4508L20.8044 45.8993C20.0231 46.507 19.1984 47.1291 18.4315 47.7078C18.4026 47.7223 18.3737 47.7368 18.3592 47.7368Z" fill="#333333"/>
<path d="M21.9471 44.9878C21.9037 44.9878 21.8747 44.9733 21.8458 44.9444C21.8024 44.8865 21.8169 44.8142 21.8747 44.7708C23.365 43.6423 24.8986 42.4848 26.1429 41.7758C26.6204 41.5009 27.0255 41.2984 27.3727 41.1826C27.4451 41.1537 27.5174 41.1971 27.5319 41.255C27.5608 41.3273 27.5174 41.3996 27.4596 41.4141C27.1268 41.5299 26.7361 41.7324 26.2731 41.9928C25.0433 42.7018 23.5097 43.8448 22.0339 44.9733C22.0049 44.9878 21.976 44.9878 21.9471 44.9878Z" fill="#333333"/>
<path d="M29.5577 40.4736C29.413 40.3868 29.413 40.3144 29.4564 40.2566C30.4982 39.0991 31.974 38.4046 33.5221 37.7535C33.5944 37.7246 33.6668 37.7535 33.6957 37.8259C33.7246 37.8982 33.6957 37.9705 33.6234 37.9995C32.1042 38.6506 30.6429 39.3306 29.6445 40.4447C29.6301 40.4591 29.5867 40.4736 29.5577 40.4736Z" fill="#333333"/>
<path d="M34.5785 37.5944C34.5206 37.5944 34.4772 37.5655 34.4627 37.5076C34.4338 37.4353 34.4628 37.3629 34.5351 37.334C34.9402 37.1748 35.3453 37.0157 35.7649 36.8565C36.7777 36.4659 37.8194 36.0463 38.8178 35.5978C38.8756 35.5688 38.9624 35.5978 38.9914 35.6557C39.0203 35.7135 38.9914 35.8003 38.9335 35.8293C37.9207 36.2923 36.879 36.6974 35.8662 37.088C35.4611 37.2472 35.056 37.4063 34.6364 37.5655C34.6074 37.58 34.593 37.5944 34.5785 37.5944Z" fill="#333333"/>
<path d="M18.1133 46.5069C18.0699 46.5069 18.041 46.4925 18.0121 46.4491C17.9686 46.3912 17.9831 46.3188 18.041 46.2754C18.5619 45.8848 19.0827 45.4797 19.6036 45.0746C21.036 43.975 22.5262 42.8319 23.7994 41.9638C23.8573 41.9204 23.9441 41.9349 23.9731 41.9928C24.0165 42.0506 24.002 42.1375 23.9441 42.1664C22.6709 43.02 21.1951 44.163 19.7627 45.2771C19.2419 45.6822 18.721 46.0873 18.2001 46.478C18.1712 46.5069 18.1423 46.5069 18.1133 46.5069Z" fill="#333333"/>
<path d="M24.5085 41.7758C24.4651 41.7758 24.4217 41.7613 24.3927 41.7179C24.3493 41.66 24.3783 41.5732 24.4361 41.5443C24.6532 41.3996 24.8702 41.2694 25.0727 41.1536C25.5502 40.8787 25.9553 40.6762 26.3026 40.5604C26.3749 40.5315 26.4472 40.5749 26.4617 40.6328C26.4907 40.7051 26.4472 40.7774 26.3894 40.7919C26.0566 40.9077 25.6659 41.0958 25.203 41.3707C25.0004 41.4864 24.7978 41.6166 24.5663 41.7468C24.5519 41.7758 24.5374 41.7758 24.5085 41.7758Z" fill="#333333"/>
<path d="M28.5016 39.8659C28.3569 39.7791 28.3569 39.7068 28.4003 39.6489C28.7765 39.2293 29.2539 38.8387 29.8471 38.4625C29.905 38.4191 29.9918 38.448 30.0208 38.5059C30.0642 38.5638 30.0352 38.6506 29.9773 38.6795C29.3986 39.0412 28.9356 39.4174 28.5884 39.8225C28.5739 39.8515 28.5305 39.8659 28.5016 39.8659Z" fill="#333333"/>
<path d="M30.6717 38.2599C30.6283 38.2599 30.5849 38.231 30.556 38.1876C30.527 38.1297 30.5415 38.0429 30.6138 38.0139C32.0028 37.2761 33.4786 36.6973 34.911 36.1475C35.0701 36.0896 35.1569 36.1186 35.1714 36.1765C35.2003 36.2488 35.1569 36.3211 35.0991 36.3356C33.5654 36.9288 32.0896 37.4931 30.7296 38.231C30.7151 38.2599 30.7006 38.2599 30.6717 38.2599Z" fill="#333333"/>
<path d="M35.9818 36.0029C35.9239 36.0029 35.8805 35.974 35.8661 35.9161C35.8371 35.8438 35.8661 35.7714 35.9384 35.7425C36.6474 35.4676 37.2261 35.2216 37.7614 34.9756C37.8193 34.9467 37.9061 34.9756 37.9351 35.0335C37.964 35.0914 37.9351 35.1782 37.8772 35.2071C37.3419 35.4531 36.7631 35.6991 36.0542 35.974C36.0108 36.0029 35.9963 36.0029 35.9818 36.0029Z" fill="#333333"/>
<path d="M46.6741 41.8771C47.0213 40.4591 45.806 40.3434 45.4153 41.3417L44.2723 43.8448C43.5489 41.6022 43.8093 42.7741 43.1438 38.4914C43.0136 37.5944 42.0876 37.5799 42.1021 38.4625L41.9574 42.0796H41.5667L41.1182 38.5927C41.0024 37.6812 40.0041 37.6667 39.9462 38.7519V42.8464L39.6858 43.0056L39.2518 40.1553C39.0203 38.9689 38.1522 39.157 38.1522 40.4157L38.1811 43.975L37.8338 41.9349C37.5879 41.1247 36.8789 41.226 36.8211 42.34C36.8211 42.34 36.6908 45.9861 36.8211 46.4636C36.9513 46.941 38.4126 49.01 38.4126 49.01L43.9395 49.8492C46.1532 44.2644 45.5166 46.1308 46.6741 41.8771Z" fill="#FCB58D"/>
<path d="M52.3313 37.1171C57.9306 36.1911 60.969 44.6841 56.2667 53.3218C53.8216 57.807 48.584 65.9961 44.8945 67.226C41.1906 68.4558 39.628 68.123 38.4705 65.1425C37.313 62.162 38.4271 49.0536 38.4271 49.0536C38.4271 49.0536 42.4059 46.8399 45.0392 47.6212C45.0247 47.5923 50.7108 37.3775 52.3313 37.1171Z" fill="white"/>
<path opacity="0.2" d="M45.0248 47.5921L42.189 55.1591L42.652 47.5921C42.6664 47.5921 43.5924 47.0857 45.0248 47.5921Z" fill="#4D4D4D"/>
<path d="M56.368 109.402C56.368 108.157 56.8165 107.318 57.511 106.913C57.4965 106.927 72.1097 98.5936 72.1097 98.5936C72.8186 98.1885 73.7735 98.2463 74.8008 98.8396C75.2349 99.1 75.6834 99.4472 76.1319 99.8957C83.7713 107.694 85.3049 124.304 83.9304 133.361C83.6555 135.155 83.4385 137.948 80.8486 140.161L65.0201 149.363C65.0635 149.335 65.0925 149.306 65.1359 149.291C64.8176 149.508 64.4269 149.624 63.9929 149.624C62.4303 149.58 60.8387 149.32 59.2327 148.857C58.9144 148.77 58.6106 148.626 58.3068 148.452C56.2522 147.266 54.4871 144.328 54.5016 141.84L56.368 109.402Z" fill="#732056"/>
<path d="M60.1736 107.173C58.1625 106.016 56.3684 106.898 56.3539 109.401L54.502 141.811C54.4875 148.77 65.6282 154.167 66.3372 143.388C66.9448 134.258 69.1441 116.028 61.5047 108.215C61.0707 107.781 60.6221 107.419 60.1736 107.173Z" fill="#51143E"/>
<path d="M61.5478 150C58.1188 149.884 54.0098 146.209 54.0098 141.796L55.8617 109.401C55.8617 108.041 56.3537 107 57.2362 106.493C58.1188 105.987 59.2763 106.074 60.4193 106.739C60.9112 107.029 61.3887 107.405 61.8517 107.882C68.9557 115.145 67.7403 131.176 67.0169 140.755C66.9446 141.71 66.8722 142.607 66.8288 143.431C66.5539 147.555 64.6586 150 61.7215 150C61.6636 150 61.6057 150 61.5478 150ZM57.7426 107.361C57.1784 107.694 56.86 108.418 56.86 109.445L55.0081 141.825C54.9936 145.674 58.5963 148.9 61.5912 149.016C64.0509 149.088 65.6279 147.048 65.8594 143.373C65.9173 142.549 65.9897 141.652 66.062 140.682C66.771 131.278 67.9574 115.522 61.1717 108.577C60.7665 108.172 60.3614 107.839 59.9418 107.593C59.4354 107.303 58.958 107.159 58.5239 107.159C58.2201 107.159 57.9741 107.231 57.7426 107.361Z" fill="#1E1E1E"/>
<path d="M72.6021 97.8991C72.6744 98.2029 72.7178 98.3765 72.7178 98.3765L73.8463 98.9552C74.0778 99.0276 74.3238 99.1289 74.5553 99.2736C74.6855 99.3459 74.8013 99.4327 74.9315 99.5051C75.2353 99.7221 75.5102 99.968 75.7851 100.243C83.2653 107.882 84.7845 124.478 83.4534 133.289L83.3955 133.694C83.1496 135.445 82.8747 138.208 80.632 140.147L77.5792 142.071C81.095 140.682 83.4679 140.147 84.3794 133.824L84.4373 133.434C85.8407 124.159 84.307 107.521 76.4941 99.5485C76.0311 99.071 75.5536 98.6948 75.0617 98.4054C74.1936 97.928 73.3399 97.7399 72.6021 97.8991Z" fill="#1E1E1E"/>
<path d="M68.3625 128.051C68.3625 127.574 68.5361 127.256 68.7965 127.096L81.1526 120.007C81.4275 119.848 81.7892 119.877 82.1799 120.094C82.339 120.18 82.5127 120.311 82.6718 120.484L68.3191 128.63L68.3625 128.051Z" fill="#51143E"/>
<path d="M82.6861 120.47C84.1619 121.975 85.0445 124.304 85.493 126.691L67.856 136.964L68.3334 128.616L82.6861 120.47Z" fill="#FBB03B"/>
<path d="M85.4932 126.691C85.9562 129.108 85.9706 131.596 85.7102 133.347C85.6089 134.041 85.5221 135.112 84.5238 135.966L71.6903 143.402C71.6035 143.46 71.4588 143.504 71.2996 143.504C70.6919 143.489 70.0843 143.388 69.4766 143.214C69.3608 143.185 69.2306 143.127 69.1149 143.055C68.3191 142.607 67.6536 141.464 67.6536 140.509L67.8561 136.978L85.4932 126.691Z" fill="#1E1E1E"/>
<path d="M69.8385 127.183C69.0717 126.735 68.3772 127.082 68.3772 128.037L67.6682 140.494C67.6682 141.449 68.3482 142.578 69.1295 143.041C69.2453 143.113 69.361 143.156 69.4912 143.2C70.1134 143.388 70.1134 143.475 70.7211 143.475C71.4879 143.475 72.1824 141.681 72.2258 141.102C72.4573 137.601 73.2964 130.583 70.3738 127.588C70.1713 127.415 69.9976 127.285 69.8385 127.183Z" fill="#51143E"/>
<path d="M75.9148 128.08C76.0306 128.731 77.0578 128.76 78.2008 128.153C79.3583 127.545 80.1975 126.518 80.0962 125.867C79.9804 125.215 78.9532 125.186 77.8102 125.794C76.6527 126.416 75.7991 127.429 75.9148 128.08Z" fill="white"/>
<path d="M60.6799 106.32C60.622 106.291 72.6019 99.4616 72.6019 99.4616C72.7466 99.3748 72.9202 99.3314 73.1228 99.3314C73.47 99.3314 73.8751 99.4616 74.2947 99.7076C74.6709 99.9246 75.0471 100.228 75.4088 100.605C77.5501 102.804 79.1995 105.741 80.4294 109.04C80.9936 110.559 80.357 112.266 78.9536 113.076L71.1406 117.62C69.3755 118.647 67.1328 117.721 66.583 115.753C65.686 112.541 64.297 109.676 62.2136 107.535C61.7216 107.029 61.2008 106.624 60.6799 106.32Z" fill="#FBB03B"/>
<path d="M65.4835 105.64C68.0589 101.299 72.5441 101.56 72.5875 101.545L71.2998 100.532C71.0828 100.547 67.104 99.8957 64.1958 104.887L65.4835 105.64Z" fill="#1E1E1E"/>
</svg>
