<svg width="26" height="30" viewBox="0 0 26 30" fill="none" xmlns="http://www.w3.org/2000/svg">
<path d="M12.8572 12.8571C11.1522 12.8571 9.51706 12.1799 8.31147 10.9743C7.10588 9.76867 6.42859 8.13354 6.42859 6.42857C6.42859 4.72361 7.10588 3.08848 8.31147 1.88289C9.51706 0.677294 11.1522 0 12.8572 0C14.5621 0 16.1973 0.677294 17.4028 1.88289C18.6084 3.08848 19.2857 4.72361 19.2857 6.42857C19.2857 8.13354 18.6084 9.76867 17.4028 10.9743C16.1973 12.1799 14.5621 12.8571 12.8572 12.8571Z" fill="#1E1E1E" fill-opacity="0.6"/>
<path d="M0 30V27.8571C0 25.5838 0.903058 23.4037 2.51051 21.7962C4.11797 20.1888 6.29814 19.2857 8.57143 19.2857H17.1429C19.4161 19.2857 21.5963 20.1888 23.2038 21.7962C24.8112 23.4037 25.7143 25.5838 25.7143 27.8571V30" fill="#1E1E1E" fill-opacity="0.6"/>
</svg>
